M48
; DRILL file {KiCad 8.0.1} date 2024-04-24T00:03:32-0400
; FORMAT={-:-/ absolute / metric / decimal}
; #@! TF.CreationDate,2024-04-24T00:03:32-04:00
; #@! TF.GenerationSoftware,Kicad,Pcbnew,8.0.1
; #@! TF.FileFunction,NonPlated,1,2,NPTH
FMAT,2
METRIC
; #@! TA.AperFunction,NonPlated,NPTH,ComponentDrill
T1C1.600
; #@! TA.AperFunction,NonPlated,NPTH,ComponentDrill
T2C1.900
; #@! TA.AperFunction,NonPlated,NPTH,ComponentDrill
T3C3.050
; #@! TA.AperFunction,NonPlated,NPTH,ComponentDrill
T4C5.050
; #@! TA.AperFunction,NonPlated,NPTH,ComponentDrill
T5C6.400
%
G90
G05
T1
X59.705Y-86.55
X74.638Y-36.65
X86.305Y-73.08
X92.138Y-36.65
X110.636Y-36.65
X115.4Y-73.2
X121.92Y-136.53
X128.137Y-36.65
X142.0Y-84.55
X159.5Y-137.65
X171.33Y-104.18
X176.94Y-73.14
X197.08Y-136.53
X197.94Y-93.07
X203.5Y-61.61
X226.79Y-93.07
X232.47Y-61.49
X259.086Y-83.56
T2
X59.205Y-81.4
X70.205Y-81.4
X74.138Y-31.5
X85.138Y-31.5
X85.805Y-67.93
X91.638Y-31.5
X96.805Y-67.93
X102.637Y-31.5
X110.136Y-31.5
X114.9Y-68.05
X121.136Y-31.5
X121.42Y-131.38
X125.9Y-68.05
X127.637Y-31.5
X132.42Y-131.38
X138.637Y-31.5
X141.5Y-79.4
X152.5Y-79.4
X159.0Y-132.5
X170.0Y-132.5
X170.83Y-99.03
X176.44Y-67.99
X181.83Y-99.03
X187.44Y-67.99
X196.58Y-131.38
X197.44Y-87.92
X203.0Y-56.46
X207.58Y-131.38
X208.44Y-87.92
X214.0Y-56.46
X226.29Y-87.92
X231.97Y-56.34
X237.29Y-87.92
X242.97Y-56.34
X258.586Y-78.41
X269.586Y-78.41
T3
X64.705Y-75.5
X69.705Y-77.6
X79.638Y-25.6
X84.638Y-27.7
X91.305Y-62.03
X96.305Y-64.13
X97.137Y-25.6
X102.137Y-27.7
X115.636Y-25.6
X120.4Y-62.15
X120.636Y-27.7
X125.4Y-64.25
X126.92Y-125.48
X131.92Y-127.58
X133.137Y-25.6
X138.137Y-27.7
X147.0Y-73.5
X152.0Y-75.6
X164.5Y-126.6
X169.5Y-128.7
X176.33Y-93.13
X181.33Y-95.23
X181.94Y-62.09
X186.94Y-64.19
X202.08Y-125.48
X202.94Y-82.02
X207.08Y-127.58
X207.94Y-84.12
X208.5Y-50.56
X213.5Y-52.66
X231.79Y-82.02
X236.79Y-84.12
X237.47Y-50.44
X242.47Y-52.54
X264.086Y-72.51
X269.086Y-74.61
T4
X64.705Y-81.4
X79.638Y-31.5
X91.305Y-67.93
X97.137Y-31.5
X115.636Y-31.5
X120.4Y-68.05
X126.92Y-131.38
X133.137Y-31.5
X147.0Y-79.4
X164.5Y-132.5
X176.33Y-99.03
X181.94Y-67.99
X202.08Y-131.38
X202.94Y-87.92
X208.5Y-56.46
X231.79Y-87.92
X237.47Y-56.34
X264.086Y-78.41
T5
X60.0Y-30.0
X60.0Y-155.0
X167.0Y-81.0
X170.0Y-155.0
X190.0Y-30.0
X280.0Y-30.0
X280.0Y-155.0
M30
