%TF.GenerationSoftware,KiCad,Pcbnew,8.0.1*%
%TF.CreationDate,2024-04-24T00:03:39-04:00*%
%TF.ProjectId,leviathan,6c657669-6174-4686-916e-2e6b69636164,rev?*%
%TF.SameCoordinates,Original*%
%TF.FileFunction,Legend,Bot*%
%TF.FilePolarity,Positive*%
%FSLAX46Y46*%
G04 Gerber Fmt 4.6, Leading zero omitted, Abs format (unit mm)*
G04 Created by KiCad (PCBNEW 8.0.1) date 2024-04-24 00:03:39*
%MOMM*%
%LPD*%
G01*
G04 APERTURE LIST*
G04 Aperture macros list*
%AMRoundRect*
0 Rectangle with rounded corners*
0 $1 Rounding radius*
0 $2 $3 $4 $5 $6 $7 $8 $9 X,Y pos of 4 corners*
0 Add a 4 corners polygon primitive as box body*
4,1,4,$2,$3,$4,$5,$6,$7,$8,$9,$2,$3,0*
0 Add four circle primitives for the rounded corners*
1,1,$1+$1,$2,$3*
1,1,$1+$1,$4,$5*
1,1,$1+$1,$6,$7*
1,1,$1+$1,$8,$9*
0 Add four rect primitives between the rounded corners*
20,1,$1+$1,$2,$3,$4,$5,0*
20,1,$1+$1,$4,$5,$6,$7,0*
20,1,$1+$1,$6,$7,$8,$9,0*
20,1,$1+$1,$8,$9,$2,$3,0*%
G04 Aperture macros list end*
%ADD10C,0.120000*%
%ADD11C,1.900000*%
%ADD12C,1.600000*%
%ADD13C,3.050000*%
%ADD14C,5.050000*%
%ADD15RoundRect,0.250000X-1.025000X-1.000000X1.025000X-1.000000X1.025000X1.000000X-1.025000X1.000000X0*%
%ADD16C,6.400000*%
G04 APERTURE END LIST*
D10*
X117984000Y-60641000D02*
X118921000Y-59704000D01*
X118921000Y-59704000D02*
X121668000Y-59704000D01*
X118921000Y-64496000D02*
X117900000Y-63475000D01*
X121568000Y-64496000D02*
X118921000Y-64496000D01*
X121668000Y-59704000D02*
X122071000Y-59784000D01*
X122071000Y-59784000D02*
X122413000Y-60013000D01*
X122130000Y-64601000D02*
X121568000Y-64496000D01*
X122413000Y-60013000D02*
X122946000Y-60546000D01*
X122609000Y-64900000D02*
X122130000Y-64601000D01*
X122946000Y-60546000D02*
X122946000Y-60768000D01*
X122946000Y-60768000D02*
X123033000Y-61206000D01*
X122947000Y-65353000D02*
X122609000Y-64900000D01*
X123033000Y-61206000D02*
X123277000Y-61573000D01*
X123101000Y-65911000D02*
X122947000Y-65353000D01*
X123183000Y-66209000D02*
X123101000Y-65911000D01*
X123277000Y-61573000D02*
X123644000Y-61817000D01*
X123376000Y-66467000D02*
X123183000Y-66209000D01*
X123644000Y-61817000D02*
X124082000Y-61904000D01*
X123650000Y-66637000D02*
X123376000Y-66467000D01*
X123960000Y-66696000D02*
X123650000Y-66637000D01*
X124082000Y-61904000D02*
X126882000Y-61904000D01*
X126882000Y-61904000D02*
X127209000Y-61969000D01*
X127209000Y-61969000D02*
X127492000Y-62158000D01*
X127492000Y-62158000D02*
X127681000Y-62441000D01*
X127681000Y-62441000D02*
X127766000Y-62868000D01*
X127683000Y-65754000D02*
X128046000Y-65754000D01*
X128046000Y-65754000D02*
X128046000Y-66696000D01*
X128046000Y-66696000D02*
X123960000Y-66696000D01*
X144584000Y-71991000D02*
X145521000Y-71054000D01*
X145521000Y-71054000D02*
X148268000Y-71054000D01*
X145521000Y-75846000D02*
X144500000Y-74825000D01*
X148168000Y-75846000D02*
X145521000Y-75846000D01*
X148268000Y-71054000D02*
X148671000Y-71134000D01*
X148671000Y-71134000D02*
X149013000Y-71363000D01*
X148730000Y-75951000D02*
X148168000Y-75846000D01*
X149013000Y-71363000D02*
X149546000Y-71896000D01*
X149209000Y-76250000D02*
X148730000Y-75951000D01*
X149546000Y-71896000D02*
X149546000Y-72118000D01*
X149546000Y-72118000D02*
X149633000Y-72556000D01*
X149547000Y-76703000D02*
X149209000Y-76250000D01*
X149633000Y-72556000D02*
X149877000Y-72923000D01*
X149701000Y-77261000D02*
X149547000Y-76703000D01*
X149783000Y-77559000D02*
X149701000Y-77261000D01*
X149877000Y-72923000D02*
X150244000Y-73167000D01*
X149976000Y-77817000D02*
X149783000Y-77559000D01*
X150244000Y-73167000D02*
X150682000Y-73254000D01*
X150250000Y-77987000D02*
X149976000Y-77817000D01*
X150560000Y-78046000D02*
X150250000Y-77987000D01*
X150682000Y-73254000D02*
X153482000Y-73254000D01*
X153482000Y-73254000D02*
X153809000Y-73319000D01*
X153809000Y-73319000D02*
X154092000Y-73508000D01*
X154092000Y-73508000D02*
X154281000Y-73791000D01*
X154281000Y-73791000D02*
X154366000Y-74218000D01*
X154283000Y-77104000D02*
X154646000Y-77104000D01*
X154646000Y-77104000D02*
X154646000Y-78046000D01*
X154646000Y-78046000D02*
X150560000Y-78046000D01*
X162084000Y-125091000D02*
X163021000Y-124154000D01*
X163021000Y-124154000D02*
X165768000Y-124154000D01*
X163021000Y-128946000D02*
X162000000Y-127925000D01*
X165668000Y-128946000D02*
X163021000Y-128946000D01*
X165768000Y-124154000D02*
X166171000Y-124234000D01*
X166171000Y-124234000D02*
X166513000Y-124463000D01*
X166230000Y-129051000D02*
X165668000Y-128946000D01*
X166513000Y-124463000D02*
X167046000Y-124996000D01*
X166709000Y-129350000D02*
X166230000Y-129051000D01*
X167046000Y-124996000D02*
X167046000Y-125218000D01*
X167046000Y-125218000D02*
X167133000Y-125656000D01*
X167047000Y-129803000D02*
X166709000Y-129350000D01*
X167133000Y-125656000D02*
X167377000Y-126023000D01*
X167201000Y-130361000D02*
X167047000Y-129803000D01*
X167283000Y-130659000D02*
X167201000Y-130361000D01*
X167377000Y-126023000D02*
X167744000Y-126267000D01*
X167476000Y-130917000D02*
X167283000Y-130659000D01*
X167744000Y-126267000D02*
X168182000Y-126354000D01*
X167750000Y-131087000D02*
X167476000Y-130917000D01*
X168060000Y-131146000D02*
X167750000Y-131087000D01*
X168182000Y-126354000D02*
X170982000Y-126354000D01*
X170982000Y-126354000D02*
X171309000Y-126419000D01*
X171309000Y-126419000D02*
X171592000Y-126608000D01*
X171592000Y-126608000D02*
X171781000Y-126891000D01*
X171781000Y-126891000D02*
X171866000Y-127318000D01*
X171783000Y-130204000D02*
X172146000Y-130204000D01*
X172146000Y-130204000D02*
X172146000Y-131146000D01*
X172146000Y-131146000D02*
X168060000Y-131146000D01*
X179524000Y-60581000D02*
X180461000Y-59644000D01*
X180461000Y-59644000D02*
X183208000Y-59644000D01*
X180461000Y-64436000D02*
X179440000Y-63415000D01*
X183108000Y-64436000D02*
X180461000Y-64436000D01*
X183208000Y-59644000D02*
X183611000Y-59724000D01*
X183611000Y-59724000D02*
X183953000Y-59953000D01*
X183670000Y-64541000D02*
X183108000Y-64436000D01*
X183953000Y-59953000D02*
X184486000Y-60486000D01*
X184149000Y-64840000D02*
X183670000Y-64541000D01*
X184486000Y-60486000D02*
X184486000Y-60708000D01*
X184486000Y-60708000D02*
X184573000Y-61146000D01*
X184487000Y-65293000D02*
X184149000Y-64840000D01*
X184573000Y-61146000D02*
X184817000Y-61513000D01*
X184641000Y-65851000D02*
X184487000Y-65293000D01*
X184723000Y-66149000D02*
X184641000Y-65851000D01*
X184817000Y-61513000D02*
X185184000Y-61757000D01*
X184916000Y-66407000D02*
X184723000Y-66149000D01*
X185184000Y-61757000D02*
X185622000Y-61844000D01*
X185190000Y-66577000D02*
X184916000Y-66407000D01*
X185500000Y-66636000D02*
X185190000Y-66577000D01*
X185622000Y-61844000D02*
X188422000Y-61844000D01*
X188422000Y-61844000D02*
X188749000Y-61909000D01*
X188749000Y-61909000D02*
X189032000Y-62098000D01*
X189032000Y-62098000D02*
X189221000Y-62381000D01*
X189221000Y-62381000D02*
X189306000Y-62808000D01*
X189223000Y-65694000D02*
X189586000Y-65694000D01*
X189586000Y-65694000D02*
X189586000Y-66636000D01*
X189586000Y-66636000D02*
X185500000Y-66636000D01*
X206084000Y-49051000D02*
X207021000Y-48114000D01*
X207021000Y-48114000D02*
X209768000Y-48114000D01*
X207021000Y-52906000D02*
X206000000Y-51885000D01*
X209668000Y-52906000D02*
X207021000Y-52906000D01*
X209768000Y-48114000D02*
X210171000Y-48194000D01*
X210171000Y-48194000D02*
X210513000Y-48423000D01*
X210230000Y-53011000D02*
X209668000Y-52906000D01*
X210513000Y-48423000D02*
X211046000Y-48956000D01*
X210709000Y-53310000D02*
X210230000Y-53011000D01*
X211046000Y-48956000D02*
X211046000Y-49178000D01*
X211046000Y-49178000D02*
X211133000Y-49616000D01*
X211047000Y-53763000D02*
X210709000Y-53310000D01*
X211133000Y-49616000D02*
X211377000Y-49983000D01*
X211201000Y-54321000D02*
X211047000Y-53763000D01*
X211283000Y-54619000D02*
X211201000Y-54321000D01*
X211377000Y-49983000D02*
X211744000Y-50227000D01*
X211476000Y-54877000D02*
X211283000Y-54619000D01*
X211744000Y-50227000D02*
X212182000Y-50314000D01*
X211750000Y-55047000D02*
X211476000Y-54877000D01*
X212060000Y-55106000D02*
X211750000Y-55047000D01*
X212182000Y-50314000D02*
X214982000Y-50314000D01*
X214982000Y-50314000D02*
X215309000Y-50379000D01*
X215309000Y-50379000D02*
X215592000Y-50568000D01*
X215592000Y-50568000D02*
X215781000Y-50851000D01*
X215781000Y-50851000D02*
X215866000Y-51278000D01*
X215783000Y-54164000D02*
X216146000Y-54164000D01*
X216146000Y-54164000D02*
X216146000Y-55106000D01*
X216146000Y-55106000D02*
X212060000Y-55106000D01*
X235054000Y-48931000D02*
X235991000Y-47994000D01*
X235991000Y-47994000D02*
X238738000Y-47994000D01*
X235991000Y-52786000D02*
X234970000Y-51765000D01*
X238638000Y-52786000D02*
X235991000Y-52786000D01*
X238738000Y-47994000D02*
X239141000Y-48074000D01*
X239141000Y-48074000D02*
X239483000Y-48303000D01*
X239200000Y-52891000D02*
X238638000Y-52786000D01*
X239483000Y-48303000D02*
X240016000Y-48836000D01*
X239679000Y-53190000D02*
X239200000Y-52891000D01*
X240016000Y-48836000D02*
X240016000Y-49058000D01*
X240016000Y-49058000D02*
X240103000Y-49496000D01*
X240017000Y-53643000D02*
X239679000Y-53190000D01*
X240103000Y-49496000D02*
X240347000Y-49863000D01*
X240171000Y-54201000D02*
X240017000Y-53643000D01*
X240253000Y-54499000D02*
X240171000Y-54201000D01*
X240347000Y-49863000D02*
X240714000Y-50107000D01*
X240446000Y-54757000D02*
X240253000Y-54499000D01*
X240714000Y-50107000D02*
X241152000Y-50194000D01*
X240720000Y-54927000D02*
X240446000Y-54757000D01*
X241030000Y-54986000D02*
X240720000Y-54927000D01*
X241152000Y-50194000D02*
X243952000Y-50194000D01*
X243952000Y-50194000D02*
X244279000Y-50259000D01*
X244279000Y-50259000D02*
X244562000Y-50448000D01*
X244562000Y-50448000D02*
X244751000Y-50731000D01*
X244751000Y-50731000D02*
X244836000Y-51158000D01*
X244753000Y-54044000D02*
X245116000Y-54044000D01*
X245116000Y-54044000D02*
X245116000Y-54986000D01*
X245116000Y-54986000D02*
X241030000Y-54986000D01*
X173914000Y-91621000D02*
X174851000Y-90684000D01*
X174851000Y-90684000D02*
X177598000Y-90684000D01*
X174851000Y-95476000D02*
X173830000Y-94455000D01*
X177498000Y-95476000D02*
X174851000Y-95476000D01*
X177598000Y-90684000D02*
X178001000Y-90764000D01*
X178001000Y-90764000D02*
X178343000Y-90993000D01*
X178060000Y-95581000D02*
X177498000Y-95476000D01*
X178343000Y-90993000D02*
X178876000Y-91526000D01*
X178539000Y-95880000D02*
X178060000Y-95581000D01*
X178876000Y-91526000D02*
X178876000Y-91748000D01*
X178876000Y-91748000D02*
X178963000Y-92186000D01*
X178877000Y-96333000D02*
X178539000Y-95880000D01*
X178963000Y-92186000D02*
X179207000Y-92553000D01*
X179031000Y-96891000D02*
X178877000Y-96333000D01*
X179113000Y-97189000D02*
X179031000Y-96891000D01*
X179207000Y-92553000D02*
X179574000Y-92797000D01*
X179306000Y-97447000D02*
X179113000Y-97189000D01*
X179574000Y-92797000D02*
X180012000Y-92884000D01*
X179580000Y-97617000D02*
X179306000Y-97447000D01*
X179890000Y-97676000D02*
X179580000Y-97617000D01*
X180012000Y-92884000D02*
X182812000Y-92884000D01*
X182812000Y-92884000D02*
X183139000Y-92949000D01*
X183139000Y-92949000D02*
X183422000Y-93138000D01*
X183422000Y-93138000D02*
X183611000Y-93421000D01*
X183611000Y-93421000D02*
X183696000Y-93848000D01*
X183613000Y-96734000D02*
X183976000Y-96734000D01*
X183976000Y-96734000D02*
X183976000Y-97676000D01*
X183976000Y-97676000D02*
X179890000Y-97676000D01*
X200524000Y-80511000D02*
X201461000Y-79574000D01*
X201461000Y-79574000D02*
X204208000Y-79574000D01*
X201461000Y-84366000D02*
X200440000Y-83345000D01*
X204108000Y-84366000D02*
X201461000Y-84366000D01*
X204208000Y-79574000D02*
X204611000Y-79654000D01*
X204611000Y-79654000D02*
X204953000Y-79883000D01*
X204670000Y-84471000D02*
X204108000Y-84366000D01*
X204953000Y-79883000D02*
X205486000Y-80416000D01*
X205149000Y-84770000D02*
X204670000Y-84471000D01*
X205486000Y-80416000D02*
X205486000Y-80638000D01*
X205486000Y-80638000D02*
X205573000Y-81076000D01*
X205487000Y-85223000D02*
X205149000Y-84770000D01*
X205573000Y-81076000D02*
X205817000Y-81443000D01*
X205641000Y-85781000D02*
X205487000Y-85223000D01*
X205723000Y-86079000D02*
X205641000Y-85781000D01*
X205817000Y-81443000D02*
X206184000Y-81687000D01*
X205916000Y-86337000D02*
X205723000Y-86079000D01*
X206184000Y-81687000D02*
X206622000Y-81774000D01*
X206190000Y-86507000D02*
X205916000Y-86337000D01*
X206500000Y-86566000D02*
X206190000Y-86507000D01*
X206622000Y-81774000D02*
X209422000Y-81774000D01*
X209422000Y-81774000D02*
X209749000Y-81839000D01*
X209749000Y-81839000D02*
X210032000Y-82028000D01*
X210032000Y-82028000D02*
X210221000Y-82311000D01*
X210221000Y-82311000D02*
X210306000Y-82738000D01*
X210223000Y-85624000D02*
X210586000Y-85624000D01*
X210586000Y-85624000D02*
X210586000Y-86566000D01*
X210586000Y-86566000D02*
X206500000Y-86566000D01*
X229374000Y-80511000D02*
X230311000Y-79574000D01*
X230311000Y-79574000D02*
X233058000Y-79574000D01*
X230311000Y-84366000D02*
X229290000Y-83345000D01*
X232958000Y-84366000D02*
X230311000Y-84366000D01*
X233058000Y-79574000D02*
X233461000Y-79654000D01*
X233461000Y-79654000D02*
X233803000Y-79883000D01*
X233520000Y-84471000D02*
X232958000Y-84366000D01*
X233803000Y-79883000D02*
X234336000Y-80416000D01*
X233999000Y-84770000D02*
X233520000Y-84471000D01*
X234336000Y-80416000D02*
X234336000Y-80638000D01*
X234336000Y-80638000D02*
X234423000Y-81076000D01*
X234337000Y-85223000D02*
X233999000Y-84770000D01*
X234423000Y-81076000D02*
X234667000Y-81443000D01*
X234491000Y-85781000D02*
X234337000Y-85223000D01*
X234573000Y-86079000D02*
X234491000Y-85781000D01*
X234667000Y-81443000D02*
X235034000Y-81687000D01*
X234766000Y-86337000D02*
X234573000Y-86079000D01*
X235034000Y-81687000D02*
X235472000Y-81774000D01*
X235040000Y-86507000D02*
X234766000Y-86337000D01*
X235350000Y-86566000D02*
X235040000Y-86507000D01*
X235472000Y-81774000D02*
X238272000Y-81774000D01*
X238272000Y-81774000D02*
X238599000Y-81839000D01*
X238599000Y-81839000D02*
X238882000Y-82028000D01*
X238882000Y-82028000D02*
X239071000Y-82311000D01*
X239071000Y-82311000D02*
X239156000Y-82738000D01*
X239073000Y-85624000D02*
X239436000Y-85624000D01*
X239436000Y-85624000D02*
X239436000Y-86566000D01*
X239436000Y-86566000D02*
X235350000Y-86566000D01*
X88889000Y-60521000D02*
X89826000Y-59584000D01*
X89826000Y-59584000D02*
X92573000Y-59584000D01*
X89826000Y-64376000D02*
X88805000Y-63355000D01*
X92473000Y-64376000D02*
X89826000Y-64376000D01*
X92573000Y-59584000D02*
X92976000Y-59664000D01*
X92976000Y-59664000D02*
X93318000Y-59893000D01*
X93035000Y-64481000D02*
X92473000Y-64376000D01*
X93318000Y-59893000D02*
X93851000Y-60426000D01*
X93514000Y-64780000D02*
X93035000Y-64481000D01*
X93851000Y-60426000D02*
X93851000Y-60648000D01*
X93851000Y-60648000D02*
X93938000Y-61086000D01*
X93852000Y-65233000D02*
X93514000Y-64780000D01*
X93938000Y-61086000D02*
X94182000Y-61453000D01*
X94006000Y-65791000D02*
X93852000Y-65233000D01*
X94088000Y-66089000D02*
X94006000Y-65791000D01*
X94182000Y-61453000D02*
X94549000Y-61697000D01*
X94281000Y-66347000D02*
X94088000Y-66089000D01*
X94549000Y-61697000D02*
X94987000Y-61784000D01*
X94555000Y-66517000D02*
X94281000Y-66347000D01*
X94865000Y-66576000D02*
X94555000Y-66517000D01*
X94987000Y-61784000D02*
X97787000Y-61784000D01*
X97787000Y-61784000D02*
X98114000Y-61849000D01*
X98114000Y-61849000D02*
X98397000Y-62038000D01*
X98397000Y-62038000D02*
X98586000Y-62321000D01*
X98586000Y-62321000D02*
X98671000Y-62748000D01*
X98588000Y-65634000D02*
X98951000Y-65634000D01*
X98951000Y-65634000D02*
X98951000Y-66576000D01*
X98951000Y-66576000D02*
X94865000Y-66576000D01*
X94721500Y-24091000D02*
X95658500Y-23154000D01*
X95658500Y-23154000D02*
X98405500Y-23154000D01*
X95658500Y-27946000D02*
X94637500Y-26925000D01*
X98305500Y-27946000D02*
X95658500Y-27946000D01*
X98405500Y-23154000D02*
X98808500Y-23234000D01*
X98808500Y-23234000D02*
X99150500Y-23463000D01*
X98867500Y-28051000D02*
X98305500Y-27946000D01*
X99150500Y-23463000D02*
X99683500Y-23996000D01*
X99346500Y-28350000D02*
X98867500Y-28051000D01*
X99683500Y-23996000D02*
X99683500Y-24218000D01*
X99683500Y-24218000D02*
X99770500Y-24656000D01*
X99684500Y-28803000D02*
X99346500Y-28350000D01*
X99770500Y-24656000D02*
X100014500Y-25023000D01*
X99838500Y-29361000D02*
X99684500Y-28803000D01*
X99920500Y-29659000D02*
X99838500Y-29361000D01*
X100014500Y-25023000D02*
X100381500Y-25267000D01*
X100113500Y-29917000D02*
X99920500Y-29659000D01*
X100381500Y-25267000D02*
X100819500Y-25354000D01*
X100387500Y-30087000D02*
X100113500Y-29917000D01*
X100697500Y-30146000D02*
X100387500Y-30087000D01*
X100819500Y-25354000D02*
X103619500Y-25354000D01*
X103619500Y-25354000D02*
X103946500Y-25419000D01*
X103946500Y-25419000D02*
X104229500Y-25608000D01*
X104229500Y-25608000D02*
X104418500Y-25891000D01*
X104418500Y-25891000D02*
X104503500Y-26318000D01*
X104420500Y-29204000D02*
X104783500Y-29204000D01*
X104783500Y-29204000D02*
X104783500Y-30146000D01*
X104783500Y-30146000D02*
X100697500Y-30146000D01*
X113220500Y-24091000D02*
X114157500Y-23154000D01*
X114157500Y-23154000D02*
X116904500Y-23154000D01*
X114157500Y-27946000D02*
X113136500Y-26925000D01*
X116804500Y-27946000D02*
X114157500Y-27946000D01*
X116904500Y-23154000D02*
X117307500Y-23234000D01*
X117307500Y-23234000D02*
X117649500Y-23463000D01*
X117366500Y-28051000D02*
X116804500Y-27946000D01*
X117649500Y-23463000D02*
X118182500Y-23996000D01*
X117845500Y-28350000D02*
X117366500Y-28051000D01*
X118182500Y-23996000D02*
X118182500Y-24218000D01*
X118182500Y-24218000D02*
X118269500Y-24656000D01*
X118183500Y-28803000D02*
X117845500Y-28350000D01*
X118269500Y-24656000D02*
X118513500Y-25023000D01*
X118337500Y-29361000D02*
X118183500Y-28803000D01*
X118419500Y-29659000D02*
X118337500Y-29361000D01*
X118513500Y-25023000D02*
X118880500Y-25267000D01*
X118612500Y-29917000D02*
X118419500Y-29659000D01*
X118880500Y-25267000D02*
X119318500Y-25354000D01*
X118886500Y-30087000D02*
X118612500Y-29917000D01*
X119196500Y-30146000D02*
X118886500Y-30087000D01*
X119318500Y-25354000D02*
X122118500Y-25354000D01*
X122118500Y-25354000D02*
X122445500Y-25419000D01*
X122445500Y-25419000D02*
X122728500Y-25608000D01*
X122728500Y-25608000D02*
X122917500Y-25891000D01*
X122917500Y-25891000D02*
X123002500Y-26318000D01*
X122919500Y-29204000D02*
X123282500Y-29204000D01*
X123282500Y-29204000D02*
X123282500Y-30146000D01*
X123282500Y-30146000D02*
X119196500Y-30146000D01*
X77221500Y-24091000D02*
X78158500Y-23154000D01*
X78158500Y-23154000D02*
X80905500Y-23154000D01*
X78158500Y-27946000D02*
X77137500Y-26925000D01*
X80805500Y-27946000D02*
X78158500Y-27946000D01*
X80905500Y-23154000D02*
X81308500Y-23234000D01*
X81308500Y-23234000D02*
X81650500Y-23463000D01*
X81367500Y-28051000D02*
X80805500Y-27946000D01*
X81650500Y-23463000D02*
X82183500Y-23996000D01*
X81846500Y-28350000D02*
X81367500Y-28051000D01*
X82183500Y-23996000D02*
X82183500Y-24218000D01*
X82183500Y-24218000D02*
X82270500Y-24656000D01*
X82184500Y-28803000D02*
X81846500Y-28350000D01*
X82270500Y-24656000D02*
X82514500Y-25023000D01*
X82338500Y-29361000D02*
X82184500Y-28803000D01*
X82420500Y-29659000D02*
X82338500Y-29361000D01*
X82514500Y-25023000D02*
X82881500Y-25267000D01*
X82613500Y-29917000D02*
X82420500Y-29659000D01*
X82881500Y-25267000D02*
X83319500Y-25354000D01*
X82887500Y-30087000D02*
X82613500Y-29917000D01*
X83197500Y-30146000D02*
X82887500Y-30087000D01*
X83319500Y-25354000D02*
X86119500Y-25354000D01*
X86119500Y-25354000D02*
X86446500Y-25419000D01*
X86446500Y-25419000D02*
X86729500Y-25608000D01*
X86729500Y-25608000D02*
X86918500Y-25891000D01*
X86918500Y-25891000D02*
X87003500Y-26318000D01*
X86920500Y-29204000D02*
X87283500Y-29204000D01*
X87283500Y-29204000D02*
X87283500Y-30146000D01*
X87283500Y-30146000D02*
X83197500Y-30146000D01*
X130721500Y-24091000D02*
X131658500Y-23154000D01*
X131658500Y-23154000D02*
X134405500Y-23154000D01*
X131658500Y-27946000D02*
X130637500Y-26925000D01*
X134305500Y-27946000D02*
X131658500Y-27946000D01*
X134405500Y-23154000D02*
X134808500Y-23234000D01*
X134808500Y-23234000D02*
X135150500Y-23463000D01*
X134867500Y-28051000D02*
X134305500Y-27946000D01*
X135150500Y-23463000D02*
X135683500Y-23996000D01*
X135346500Y-28350000D02*
X134867500Y-28051000D01*
X135683500Y-23996000D02*
X135683500Y-24218000D01*
X135683500Y-24218000D02*
X135770500Y-24656000D01*
X135684500Y-28803000D02*
X135346500Y-28350000D01*
X135770500Y-24656000D02*
X136014500Y-25023000D01*
X135838500Y-29361000D02*
X135684500Y-28803000D01*
X135920500Y-29659000D02*
X135838500Y-29361000D01*
X136014500Y-25023000D02*
X136381500Y-25267000D01*
X136113500Y-29917000D02*
X135920500Y-29659000D01*
X136381500Y-25267000D02*
X136819500Y-25354000D01*
X136387500Y-30087000D02*
X136113500Y-29917000D01*
X136697500Y-30146000D02*
X136387500Y-30087000D01*
X136819500Y-25354000D02*
X139619500Y-25354000D01*
X139619500Y-25354000D02*
X139946500Y-25419000D01*
X139946500Y-25419000D02*
X140229500Y-25608000D01*
X140229500Y-25608000D02*
X140418500Y-25891000D01*
X140418500Y-25891000D02*
X140503500Y-26318000D01*
X140420500Y-29204000D02*
X140783500Y-29204000D01*
X140783500Y-29204000D02*
X140783500Y-30146000D01*
X140783500Y-30146000D02*
X136697500Y-30146000D01*
X62289000Y-73991000D02*
X63226000Y-73054000D01*
X63226000Y-73054000D02*
X65973000Y-73054000D01*
X63226000Y-77846000D02*
X62205000Y-76825000D01*
X65873000Y-77846000D02*
X63226000Y-77846000D01*
X65973000Y-73054000D02*
X66376000Y-73134000D01*
X66376000Y-73134000D02*
X66718000Y-73363000D01*
X66435000Y-77951000D02*
X65873000Y-77846000D01*
X66718000Y-73363000D02*
X67251000Y-73896000D01*
X66914000Y-78250000D02*
X66435000Y-77951000D01*
X67251000Y-73896000D02*
X67251000Y-74118000D01*
X67251000Y-74118000D02*
X67338000Y-74556000D01*
X67252000Y-78703000D02*
X66914000Y-78250000D01*
X67338000Y-74556000D02*
X67582000Y-74923000D01*
X67406000Y-79261000D02*
X67252000Y-78703000D01*
X67488000Y-79559000D02*
X67406000Y-79261000D01*
X67582000Y-74923000D02*
X67949000Y-75167000D01*
X67681000Y-79817000D02*
X67488000Y-79559000D01*
X67949000Y-75167000D02*
X68387000Y-75254000D01*
X67955000Y-79987000D02*
X67681000Y-79817000D01*
X68265000Y-80046000D02*
X67955000Y-79987000D01*
X68387000Y-75254000D02*
X71187000Y-75254000D01*
X71187000Y-75254000D02*
X71514000Y-75319000D01*
X71514000Y-75319000D02*
X71797000Y-75508000D01*
X71797000Y-75508000D02*
X71986000Y-75791000D01*
X71986000Y-75791000D02*
X72071000Y-76218000D01*
X71988000Y-79104000D02*
X72351000Y-79104000D01*
X72351000Y-79104000D02*
X72351000Y-80046000D01*
X72351000Y-80046000D02*
X68265000Y-80046000D01*
X261670255Y-71001082D02*
X262607255Y-70064082D01*
X262607255Y-70064082D02*
X265354255Y-70064082D01*
X262607255Y-74856082D02*
X261586255Y-73835082D01*
X265254255Y-74856082D02*
X262607255Y-74856082D01*
X265354255Y-70064082D02*
X265757255Y-70144082D01*
X265757255Y-70144082D02*
X266099255Y-70373082D01*
X265816255Y-74961082D02*
X265254255Y-74856082D01*
X266099255Y-70373082D02*
X266632255Y-70906082D01*
X266295255Y-75260082D02*
X265816255Y-74961082D01*
X266632255Y-70906082D02*
X266632255Y-71128082D01*
X266632255Y-71128082D02*
X266719255Y-71566082D01*
X266633255Y-75713082D02*
X266295255Y-75260082D01*
X266719255Y-71566082D02*
X266963255Y-71933082D01*
X266787255Y-76271082D02*
X266633255Y-75713082D01*
X266869255Y-76569082D02*
X266787255Y-76271082D01*
X266963255Y-71933082D02*
X267330255Y-72177082D01*
X267062255Y-76827082D02*
X266869255Y-76569082D01*
X267330255Y-72177082D02*
X267768255Y-72264082D01*
X267336255Y-76997082D02*
X267062255Y-76827082D01*
X267646255Y-77056082D02*
X267336255Y-76997082D01*
X267768255Y-72264082D02*
X270568255Y-72264082D01*
X270568255Y-72264082D02*
X270895255Y-72329082D01*
X270895255Y-72329082D02*
X271178255Y-72518082D01*
X271178255Y-72518082D02*
X271367255Y-72801082D01*
X271367255Y-72801082D02*
X271452255Y-73228082D01*
X271369255Y-76114082D02*
X271732255Y-76114082D01*
X271732255Y-76114082D02*
X271732255Y-77056082D01*
X271732255Y-77056082D02*
X267646255Y-77056082D01*
X124504000Y-123971000D02*
X125441000Y-123034000D01*
X125441000Y-123034000D02*
X128188000Y-123034000D01*
X125441000Y-127826000D02*
X124420000Y-126805000D01*
X128088000Y-127826000D02*
X125441000Y-127826000D01*
X128188000Y-123034000D02*
X128591000Y-123114000D01*
X128591000Y-123114000D02*
X128933000Y-123343000D01*
X128650000Y-127931000D02*
X128088000Y-127826000D01*
X128933000Y-123343000D02*
X129466000Y-123876000D01*
X129129000Y-128230000D02*
X128650000Y-127931000D01*
X129466000Y-123876000D02*
X129466000Y-124098000D01*
X129466000Y-124098000D02*
X129553000Y-124536000D01*
X129467000Y-128683000D02*
X129129000Y-128230000D01*
X129553000Y-124536000D02*
X129797000Y-124903000D01*
X129621000Y-129241000D02*
X129467000Y-128683000D01*
X129703000Y-129539000D02*
X129621000Y-129241000D01*
X129797000Y-124903000D02*
X130164000Y-125147000D01*
X129896000Y-129797000D02*
X129703000Y-129539000D01*
X130164000Y-125147000D02*
X130602000Y-125234000D01*
X130170000Y-129967000D02*
X129896000Y-129797000D01*
X130480000Y-130026000D02*
X130170000Y-129967000D01*
X130602000Y-125234000D02*
X133402000Y-125234000D01*
X133402000Y-125234000D02*
X133729000Y-125299000D01*
X133729000Y-125299000D02*
X134012000Y-125488000D01*
X134012000Y-125488000D02*
X134201000Y-125771000D01*
X134201000Y-125771000D02*
X134286000Y-126198000D01*
X134203000Y-129084000D02*
X134566000Y-129084000D01*
X134566000Y-129084000D02*
X134566000Y-130026000D01*
X134566000Y-130026000D02*
X130480000Y-130026000D01*
X199664000Y-123971000D02*
X200601000Y-123034000D01*
X200601000Y-123034000D02*
X203348000Y-123034000D01*
X200601000Y-127826000D02*
X199580000Y-126805000D01*
X203248000Y-127826000D02*
X200601000Y-127826000D01*
X203348000Y-123034000D02*
X203751000Y-123114000D01*
X203751000Y-123114000D02*
X204093000Y-123343000D01*
X203810000Y-127931000D02*
X203248000Y-127826000D01*
X204093000Y-123343000D02*
X204626000Y-123876000D01*
X204289000Y-128230000D02*
X203810000Y-127931000D01*
X204626000Y-123876000D02*
X204626000Y-124098000D01*
X204626000Y-124098000D02*
X204713000Y-124536000D01*
X204627000Y-128683000D02*
X204289000Y-128230000D01*
X204713000Y-124536000D02*
X204957000Y-124903000D01*
X204781000Y-129241000D02*
X204627000Y-128683000D01*
X204863000Y-129539000D02*
X204781000Y-129241000D01*
X204957000Y-124903000D02*
X205324000Y-125147000D01*
X205056000Y-129797000D02*
X204863000Y-129539000D01*
X205324000Y-125147000D02*
X205762000Y-125234000D01*
X205330000Y-129967000D02*
X205056000Y-129797000D01*
X205640000Y-130026000D02*
X205330000Y-129967000D01*
X205762000Y-125234000D02*
X208562000Y-125234000D01*
X208562000Y-125234000D02*
X208889000Y-125299000D01*
X208889000Y-125299000D02*
X209172000Y-125488000D01*
X209172000Y-125488000D02*
X209361000Y-125771000D01*
X209361000Y-125771000D02*
X209446000Y-126198000D01*
X209363000Y-129084000D02*
X209726000Y-129084000D01*
X209726000Y-129084000D02*
X209726000Y-130026000D01*
X209726000Y-130026000D02*
X205640000Y-130026000D01*
%LPC*%
D11*
X114900000Y-68050000D03*
D12*
X115400000Y-73200000D03*
D13*
X120400000Y-62150000D03*
D14*
X120400000Y-68050000D03*
D13*
X125400000Y-64250000D03*
D11*
X125900000Y-68050000D03*
D15*
X116900000Y-62050000D03*
X128900000Y-64250000D03*
D11*
X141500000Y-79400000D03*
D12*
X142000000Y-84550000D03*
D13*
X147000000Y-73500000D03*
D14*
X147000000Y-79400000D03*
D13*
X152000000Y-75600000D03*
D11*
X152500000Y-79400000D03*
D15*
X143500000Y-73400000D03*
X155500000Y-75600000D03*
D11*
X159000000Y-132500000D03*
D12*
X159500000Y-137650000D03*
D13*
X164500000Y-126600000D03*
D14*
X164500000Y-132500000D03*
D13*
X169500000Y-128700000D03*
D11*
X170000000Y-132500000D03*
D15*
X161000000Y-126500000D03*
X173000000Y-128700000D03*
D11*
X176440000Y-67990000D03*
D12*
X176940000Y-73140000D03*
D13*
X181940000Y-62090000D03*
D14*
X181940000Y-67990000D03*
D13*
X186940000Y-64190000D03*
D11*
X187440000Y-67990000D03*
D15*
X178440000Y-61990000D03*
X190440000Y-64190000D03*
D11*
X203000000Y-56460000D03*
D12*
X203500000Y-61610000D03*
D13*
X208500000Y-50560000D03*
D14*
X208500000Y-56460000D03*
D13*
X213500000Y-52660000D03*
D11*
X214000000Y-56460000D03*
D15*
X205000000Y-50460000D03*
X217000000Y-52660000D03*
D11*
X231970000Y-56340000D03*
D12*
X232470000Y-61490000D03*
D13*
X237470000Y-50440000D03*
D14*
X237470000Y-56340000D03*
D13*
X242470000Y-52540000D03*
D11*
X242970000Y-56340000D03*
D15*
X233970000Y-50340000D03*
X245970000Y-52540000D03*
D11*
X170830000Y-99030000D03*
D12*
X171330000Y-104180000D03*
D13*
X176330000Y-93130000D03*
D14*
X176330000Y-99030000D03*
D13*
X181330000Y-95230000D03*
D11*
X181830000Y-99030000D03*
D15*
X172830000Y-93030000D03*
X184830000Y-95230000D03*
D11*
X197440000Y-87920000D03*
D12*
X197940000Y-93070000D03*
D13*
X202940000Y-82020000D03*
D14*
X202940000Y-87920000D03*
D13*
X207940000Y-84120000D03*
D11*
X208440000Y-87920000D03*
D15*
X199440000Y-81920000D03*
X211440000Y-84120000D03*
D11*
X226290000Y-87920000D03*
D12*
X226790000Y-93070000D03*
D13*
X231790000Y-82020000D03*
D14*
X231790000Y-87920000D03*
D13*
X236790000Y-84120000D03*
D11*
X237290000Y-87920000D03*
D15*
X228290000Y-81920000D03*
X240290000Y-84120000D03*
D16*
X60000000Y-30000000D03*
X60000000Y-155000000D03*
X280000000Y-155000000D03*
D11*
X85805000Y-67930000D03*
D12*
X86305000Y-73080000D03*
D13*
X91305000Y-62030000D03*
D14*
X91305000Y-67930000D03*
D13*
X96305000Y-64130000D03*
D11*
X96805000Y-67930000D03*
D15*
X87805000Y-61930000D03*
X99805000Y-64130000D03*
D16*
X280000000Y-30000000D03*
D11*
X91637500Y-31500000D03*
D12*
X92137500Y-36650000D03*
D13*
X97137500Y-25600000D03*
D14*
X97137500Y-31500000D03*
D13*
X102137500Y-27700000D03*
D11*
X102637500Y-31500000D03*
D15*
X93637500Y-25500000D03*
X105637500Y-27700000D03*
D11*
X110136500Y-31500000D03*
D12*
X110636500Y-36650000D03*
D13*
X115636500Y-25600000D03*
D14*
X115636500Y-31500000D03*
D13*
X120636500Y-27700000D03*
D11*
X121136500Y-31500000D03*
D15*
X112136500Y-25500000D03*
X124136500Y-27700000D03*
D11*
X74137500Y-31500000D03*
D12*
X74637500Y-36650000D03*
D13*
X79637500Y-25600000D03*
D14*
X79637500Y-31500000D03*
D13*
X84637500Y-27700000D03*
D11*
X85137500Y-31500000D03*
D15*
X76137500Y-25500000D03*
X88137500Y-27700000D03*
D11*
X127637500Y-31500000D03*
D12*
X128137500Y-36650000D03*
D13*
X133137500Y-25600000D03*
D14*
X133137500Y-31500000D03*
D13*
X138137500Y-27700000D03*
D11*
X138637500Y-31500000D03*
D15*
X129637500Y-25500000D03*
X141637500Y-27700000D03*
D11*
X59205000Y-81400000D03*
D12*
X59705000Y-86550000D03*
D13*
X64705000Y-75500000D03*
D14*
X64705000Y-81400000D03*
D13*
X69705000Y-77600000D03*
D11*
X70205000Y-81400000D03*
D15*
X61205000Y-75400000D03*
X73205000Y-77600000D03*
D11*
X258586255Y-78410082D03*
D12*
X259086255Y-83560082D03*
D13*
X264086255Y-72510082D03*
D14*
X264086255Y-78410082D03*
D13*
X269086255Y-74610082D03*
D11*
X269586255Y-78410082D03*
D15*
X260586255Y-72410082D03*
X272586255Y-74610082D03*
D11*
X121420000Y-131380000D03*
D12*
X121920000Y-136530000D03*
D13*
X126920000Y-125480000D03*
D14*
X126920000Y-131380000D03*
D13*
X131920000Y-127580000D03*
D11*
X132420000Y-131380000D03*
D15*
X123420000Y-125380000D03*
X135420000Y-127580000D03*
D16*
X167000000Y-81000000D03*
X190000000Y-30000000D03*
X170000000Y-155000000D03*
D11*
X196580000Y-131380000D03*
D12*
X197080000Y-136530000D03*
D13*
X202080000Y-125480000D03*
D14*
X202080000Y-131380000D03*
D13*
X207080000Y-127580000D03*
D11*
X207580000Y-131380000D03*
D15*
X198580000Y-125380000D03*
X210580000Y-127580000D03*
%LPD*%
M02*
