%TF.GenerationSoftware,KiCad,Pcbnew,8.0.1*%
%TF.CreationDate,2024-04-24T00:03:39-04:00*%
%TF.ProjectId,leviathan,6c657669-6174-4686-916e-2e6b69636164,rev?*%
%TF.SameCoordinates,Original*%
%TF.FileFunction,Soldermask,Bot*%
%TF.FilePolarity,Negative*%
%FSLAX46Y46*%
G04 Gerber Fmt 4.6, Leading zero omitted, Abs format (unit mm)*
G04 Created by KiCad (PCBNEW 8.0.1) date 2024-04-24 00:03:39*
%MOMM*%
%LPD*%
G01*
G04 APERTURE LIST*
G04 Aperture macros list*
%AMRoundRect*
0 Rectangle with rounded corners*
0 $1 Rounding radius*
0 $2 $3 $4 $5 $6 $7 $8 $9 X,Y pos of 4 corners*
0 Add a 4 corners polygon primitive as box body*
4,1,4,$2,$3,$4,$5,$6,$7,$8,$9,$2,$3,0*
0 Add four circle primitives for the rounded corners*
1,1,$1+$1,$2,$3*
1,1,$1+$1,$4,$5*
1,1,$1+$1,$6,$7*
1,1,$1+$1,$8,$9*
0 Add four rect primitives between the rounded corners*
20,1,$1+$1,$2,$3,$4,$5,0*
20,1,$1+$1,$4,$5,$6,$7,0*
20,1,$1+$1,$6,$7,$8,$9,0*
20,1,$1+$1,$8,$9,$2,$3,0*%
G04 Aperture macros list end*
%ADD10C,1.900000*%
%ADD11C,1.600000*%
%ADD12C,3.050000*%
%ADD13C,5.050000*%
%ADD14RoundRect,0.250000X-1.025000X-1.000000X1.025000X-1.000000X1.025000X1.000000X-1.025000X1.000000X0*%
%ADD15C,6.400000*%
G04 APERTURE END LIST*
D10*
X114900000Y-68050000D03*
D11*
X115400000Y-73200000D03*
D12*
X120400000Y-62150000D03*
D13*
X120400000Y-68050000D03*
D12*
X125400000Y-64250000D03*
D10*
X125900000Y-68050000D03*
D14*
X116900000Y-62050000D03*
X128900000Y-64250000D03*
D10*
X141500000Y-79400000D03*
D11*
X142000000Y-84550000D03*
D12*
X147000000Y-73500000D03*
D13*
X147000000Y-79400000D03*
D12*
X152000000Y-75600000D03*
D10*
X152500000Y-79400000D03*
D14*
X143500000Y-73400000D03*
X155500000Y-75600000D03*
D10*
X159000000Y-132500000D03*
D11*
X159500000Y-137650000D03*
D12*
X164500000Y-126600000D03*
D13*
X164500000Y-132500000D03*
D12*
X169500000Y-128700000D03*
D10*
X170000000Y-132500000D03*
D14*
X161000000Y-126500000D03*
X173000000Y-128700000D03*
D10*
X176440000Y-67990000D03*
D11*
X176940000Y-73140000D03*
D12*
X181940000Y-62090000D03*
D13*
X181940000Y-67990000D03*
D12*
X186940000Y-64190000D03*
D10*
X187440000Y-67990000D03*
D14*
X178440000Y-61990000D03*
X190440000Y-64190000D03*
D10*
X203000000Y-56460000D03*
D11*
X203500000Y-61610000D03*
D12*
X208500000Y-50560000D03*
D13*
X208500000Y-56460000D03*
D12*
X213500000Y-52660000D03*
D10*
X214000000Y-56460000D03*
D14*
X205000000Y-50460000D03*
X217000000Y-52660000D03*
D10*
X231970000Y-56340000D03*
D11*
X232470000Y-61490000D03*
D12*
X237470000Y-50440000D03*
D13*
X237470000Y-56340000D03*
D12*
X242470000Y-52540000D03*
D10*
X242970000Y-56340000D03*
D14*
X233970000Y-50340000D03*
X245970000Y-52540000D03*
D10*
X170830000Y-99030000D03*
D11*
X171330000Y-104180000D03*
D12*
X176330000Y-93130000D03*
D13*
X176330000Y-99030000D03*
D12*
X181330000Y-95230000D03*
D10*
X181830000Y-99030000D03*
D14*
X172830000Y-93030000D03*
X184830000Y-95230000D03*
D10*
X197440000Y-87920000D03*
D11*
X197940000Y-93070000D03*
D12*
X202940000Y-82020000D03*
D13*
X202940000Y-87920000D03*
D12*
X207940000Y-84120000D03*
D10*
X208440000Y-87920000D03*
D14*
X199440000Y-81920000D03*
X211440000Y-84120000D03*
D10*
X226290000Y-87920000D03*
D11*
X226790000Y-93070000D03*
D12*
X231790000Y-82020000D03*
D13*
X231790000Y-87920000D03*
D12*
X236790000Y-84120000D03*
D10*
X237290000Y-87920000D03*
D14*
X228290000Y-81920000D03*
X240290000Y-84120000D03*
D15*
X60000000Y-30000000D03*
X60000000Y-155000000D03*
X280000000Y-155000000D03*
D10*
X85805000Y-67930000D03*
D11*
X86305000Y-73080000D03*
D12*
X91305000Y-62030000D03*
D13*
X91305000Y-67930000D03*
D12*
X96305000Y-64130000D03*
D10*
X96805000Y-67930000D03*
D14*
X87805000Y-61930000D03*
X99805000Y-64130000D03*
D15*
X280000000Y-30000000D03*
D10*
X91637500Y-31500000D03*
D11*
X92137500Y-36650000D03*
D12*
X97137500Y-25600000D03*
D13*
X97137500Y-31500000D03*
D12*
X102137500Y-27700000D03*
D10*
X102637500Y-31500000D03*
D14*
X93637500Y-25500000D03*
X105637500Y-27700000D03*
D10*
X110136500Y-31500000D03*
D11*
X110636500Y-36650000D03*
D12*
X115636500Y-25600000D03*
D13*
X115636500Y-31500000D03*
D12*
X120636500Y-27700000D03*
D10*
X121136500Y-31500000D03*
D14*
X112136500Y-25500000D03*
X124136500Y-27700000D03*
D10*
X74137500Y-31500000D03*
D11*
X74637500Y-36650000D03*
D12*
X79637500Y-25600000D03*
D13*
X79637500Y-31500000D03*
D12*
X84637500Y-27700000D03*
D10*
X85137500Y-31500000D03*
D14*
X76137500Y-25500000D03*
X88137500Y-27700000D03*
D10*
X127637500Y-31500000D03*
D11*
X128137500Y-36650000D03*
D12*
X133137500Y-25600000D03*
D13*
X133137500Y-31500000D03*
D12*
X138137500Y-27700000D03*
D10*
X138637500Y-31500000D03*
D14*
X129637500Y-25500000D03*
X141637500Y-27700000D03*
D10*
X59205000Y-81400000D03*
D11*
X59705000Y-86550000D03*
D12*
X64705000Y-75500000D03*
D13*
X64705000Y-81400000D03*
D12*
X69705000Y-77600000D03*
D10*
X70205000Y-81400000D03*
D14*
X61205000Y-75400000D03*
X73205000Y-77600000D03*
D10*
X258586255Y-78410082D03*
D11*
X259086255Y-83560082D03*
D12*
X264086255Y-72510082D03*
D13*
X264086255Y-78410082D03*
D12*
X269086255Y-74610082D03*
D10*
X269586255Y-78410082D03*
D14*
X260586255Y-72410082D03*
X272586255Y-74610082D03*
D10*
X121420000Y-131380000D03*
D11*
X121920000Y-136530000D03*
D12*
X126920000Y-125480000D03*
D13*
X126920000Y-131380000D03*
D12*
X131920000Y-127580000D03*
D10*
X132420000Y-131380000D03*
D14*
X123420000Y-125380000D03*
X135420000Y-127580000D03*
D15*
X167000000Y-81000000D03*
X190000000Y-30000000D03*
X170000000Y-155000000D03*
D10*
X196580000Y-131380000D03*
D11*
X197080000Y-136530000D03*
D12*
X202080000Y-125480000D03*
D13*
X202080000Y-131380000D03*
D12*
X207080000Y-127580000D03*
D10*
X207580000Y-131380000D03*
D14*
X198580000Y-125380000D03*
X210580000Y-127580000D03*
M02*
