%TF.GenerationSoftware,KiCad,Pcbnew,8.0.1*%
%TF.CreationDate,2024-04-24T00:07:42-04:00*%
%TF.ProjectId,leviathan,6c657669-6174-4686-916e-2e6b69636164,rev?*%
%TF.SameCoordinates,Original*%
%TF.FileFunction,Drillmap*%
%TF.FilePolarity,Positive*%
%FSLAX45Y45*%
G04 Gerber Fmt 4.5, Leading zero omitted, Abs format (unit mm)*
G04 Created by KiCad (PCBNEW 8.0.1) date 2024-04-24 00:07:42*
%MOMM*%
%LPD*%
G01*
G04 APERTURE LIST*
%ADD10C,0.050000*%
%ADD11C,0.200000*%
%ADD12C,0.160000*%
%ADD13C,0.190000*%
%ADD14C,0.305000*%
%ADD15C,0.505000*%
%ADD16C,0.640000*%
G04 APERTURE END LIST*
D10*
X16900000Y-2000000D02*
X28500000Y-2000000D01*
X15500000Y-2000000D02*
X15500000Y-4150000D01*
X28500000Y-2000000D02*
G75*
G02*
X29000000Y-2500000I0J-500000D01*
G01*
X16900000Y-4150000D02*
X16900000Y-2000000D01*
X5000000Y-2500000D02*
X5000000Y-16000000D01*
X5500000Y-16500000D02*
G75*
G02*
X5000000Y-16000000I0J500000D01*
G01*
X5000000Y-2500000D02*
G75*
G02*
X5500000Y-2000000I500000J0D01*
G01*
X5500000Y-2000000D02*
X15500000Y-2000000D01*
X29000000Y-16000000D02*
G75*
G02*
X28500000Y-16500000I-500000J0D01*
G01*
X29000000Y-2500000D02*
X29000000Y-16000000D01*
X5500000Y-16500000D02*
X28500000Y-16500000D01*
X15500000Y-4150000D02*
X16900000Y-4150000D01*
D11*
D12*
X5890500Y-8575000D02*
X6050500Y-8735000D01*
X6050500Y-8575000D02*
X5890500Y-8735000D01*
X7383750Y-3585000D02*
X7543750Y-3745000D01*
X7543750Y-3585000D02*
X7383750Y-3745000D01*
X8550500Y-7228000D02*
X8710500Y-7388000D01*
X8710500Y-7228000D02*
X8550500Y-7388000D01*
X9133750Y-3585000D02*
X9293750Y-3745000D01*
X9293750Y-3585000D02*
X9133750Y-3745000D01*
X10983650Y-3585000D02*
X11143650Y-3745000D01*
X11143650Y-3585000D02*
X10983650Y-3745000D01*
X11460000Y-7240000D02*
X11620000Y-7400000D01*
X11620000Y-7240000D02*
X11460000Y-7400000D01*
X12112000Y-13573000D02*
X12272000Y-13733000D01*
X12272000Y-13573000D02*
X12112000Y-13733000D01*
X12733750Y-3585000D02*
X12893750Y-3745000D01*
X12893750Y-3585000D02*
X12733750Y-3745000D01*
X14120000Y-8375000D02*
X14280000Y-8535000D01*
X14280000Y-8375000D02*
X14120000Y-8535000D01*
X15870000Y-13685000D02*
X16030000Y-13845000D01*
X16030000Y-13685000D02*
X15870000Y-13845000D01*
X17053000Y-10338000D02*
X17213000Y-10498000D01*
X17213000Y-10338000D02*
X17053000Y-10498000D01*
X17614000Y-7234000D02*
X17774000Y-7394000D01*
X17774000Y-7234000D02*
X17614000Y-7394000D01*
X19628000Y-13573000D02*
X19788000Y-13733000D01*
X19788000Y-13573000D02*
X19628000Y-13733000D01*
X19714000Y-9227000D02*
X19874000Y-9387000D01*
X19874000Y-9227000D02*
X19714000Y-9387000D01*
X20270000Y-6081000D02*
X20430000Y-6241000D01*
X20430000Y-6081000D02*
X20270000Y-6241000D01*
X22599000Y-9227000D02*
X22759000Y-9387000D01*
X22759000Y-9227000D02*
X22599000Y-9387000D01*
X23167000Y-6069000D02*
X23327000Y-6229000D01*
X23327000Y-6069000D02*
X23167000Y-6229000D01*
X25828625Y-8276008D02*
X25988625Y-8436008D01*
X25988625Y-8276008D02*
X25828625Y-8436008D01*
D13*
X6015500Y-8140000D02*
G75*
G02*
X5825500Y-8140000I-95000J0D01*
G01*
X5825500Y-8140000D02*
G75*
G02*
X6015500Y-8140000I95000J0D01*
G01*
X7115500Y-8140000D02*
G75*
G02*
X6925500Y-8140000I-95000J0D01*
G01*
X6925500Y-8140000D02*
G75*
G02*
X7115500Y-8140000I95000J0D01*
G01*
X7508750Y-3150000D02*
G75*
G02*
X7318750Y-3150000I-95000J0D01*
G01*
X7318750Y-3150000D02*
G75*
G02*
X7508750Y-3150000I95000J0D01*
G01*
X8608750Y-3150000D02*
G75*
G02*
X8418750Y-3150000I-95000J0D01*
G01*
X8418750Y-3150000D02*
G75*
G02*
X8608750Y-3150000I95000J0D01*
G01*
X8675500Y-6793000D02*
G75*
G02*
X8485500Y-6793000I-95000J0D01*
G01*
X8485500Y-6793000D02*
G75*
G02*
X8675500Y-6793000I95000J0D01*
G01*
X9258750Y-3150000D02*
G75*
G02*
X9068750Y-3150000I-95000J0D01*
G01*
X9068750Y-3150000D02*
G75*
G02*
X9258750Y-3150000I95000J0D01*
G01*
X9775500Y-6793000D02*
G75*
G02*
X9585500Y-6793000I-95000J0D01*
G01*
X9585500Y-6793000D02*
G75*
G02*
X9775500Y-6793000I95000J0D01*
G01*
X10358750Y-3150000D02*
G75*
G02*
X10168750Y-3150000I-95000J0D01*
G01*
X10168750Y-3150000D02*
G75*
G02*
X10358750Y-3150000I95000J0D01*
G01*
X11108650Y-3150000D02*
G75*
G02*
X10918650Y-3150000I-95000J0D01*
G01*
X10918650Y-3150000D02*
G75*
G02*
X11108650Y-3150000I95000J0D01*
G01*
X11585000Y-6805000D02*
G75*
G02*
X11395000Y-6805000I-95000J0D01*
G01*
X11395000Y-6805000D02*
G75*
G02*
X11585000Y-6805000I95000J0D01*
G01*
X12208650Y-3150000D02*
G75*
G02*
X12018650Y-3150000I-95000J0D01*
G01*
X12018650Y-3150000D02*
G75*
G02*
X12208650Y-3150000I95000J0D01*
G01*
X12237000Y-13138000D02*
G75*
G02*
X12047000Y-13138000I-95000J0D01*
G01*
X12047000Y-13138000D02*
G75*
G02*
X12237000Y-13138000I95000J0D01*
G01*
X12685000Y-6805000D02*
G75*
G02*
X12495000Y-6805000I-95000J0D01*
G01*
X12495000Y-6805000D02*
G75*
G02*
X12685000Y-6805000I95000J0D01*
G01*
X12858750Y-3150000D02*
G75*
G02*
X12668750Y-3150000I-95000J0D01*
G01*
X12668750Y-3150000D02*
G75*
G02*
X12858750Y-3150000I95000J0D01*
G01*
X13337000Y-13138000D02*
G75*
G02*
X13147000Y-13138000I-95000J0D01*
G01*
X13147000Y-13138000D02*
G75*
G02*
X13337000Y-13138000I95000J0D01*
G01*
X13958750Y-3150000D02*
G75*
G02*
X13768750Y-3150000I-95000J0D01*
G01*
X13768750Y-3150000D02*
G75*
G02*
X13958750Y-3150000I95000J0D01*
G01*
X14245000Y-7940000D02*
G75*
G02*
X14055000Y-7940000I-95000J0D01*
G01*
X14055000Y-7940000D02*
G75*
G02*
X14245000Y-7940000I95000J0D01*
G01*
X15345000Y-7940000D02*
G75*
G02*
X15155000Y-7940000I-95000J0D01*
G01*
X15155000Y-7940000D02*
G75*
G02*
X15345000Y-7940000I95000J0D01*
G01*
X15995000Y-13250000D02*
G75*
G02*
X15805000Y-13250000I-95000J0D01*
G01*
X15805000Y-13250000D02*
G75*
G02*
X15995000Y-13250000I95000J0D01*
G01*
X17095000Y-13250000D02*
G75*
G02*
X16905000Y-13250000I-95000J0D01*
G01*
X16905000Y-13250000D02*
G75*
G02*
X17095000Y-13250000I95000J0D01*
G01*
X17178000Y-9903000D02*
G75*
G02*
X16988000Y-9903000I-95000J0D01*
G01*
X16988000Y-9903000D02*
G75*
G02*
X17178000Y-9903000I95000J0D01*
G01*
X17739000Y-6799000D02*
G75*
G02*
X17549000Y-6799000I-95000J0D01*
G01*
X17549000Y-6799000D02*
G75*
G02*
X17739000Y-6799000I95000J0D01*
G01*
X18278000Y-9903000D02*
G75*
G02*
X18088000Y-9903000I-95000J0D01*
G01*
X18088000Y-9903000D02*
G75*
G02*
X18278000Y-9903000I95000J0D01*
G01*
X18839000Y-6799000D02*
G75*
G02*
X18649000Y-6799000I-95000J0D01*
G01*
X18649000Y-6799000D02*
G75*
G02*
X18839000Y-6799000I95000J0D01*
G01*
X19753000Y-13138000D02*
G75*
G02*
X19563000Y-13138000I-95000J0D01*
G01*
X19563000Y-13138000D02*
G75*
G02*
X19753000Y-13138000I95000J0D01*
G01*
X19839000Y-8792000D02*
G75*
G02*
X19649000Y-8792000I-95000J0D01*
G01*
X19649000Y-8792000D02*
G75*
G02*
X19839000Y-8792000I95000J0D01*
G01*
X20395000Y-5646000D02*
G75*
G02*
X20205000Y-5646000I-95000J0D01*
G01*
X20205000Y-5646000D02*
G75*
G02*
X20395000Y-5646000I95000J0D01*
G01*
X20853000Y-13138000D02*
G75*
G02*
X20663000Y-13138000I-95000J0D01*
G01*
X20663000Y-13138000D02*
G75*
G02*
X20853000Y-13138000I95000J0D01*
G01*
X20939000Y-8792000D02*
G75*
G02*
X20749000Y-8792000I-95000J0D01*
G01*
X20749000Y-8792000D02*
G75*
G02*
X20939000Y-8792000I95000J0D01*
G01*
X21495000Y-5646000D02*
G75*
G02*
X21305000Y-5646000I-95000J0D01*
G01*
X21305000Y-5646000D02*
G75*
G02*
X21495000Y-5646000I95000J0D01*
G01*
X22724000Y-8792000D02*
G75*
G02*
X22534000Y-8792000I-95000J0D01*
G01*
X22534000Y-8792000D02*
G75*
G02*
X22724000Y-8792000I95000J0D01*
G01*
X23292000Y-5634000D02*
G75*
G02*
X23102000Y-5634000I-95000J0D01*
G01*
X23102000Y-5634000D02*
G75*
G02*
X23292000Y-5634000I95000J0D01*
G01*
X23824000Y-8792000D02*
G75*
G02*
X23634000Y-8792000I-95000J0D01*
G01*
X23634000Y-8792000D02*
G75*
G02*
X23824000Y-8792000I95000J0D01*
G01*
X24392000Y-5634000D02*
G75*
G02*
X24202000Y-5634000I-95000J0D01*
G01*
X24202000Y-5634000D02*
G75*
G02*
X24392000Y-5634000I95000J0D01*
G01*
X25953625Y-7841008D02*
G75*
G02*
X25763625Y-7841008I-95000J0D01*
G01*
X25763625Y-7841008D02*
G75*
G02*
X25953625Y-7841008I95000J0D01*
G01*
X27053625Y-7841008D02*
G75*
G02*
X26863625Y-7841008I-95000J0D01*
G01*
X26863625Y-7841008D02*
G75*
G02*
X27053625Y-7841008I95000J0D01*
G01*
D14*
X6470500Y-7397500D02*
X6470500Y-7702500D01*
X6318000Y-7550000D02*
X6623000Y-7550000D01*
X6970500Y-7607500D02*
X6970500Y-7912500D01*
X6818000Y-7760000D02*
X7123000Y-7760000D01*
X7963750Y-2407500D02*
X7963750Y-2712500D01*
X7811250Y-2560000D02*
X8116250Y-2560000D01*
X8463750Y-2617500D02*
X8463750Y-2922500D01*
X8311250Y-2770000D02*
X8616250Y-2770000D01*
X9130500Y-6050500D02*
X9130500Y-6355500D01*
X8978000Y-6203000D02*
X9283000Y-6203000D01*
X9630500Y-6260500D02*
X9630500Y-6565500D01*
X9478000Y-6413000D02*
X9783000Y-6413000D01*
X9713750Y-2407500D02*
X9713750Y-2712500D01*
X9561250Y-2560000D02*
X9866250Y-2560000D01*
X10213750Y-2617500D02*
X10213750Y-2922500D01*
X10061250Y-2770000D02*
X10366250Y-2770000D01*
X11563650Y-2407500D02*
X11563650Y-2712500D01*
X11411150Y-2560000D02*
X11716150Y-2560000D01*
X12040000Y-6062500D02*
X12040000Y-6367500D01*
X11887500Y-6215000D02*
X12192500Y-6215000D01*
X12063650Y-2617500D02*
X12063650Y-2922500D01*
X11911150Y-2770000D02*
X12216150Y-2770000D01*
X12540000Y-6272500D02*
X12540000Y-6577500D01*
X12387500Y-6425000D02*
X12692500Y-6425000D01*
X12692000Y-12395500D02*
X12692000Y-12700500D01*
X12539500Y-12548000D02*
X12844500Y-12548000D01*
X13192000Y-12605500D02*
X13192000Y-12910500D01*
X13039500Y-12758000D02*
X13344500Y-12758000D01*
X13313750Y-2407500D02*
X13313750Y-2712500D01*
X13161250Y-2560000D02*
X13466250Y-2560000D01*
X13813750Y-2617500D02*
X13813750Y-2922500D01*
X13661250Y-2770000D02*
X13966250Y-2770000D01*
X14700000Y-7197500D02*
X14700000Y-7502500D01*
X14547500Y-7350000D02*
X14852500Y-7350000D01*
X15200000Y-7407500D02*
X15200000Y-7712500D01*
X15047500Y-7560000D02*
X15352500Y-7560000D01*
X16450000Y-12507500D02*
X16450000Y-12812500D01*
X16297500Y-12660000D02*
X16602500Y-12660000D01*
X16950000Y-12717500D02*
X16950000Y-13022500D01*
X16797500Y-12870000D02*
X17102500Y-12870000D01*
X17633000Y-9160500D02*
X17633000Y-9465500D01*
X17480500Y-9313000D02*
X17785500Y-9313000D01*
X18133000Y-9370500D02*
X18133000Y-9675500D01*
X17980500Y-9523000D02*
X18285500Y-9523000D01*
X18194000Y-6056500D02*
X18194000Y-6361500D01*
X18041500Y-6209000D02*
X18346500Y-6209000D01*
X18694000Y-6266500D02*
X18694000Y-6571500D01*
X18541500Y-6419000D02*
X18846500Y-6419000D01*
X20208000Y-12395500D02*
X20208000Y-12700500D01*
X20055500Y-12548000D02*
X20360500Y-12548000D01*
X20294000Y-8049500D02*
X20294000Y-8354500D01*
X20141500Y-8202000D02*
X20446500Y-8202000D01*
X20708000Y-12605500D02*
X20708000Y-12910500D01*
X20555500Y-12758000D02*
X20860500Y-12758000D01*
X20794000Y-8259500D02*
X20794000Y-8564500D01*
X20641500Y-8412000D02*
X20946500Y-8412000D01*
X20850000Y-4903500D02*
X20850000Y-5208500D01*
X20697500Y-5056000D02*
X21002500Y-5056000D01*
X21350000Y-5113500D02*
X21350000Y-5418500D01*
X21197500Y-5266000D02*
X21502500Y-5266000D01*
X23179000Y-8049500D02*
X23179000Y-8354500D01*
X23026500Y-8202000D02*
X23331500Y-8202000D01*
X23679000Y-8259500D02*
X23679000Y-8564500D01*
X23526500Y-8412000D02*
X23831500Y-8412000D01*
X23747000Y-4891500D02*
X23747000Y-5196500D01*
X23594500Y-5044000D02*
X23899500Y-5044000D01*
X24247000Y-5101500D02*
X24247000Y-5406500D01*
X24094500Y-5254000D02*
X24399500Y-5254000D01*
X26408625Y-7098508D02*
X26408625Y-7403508D01*
X26256125Y-7251008D02*
X26561125Y-7251008D01*
X26908625Y-7308508D02*
X26908625Y-7613508D01*
X26756125Y-7461008D02*
X27061125Y-7461008D01*
D15*
X6649046Y-8318546D02*
X6649046Y-7961454D01*
X6291954Y-7961454D01*
X6291954Y-8318546D01*
X6649046Y-8318546D01*
X8142296Y-3328546D02*
X8142296Y-2971454D01*
X7785204Y-2971454D01*
X7785204Y-3328546D01*
X8142296Y-3328546D01*
X9309046Y-6971546D02*
X9309046Y-6614454D01*
X8951954Y-6614454D01*
X8951954Y-6971546D01*
X9309046Y-6971546D01*
X9892296Y-3328546D02*
X9892296Y-2971454D01*
X9535204Y-2971454D01*
X9535204Y-3328546D01*
X9892296Y-3328546D01*
X11742196Y-3328546D02*
X11742196Y-2971454D01*
X11385104Y-2971454D01*
X11385104Y-3328546D01*
X11742196Y-3328546D01*
X12218546Y-6983546D02*
X12218546Y-6626454D01*
X11861454Y-6626454D01*
X11861454Y-6983546D01*
X12218546Y-6983546D01*
X12870546Y-13316546D02*
X12870546Y-12959454D01*
X12513454Y-12959454D01*
X12513454Y-13316546D01*
X12870546Y-13316546D01*
X13492296Y-3328546D02*
X13492296Y-2971454D01*
X13135204Y-2971454D01*
X13135204Y-3328546D01*
X13492296Y-3328546D01*
X14878546Y-8118546D02*
X14878546Y-7761454D01*
X14521454Y-7761454D01*
X14521454Y-8118546D01*
X14878546Y-8118546D01*
X16628546Y-13428546D02*
X16628546Y-13071454D01*
X16271454Y-13071454D01*
X16271454Y-13428546D01*
X16628546Y-13428546D01*
X17811546Y-10081546D02*
X17811546Y-9724454D01*
X17454454Y-9724454D01*
X17454454Y-10081546D01*
X17811546Y-10081546D01*
X18372546Y-6977546D02*
X18372546Y-6620454D01*
X18015454Y-6620454D01*
X18015454Y-6977546D01*
X18372546Y-6977546D01*
X20386546Y-13316546D02*
X20386546Y-12959454D01*
X20029454Y-12959454D01*
X20029454Y-13316546D01*
X20386546Y-13316546D01*
X20472546Y-8970546D02*
X20472546Y-8613454D01*
X20115454Y-8613454D01*
X20115454Y-8970546D01*
X20472546Y-8970546D01*
X21028546Y-5824546D02*
X21028546Y-5467454D01*
X20671454Y-5467454D01*
X20671454Y-5824546D01*
X21028546Y-5824546D01*
X23357546Y-8970546D02*
X23357546Y-8613454D01*
X23000454Y-8613454D01*
X23000454Y-8970546D01*
X23357546Y-8970546D01*
X23925546Y-5812546D02*
X23925546Y-5455454D01*
X23568454Y-5455454D01*
X23568454Y-5812546D01*
X23925546Y-5812546D01*
X26587172Y-8019554D02*
X26587172Y-7662462D01*
X26230079Y-7662462D01*
X26230079Y-8019554D01*
X26587172Y-8019554D01*
D16*
X6000000Y-3320000D02*
X6320000Y-3000000D01*
X6000000Y-2680000D01*
X5680000Y-3000000D01*
X6000000Y-3320000D01*
X6000000Y-15820000D02*
X6320000Y-15500000D01*
X6000000Y-15180000D01*
X5680000Y-15500000D01*
X6000000Y-15820000D01*
X16700000Y-8420000D02*
X17020000Y-8100000D01*
X16700000Y-7780000D01*
X16380000Y-8100000D01*
X16700000Y-8420000D01*
X17000000Y-15820000D02*
X17320000Y-15500000D01*
X17000000Y-15180000D01*
X16680000Y-15500000D01*
X17000000Y-15820000D01*
X19000000Y-3320000D02*
X19320000Y-3000000D01*
X19000000Y-2680000D01*
X18680000Y-3000000D01*
X19000000Y-3320000D01*
X28000000Y-3320000D02*
X28320000Y-3000000D01*
X28000000Y-2680000D01*
X27680000Y-3000000D01*
X28000000Y-3320000D01*
X28000000Y-15820000D02*
X28320000Y-15500000D01*
X28000000Y-15180000D01*
X27680000Y-15500000D01*
X28000000Y-15820000D01*
D11*
X5258277Y-16813984D02*
X5258277Y-16613984D01*
X5258277Y-16613984D02*
X5305896Y-16613984D01*
X5305896Y-16613984D02*
X5334467Y-16623508D01*
X5334467Y-16623508D02*
X5353515Y-16642555D01*
X5353515Y-16642555D02*
X5363039Y-16661603D01*
X5363039Y-16661603D02*
X5372563Y-16699698D01*
X5372563Y-16699698D02*
X5372563Y-16728269D01*
X5372563Y-16728269D02*
X5363039Y-16766365D01*
X5363039Y-16766365D02*
X5353515Y-16785412D01*
X5353515Y-16785412D02*
X5334467Y-16804460D01*
X5334467Y-16804460D02*
X5305896Y-16813984D01*
X5305896Y-16813984D02*
X5258277Y-16813984D01*
X5458277Y-16813984D02*
X5458277Y-16680650D01*
X5458277Y-16718746D02*
X5467801Y-16699698D01*
X5467801Y-16699698D02*
X5477324Y-16690174D01*
X5477324Y-16690174D02*
X5496372Y-16680650D01*
X5496372Y-16680650D02*
X5515420Y-16680650D01*
X5582086Y-16813984D02*
X5582086Y-16680650D01*
X5582086Y-16613984D02*
X5572563Y-16623508D01*
X5572563Y-16623508D02*
X5582086Y-16633031D01*
X5582086Y-16633031D02*
X5591610Y-16623508D01*
X5591610Y-16623508D02*
X5582086Y-16613984D01*
X5582086Y-16613984D02*
X5582086Y-16633031D01*
X5705896Y-16813984D02*
X5686848Y-16804460D01*
X5686848Y-16804460D02*
X5677324Y-16785412D01*
X5677324Y-16785412D02*
X5677324Y-16613984D01*
X5810658Y-16813984D02*
X5791610Y-16804460D01*
X5791610Y-16804460D02*
X5782086Y-16785412D01*
X5782086Y-16785412D02*
X5782086Y-16613984D01*
X6039229Y-16813984D02*
X6039229Y-16613984D01*
X6039229Y-16613984D02*
X6105896Y-16756841D01*
X6105896Y-16756841D02*
X6172562Y-16613984D01*
X6172562Y-16613984D02*
X6172562Y-16813984D01*
X6353515Y-16813984D02*
X6353515Y-16709222D01*
X6353515Y-16709222D02*
X6343991Y-16690174D01*
X6343991Y-16690174D02*
X6324943Y-16680650D01*
X6324943Y-16680650D02*
X6286848Y-16680650D01*
X6286848Y-16680650D02*
X6267801Y-16690174D01*
X6353515Y-16804460D02*
X6334467Y-16813984D01*
X6334467Y-16813984D02*
X6286848Y-16813984D01*
X6286848Y-16813984D02*
X6267801Y-16804460D01*
X6267801Y-16804460D02*
X6258277Y-16785412D01*
X6258277Y-16785412D02*
X6258277Y-16766365D01*
X6258277Y-16766365D02*
X6267801Y-16747317D01*
X6267801Y-16747317D02*
X6286848Y-16737793D01*
X6286848Y-16737793D02*
X6334467Y-16737793D01*
X6334467Y-16737793D02*
X6353515Y-16728269D01*
X6448753Y-16680650D02*
X6448753Y-16880650D01*
X6448753Y-16690174D02*
X6467801Y-16680650D01*
X6467801Y-16680650D02*
X6505896Y-16680650D01*
X6505896Y-16680650D02*
X6524943Y-16690174D01*
X6524943Y-16690174D02*
X6534467Y-16699698D01*
X6534467Y-16699698D02*
X6543991Y-16718746D01*
X6543991Y-16718746D02*
X6543991Y-16775888D01*
X6543991Y-16775888D02*
X6534467Y-16794936D01*
X6534467Y-16794936D02*
X6524943Y-16804460D01*
X6524943Y-16804460D02*
X6505896Y-16813984D01*
X6505896Y-16813984D02*
X6467801Y-16813984D01*
X6467801Y-16813984D02*
X6448753Y-16804460D01*
X6629705Y-16794936D02*
X6639229Y-16804460D01*
X6639229Y-16804460D02*
X6629705Y-16813984D01*
X6629705Y-16813984D02*
X6620182Y-16804460D01*
X6620182Y-16804460D02*
X6629705Y-16794936D01*
X6629705Y-16794936D02*
X6629705Y-16813984D01*
X6629705Y-16690174D02*
X6639229Y-16699698D01*
X6639229Y-16699698D02*
X6629705Y-16709222D01*
X6629705Y-16709222D02*
X6620182Y-16699698D01*
X6620182Y-16699698D02*
X6629705Y-16690174D01*
X6629705Y-16690174D02*
X6629705Y-16709222D01*
D12*
X4837500Y-17062500D02*
X4997500Y-17222500D01*
X4997500Y-17062500D02*
X4837500Y-17222500D01*
D11*
X5363039Y-17233984D02*
X5248753Y-17233984D01*
X5305896Y-17233984D02*
X5305896Y-17033984D01*
X5305896Y-17033984D02*
X5286848Y-17062555D01*
X5286848Y-17062555D02*
X5267801Y-17081603D01*
X5267801Y-17081603D02*
X5248753Y-17091127D01*
X5448753Y-17214936D02*
X5458277Y-17224460D01*
X5458277Y-17224460D02*
X5448753Y-17233984D01*
X5448753Y-17233984D02*
X5439229Y-17224460D01*
X5439229Y-17224460D02*
X5448753Y-17214936D01*
X5448753Y-17214936D02*
X5448753Y-17233984D01*
X5629705Y-17033984D02*
X5591610Y-17033984D01*
X5591610Y-17033984D02*
X5572563Y-17043508D01*
X5572563Y-17043508D02*
X5563039Y-17053031D01*
X5563039Y-17053031D02*
X5543991Y-17081603D01*
X5543991Y-17081603D02*
X5534467Y-17119698D01*
X5534467Y-17119698D02*
X5534467Y-17195889D01*
X5534467Y-17195889D02*
X5543991Y-17214936D01*
X5543991Y-17214936D02*
X5553515Y-17224460D01*
X5553515Y-17224460D02*
X5572563Y-17233984D01*
X5572563Y-17233984D02*
X5610658Y-17233984D01*
X5610658Y-17233984D02*
X5629705Y-17224460D01*
X5629705Y-17224460D02*
X5639229Y-17214936D01*
X5639229Y-17214936D02*
X5648753Y-17195889D01*
X5648753Y-17195889D02*
X5648753Y-17148270D01*
X5648753Y-17148270D02*
X5639229Y-17129222D01*
X5639229Y-17129222D02*
X5629705Y-17119698D01*
X5629705Y-17119698D02*
X5610658Y-17110174D01*
X5610658Y-17110174D02*
X5572563Y-17110174D01*
X5572563Y-17110174D02*
X5553515Y-17119698D01*
X5553515Y-17119698D02*
X5543991Y-17129222D01*
X5543991Y-17129222D02*
X5534467Y-17148270D01*
X5772562Y-17033984D02*
X5791610Y-17033984D01*
X5791610Y-17033984D02*
X5810658Y-17043508D01*
X5810658Y-17043508D02*
X5820182Y-17053031D01*
X5820182Y-17053031D02*
X5829705Y-17072079D01*
X5829705Y-17072079D02*
X5839229Y-17110174D01*
X5839229Y-17110174D02*
X5839229Y-17157793D01*
X5839229Y-17157793D02*
X5829705Y-17195889D01*
X5829705Y-17195889D02*
X5820182Y-17214936D01*
X5820182Y-17214936D02*
X5810658Y-17224460D01*
X5810658Y-17224460D02*
X5791610Y-17233984D01*
X5791610Y-17233984D02*
X5772562Y-17233984D01*
X5772562Y-17233984D02*
X5753515Y-17224460D01*
X5753515Y-17224460D02*
X5743991Y-17214936D01*
X5743991Y-17214936D02*
X5734467Y-17195889D01*
X5734467Y-17195889D02*
X5724943Y-17157793D01*
X5724943Y-17157793D02*
X5724943Y-17110174D01*
X5724943Y-17110174D02*
X5734467Y-17072079D01*
X5734467Y-17072079D02*
X5743991Y-17053031D01*
X5743991Y-17053031D02*
X5753515Y-17043508D01*
X5753515Y-17043508D02*
X5772562Y-17033984D01*
X5963039Y-17033984D02*
X5982086Y-17033984D01*
X5982086Y-17033984D02*
X6001134Y-17043508D01*
X6001134Y-17043508D02*
X6010658Y-17053031D01*
X6010658Y-17053031D02*
X6020182Y-17072079D01*
X6020182Y-17072079D02*
X6029705Y-17110174D01*
X6029705Y-17110174D02*
X6029705Y-17157793D01*
X6029705Y-17157793D02*
X6020182Y-17195889D01*
X6020182Y-17195889D02*
X6010658Y-17214936D01*
X6010658Y-17214936D02*
X6001134Y-17224460D01*
X6001134Y-17224460D02*
X5982086Y-17233984D01*
X5982086Y-17233984D02*
X5963039Y-17233984D01*
X5963039Y-17233984D02*
X5943991Y-17224460D01*
X5943991Y-17224460D02*
X5934467Y-17214936D01*
X5934467Y-17214936D02*
X5924943Y-17195889D01*
X5924943Y-17195889D02*
X5915420Y-17157793D01*
X5915420Y-17157793D02*
X5915420Y-17110174D01*
X5915420Y-17110174D02*
X5924943Y-17072079D01*
X5924943Y-17072079D02*
X5934467Y-17053031D01*
X5934467Y-17053031D02*
X5943991Y-17043508D01*
X5943991Y-17043508D02*
X5963039Y-17033984D01*
X6115420Y-17233984D02*
X6115420Y-17100650D01*
X6115420Y-17119698D02*
X6124943Y-17110174D01*
X6124943Y-17110174D02*
X6143991Y-17100650D01*
X6143991Y-17100650D02*
X6172563Y-17100650D01*
X6172563Y-17100650D02*
X6191610Y-17110174D01*
X6191610Y-17110174D02*
X6201134Y-17129222D01*
X6201134Y-17129222D02*
X6201134Y-17233984D01*
X6201134Y-17129222D02*
X6210658Y-17110174D01*
X6210658Y-17110174D02*
X6229705Y-17100650D01*
X6229705Y-17100650D02*
X6258277Y-17100650D01*
X6258277Y-17100650D02*
X6277324Y-17110174D01*
X6277324Y-17110174D02*
X6286848Y-17129222D01*
X6286848Y-17129222D02*
X6286848Y-17233984D01*
X6382086Y-17233984D02*
X6382086Y-17100650D01*
X6382086Y-17119698D02*
X6391610Y-17110174D01*
X6391610Y-17110174D02*
X6410658Y-17100650D01*
X6410658Y-17100650D02*
X6439229Y-17100650D01*
X6439229Y-17100650D02*
X6458277Y-17110174D01*
X6458277Y-17110174D02*
X6467801Y-17129222D01*
X6467801Y-17129222D02*
X6467801Y-17233984D01*
X6467801Y-17129222D02*
X6477324Y-17110174D01*
X6477324Y-17110174D02*
X6496372Y-17100650D01*
X6496372Y-17100650D02*
X6524943Y-17100650D01*
X6524943Y-17100650D02*
X6543991Y-17110174D01*
X6543991Y-17110174D02*
X6553515Y-17129222D01*
X6553515Y-17129222D02*
X6553515Y-17233984D01*
X6943991Y-17024460D02*
X6772563Y-17281603D01*
X7201134Y-17033984D02*
X7220182Y-17033984D01*
X7220182Y-17033984D02*
X7239229Y-17043508D01*
X7239229Y-17043508D02*
X7248753Y-17053031D01*
X7248753Y-17053031D02*
X7258277Y-17072079D01*
X7258277Y-17072079D02*
X7267801Y-17110174D01*
X7267801Y-17110174D02*
X7267801Y-17157793D01*
X7267801Y-17157793D02*
X7258277Y-17195889D01*
X7258277Y-17195889D02*
X7248753Y-17214936D01*
X7248753Y-17214936D02*
X7239229Y-17224460D01*
X7239229Y-17224460D02*
X7220182Y-17233984D01*
X7220182Y-17233984D02*
X7201134Y-17233984D01*
X7201134Y-17233984D02*
X7182086Y-17224460D01*
X7182086Y-17224460D02*
X7172563Y-17214936D01*
X7172563Y-17214936D02*
X7163039Y-17195889D01*
X7163039Y-17195889D02*
X7153515Y-17157793D01*
X7153515Y-17157793D02*
X7153515Y-17110174D01*
X7153515Y-17110174D02*
X7163039Y-17072079D01*
X7163039Y-17072079D02*
X7172563Y-17053031D01*
X7172563Y-17053031D02*
X7182086Y-17043508D01*
X7182086Y-17043508D02*
X7201134Y-17033984D01*
X7353515Y-17214936D02*
X7363039Y-17224460D01*
X7363039Y-17224460D02*
X7353515Y-17233984D01*
X7353515Y-17233984D02*
X7343991Y-17224460D01*
X7343991Y-17224460D02*
X7353515Y-17214936D01*
X7353515Y-17214936D02*
X7353515Y-17233984D01*
X7486848Y-17033984D02*
X7505896Y-17033984D01*
X7505896Y-17033984D02*
X7524944Y-17043508D01*
X7524944Y-17043508D02*
X7534467Y-17053031D01*
X7534467Y-17053031D02*
X7543991Y-17072079D01*
X7543991Y-17072079D02*
X7553515Y-17110174D01*
X7553515Y-17110174D02*
X7553515Y-17157793D01*
X7553515Y-17157793D02*
X7543991Y-17195889D01*
X7543991Y-17195889D02*
X7534467Y-17214936D01*
X7534467Y-17214936D02*
X7524944Y-17224460D01*
X7524944Y-17224460D02*
X7505896Y-17233984D01*
X7505896Y-17233984D02*
X7486848Y-17233984D01*
X7486848Y-17233984D02*
X7467801Y-17224460D01*
X7467801Y-17224460D02*
X7458277Y-17214936D01*
X7458277Y-17214936D02*
X7448753Y-17195889D01*
X7448753Y-17195889D02*
X7439229Y-17157793D01*
X7439229Y-17157793D02*
X7439229Y-17110174D01*
X7439229Y-17110174D02*
X7448753Y-17072079D01*
X7448753Y-17072079D02*
X7458277Y-17053031D01*
X7458277Y-17053031D02*
X7467801Y-17043508D01*
X7467801Y-17043508D02*
X7486848Y-17033984D01*
X7724944Y-17033984D02*
X7686848Y-17033984D01*
X7686848Y-17033984D02*
X7667801Y-17043508D01*
X7667801Y-17043508D02*
X7658277Y-17053031D01*
X7658277Y-17053031D02*
X7639229Y-17081603D01*
X7639229Y-17081603D02*
X7629706Y-17119698D01*
X7629706Y-17119698D02*
X7629706Y-17195889D01*
X7629706Y-17195889D02*
X7639229Y-17214936D01*
X7639229Y-17214936D02*
X7648753Y-17224460D01*
X7648753Y-17224460D02*
X7667801Y-17233984D01*
X7667801Y-17233984D02*
X7705896Y-17233984D01*
X7705896Y-17233984D02*
X7724944Y-17224460D01*
X7724944Y-17224460D02*
X7734467Y-17214936D01*
X7734467Y-17214936D02*
X7743991Y-17195889D01*
X7743991Y-17195889D02*
X7743991Y-17148270D01*
X7743991Y-17148270D02*
X7734467Y-17129222D01*
X7734467Y-17129222D02*
X7724944Y-17119698D01*
X7724944Y-17119698D02*
X7705896Y-17110174D01*
X7705896Y-17110174D02*
X7667801Y-17110174D01*
X7667801Y-17110174D02*
X7648753Y-17119698D01*
X7648753Y-17119698D02*
X7639229Y-17129222D01*
X7639229Y-17129222D02*
X7629706Y-17148270D01*
X7810658Y-17033984D02*
X7934467Y-17033984D01*
X7934467Y-17033984D02*
X7867801Y-17110174D01*
X7867801Y-17110174D02*
X7896372Y-17110174D01*
X7896372Y-17110174D02*
X7915420Y-17119698D01*
X7915420Y-17119698D02*
X7924944Y-17129222D01*
X7924944Y-17129222D02*
X7934467Y-17148270D01*
X7934467Y-17148270D02*
X7934467Y-17195889D01*
X7934467Y-17195889D02*
X7924944Y-17214936D01*
X7924944Y-17214936D02*
X7915420Y-17224460D01*
X7915420Y-17224460D02*
X7896372Y-17233984D01*
X7896372Y-17233984D02*
X7839229Y-17233984D01*
X7839229Y-17233984D02*
X7820182Y-17224460D01*
X7820182Y-17224460D02*
X7810658Y-17214936D01*
X8058277Y-17033984D02*
X8077325Y-17033984D01*
X8077325Y-17033984D02*
X8096372Y-17043508D01*
X8096372Y-17043508D02*
X8105896Y-17053031D01*
X8105896Y-17053031D02*
X8115420Y-17072079D01*
X8115420Y-17072079D02*
X8124944Y-17110174D01*
X8124944Y-17110174D02*
X8124944Y-17157793D01*
X8124944Y-17157793D02*
X8115420Y-17195889D01*
X8115420Y-17195889D02*
X8105896Y-17214936D01*
X8105896Y-17214936D02*
X8096372Y-17224460D01*
X8096372Y-17224460D02*
X8077325Y-17233984D01*
X8077325Y-17233984D02*
X8058277Y-17233984D01*
X8058277Y-17233984D02*
X8039229Y-17224460D01*
X8039229Y-17224460D02*
X8029706Y-17214936D01*
X8029706Y-17214936D02*
X8020182Y-17195889D01*
X8020182Y-17195889D02*
X8010658Y-17157793D01*
X8010658Y-17157793D02*
X8010658Y-17110174D01*
X8010658Y-17110174D02*
X8020182Y-17072079D01*
X8020182Y-17072079D02*
X8029706Y-17053031D01*
X8029706Y-17053031D02*
X8039229Y-17043508D01*
X8039229Y-17043508D02*
X8058277Y-17033984D01*
X8201134Y-17033984D02*
X8201134Y-17072079D01*
X8277325Y-17033984D02*
X8277325Y-17072079D01*
X8572563Y-17310174D02*
X8563039Y-17300650D01*
X8563039Y-17300650D02*
X8543991Y-17272079D01*
X8543991Y-17272079D02*
X8534468Y-17253031D01*
X8534468Y-17253031D02*
X8524944Y-17224460D01*
X8524944Y-17224460D02*
X8515420Y-17176841D01*
X8515420Y-17176841D02*
X8515420Y-17138746D01*
X8515420Y-17138746D02*
X8524944Y-17091127D01*
X8524944Y-17091127D02*
X8534468Y-17062555D01*
X8534468Y-17062555D02*
X8543991Y-17043508D01*
X8543991Y-17043508D02*
X8563039Y-17014936D01*
X8563039Y-17014936D02*
X8572563Y-17005412D01*
X8753515Y-17233984D02*
X8639230Y-17233984D01*
X8696372Y-17233984D02*
X8696372Y-17033984D01*
X8696372Y-17033984D02*
X8677325Y-17062555D01*
X8677325Y-17062555D02*
X8658277Y-17081603D01*
X8658277Y-17081603D02*
X8639230Y-17091127D01*
X8867801Y-17119698D02*
X8848753Y-17110174D01*
X8848753Y-17110174D02*
X8839230Y-17100650D01*
X8839230Y-17100650D02*
X8829706Y-17081603D01*
X8829706Y-17081603D02*
X8829706Y-17072079D01*
X8829706Y-17072079D02*
X8839230Y-17053031D01*
X8839230Y-17053031D02*
X8848753Y-17043508D01*
X8848753Y-17043508D02*
X8867801Y-17033984D01*
X8867801Y-17033984D02*
X8905896Y-17033984D01*
X8905896Y-17033984D02*
X8924944Y-17043508D01*
X8924944Y-17043508D02*
X8934468Y-17053031D01*
X8934468Y-17053031D02*
X8943991Y-17072079D01*
X8943991Y-17072079D02*
X8943991Y-17081603D01*
X8943991Y-17081603D02*
X8934468Y-17100650D01*
X8934468Y-17100650D02*
X8924944Y-17110174D01*
X8924944Y-17110174D02*
X8905896Y-17119698D01*
X8905896Y-17119698D02*
X8867801Y-17119698D01*
X8867801Y-17119698D02*
X8848753Y-17129222D01*
X8848753Y-17129222D02*
X8839230Y-17138746D01*
X8839230Y-17138746D02*
X8829706Y-17157793D01*
X8829706Y-17157793D02*
X8829706Y-17195889D01*
X8829706Y-17195889D02*
X8839230Y-17214936D01*
X8839230Y-17214936D02*
X8848753Y-17224460D01*
X8848753Y-17224460D02*
X8867801Y-17233984D01*
X8867801Y-17233984D02*
X8905896Y-17233984D01*
X8905896Y-17233984D02*
X8924944Y-17224460D01*
X8924944Y-17224460D02*
X8934468Y-17214936D01*
X8934468Y-17214936D02*
X8943991Y-17195889D01*
X8943991Y-17195889D02*
X8943991Y-17157793D01*
X8943991Y-17157793D02*
X8934468Y-17138746D01*
X8934468Y-17138746D02*
X8924944Y-17129222D01*
X8924944Y-17129222D02*
X8905896Y-17119698D01*
X9182087Y-17233984D02*
X9182087Y-17033984D01*
X9267801Y-17233984D02*
X9267801Y-17129222D01*
X9267801Y-17129222D02*
X9258277Y-17110174D01*
X9258277Y-17110174D02*
X9239230Y-17100650D01*
X9239230Y-17100650D02*
X9210658Y-17100650D01*
X9210658Y-17100650D02*
X9191611Y-17110174D01*
X9191611Y-17110174D02*
X9182087Y-17119698D01*
X9391611Y-17233984D02*
X9372563Y-17224460D01*
X9372563Y-17224460D02*
X9363039Y-17214936D01*
X9363039Y-17214936D02*
X9353515Y-17195889D01*
X9353515Y-17195889D02*
X9353515Y-17138746D01*
X9353515Y-17138746D02*
X9363039Y-17119698D01*
X9363039Y-17119698D02*
X9372563Y-17110174D01*
X9372563Y-17110174D02*
X9391611Y-17100650D01*
X9391611Y-17100650D02*
X9420182Y-17100650D01*
X9420182Y-17100650D02*
X9439230Y-17110174D01*
X9439230Y-17110174D02*
X9448753Y-17119698D01*
X9448753Y-17119698D02*
X9458277Y-17138746D01*
X9458277Y-17138746D02*
X9458277Y-17195889D01*
X9458277Y-17195889D02*
X9448753Y-17214936D01*
X9448753Y-17214936D02*
X9439230Y-17224460D01*
X9439230Y-17224460D02*
X9420182Y-17233984D01*
X9420182Y-17233984D02*
X9391611Y-17233984D01*
X9572563Y-17233984D02*
X9553515Y-17224460D01*
X9553515Y-17224460D02*
X9543992Y-17205412D01*
X9543992Y-17205412D02*
X9543992Y-17033984D01*
X9724944Y-17224460D02*
X9705896Y-17233984D01*
X9705896Y-17233984D02*
X9667801Y-17233984D01*
X9667801Y-17233984D02*
X9648753Y-17224460D01*
X9648753Y-17224460D02*
X9639230Y-17205412D01*
X9639230Y-17205412D02*
X9639230Y-17129222D01*
X9639230Y-17129222D02*
X9648753Y-17110174D01*
X9648753Y-17110174D02*
X9667801Y-17100650D01*
X9667801Y-17100650D02*
X9705896Y-17100650D01*
X9705896Y-17100650D02*
X9724944Y-17110174D01*
X9724944Y-17110174D02*
X9734468Y-17129222D01*
X9734468Y-17129222D02*
X9734468Y-17148270D01*
X9734468Y-17148270D02*
X9639230Y-17167317D01*
X9810658Y-17224460D02*
X9829706Y-17233984D01*
X9829706Y-17233984D02*
X9867801Y-17233984D01*
X9867801Y-17233984D02*
X9886849Y-17224460D01*
X9886849Y-17224460D02*
X9896373Y-17205412D01*
X9896373Y-17205412D02*
X9896373Y-17195889D01*
X9896373Y-17195889D02*
X9886849Y-17176841D01*
X9886849Y-17176841D02*
X9867801Y-17167317D01*
X9867801Y-17167317D02*
X9839230Y-17167317D01*
X9839230Y-17167317D02*
X9820182Y-17157793D01*
X9820182Y-17157793D02*
X9810658Y-17138746D01*
X9810658Y-17138746D02*
X9810658Y-17129222D01*
X9810658Y-17129222D02*
X9820182Y-17110174D01*
X9820182Y-17110174D02*
X9839230Y-17100650D01*
X9839230Y-17100650D02*
X9867801Y-17100650D01*
X9867801Y-17100650D02*
X9886849Y-17110174D01*
X9963039Y-17310174D02*
X9972563Y-17300650D01*
X9972563Y-17300650D02*
X9991611Y-17272079D01*
X9991611Y-17272079D02*
X10001134Y-17253031D01*
X10001134Y-17253031D02*
X10010658Y-17224460D01*
X10010658Y-17224460D02*
X10020182Y-17176841D01*
X10020182Y-17176841D02*
X10020182Y-17138746D01*
X10020182Y-17138746D02*
X10010658Y-17091127D01*
X10010658Y-17091127D02*
X10001134Y-17062555D01*
X10001134Y-17062555D02*
X9991611Y-17043508D01*
X9991611Y-17043508D02*
X9972563Y-17014936D01*
X9972563Y-17014936D02*
X9963039Y-17005412D01*
X10324944Y-17310174D02*
X10315420Y-17300650D01*
X10315420Y-17300650D02*
X10296373Y-17272079D01*
X10296373Y-17272079D02*
X10286849Y-17253031D01*
X10286849Y-17253031D02*
X10277325Y-17224460D01*
X10277325Y-17224460D02*
X10267801Y-17176841D01*
X10267801Y-17176841D02*
X10267801Y-17138746D01*
X10267801Y-17138746D02*
X10277325Y-17091127D01*
X10277325Y-17091127D02*
X10286849Y-17062555D01*
X10286849Y-17062555D02*
X10296373Y-17043508D01*
X10296373Y-17043508D02*
X10315420Y-17014936D01*
X10315420Y-17014936D02*
X10324944Y-17005412D01*
X10401134Y-17100650D02*
X10401134Y-17233984D01*
X10401134Y-17119698D02*
X10410658Y-17110174D01*
X10410658Y-17110174D02*
X10429706Y-17100650D01*
X10429706Y-17100650D02*
X10458277Y-17100650D01*
X10458277Y-17100650D02*
X10477325Y-17110174D01*
X10477325Y-17110174D02*
X10486849Y-17129222D01*
X10486849Y-17129222D02*
X10486849Y-17233984D01*
X10610658Y-17233984D02*
X10591611Y-17224460D01*
X10591611Y-17224460D02*
X10582087Y-17214936D01*
X10582087Y-17214936D02*
X10572563Y-17195889D01*
X10572563Y-17195889D02*
X10572563Y-17138746D01*
X10572563Y-17138746D02*
X10582087Y-17119698D01*
X10582087Y-17119698D02*
X10591611Y-17110174D01*
X10591611Y-17110174D02*
X10610658Y-17100650D01*
X10610658Y-17100650D02*
X10639230Y-17100650D01*
X10639230Y-17100650D02*
X10658277Y-17110174D01*
X10658277Y-17110174D02*
X10667801Y-17119698D01*
X10667801Y-17119698D02*
X10677325Y-17138746D01*
X10677325Y-17138746D02*
X10677325Y-17195889D01*
X10677325Y-17195889D02*
X10667801Y-17214936D01*
X10667801Y-17214936D02*
X10658277Y-17224460D01*
X10658277Y-17224460D02*
X10639230Y-17233984D01*
X10639230Y-17233984D02*
X10610658Y-17233984D01*
X10734468Y-17100650D02*
X10810658Y-17100650D01*
X10763039Y-17033984D02*
X10763039Y-17205412D01*
X10763039Y-17205412D02*
X10772563Y-17224460D01*
X10772563Y-17224460D02*
X10791611Y-17233984D01*
X10791611Y-17233984D02*
X10810658Y-17233984D01*
X11029706Y-17100650D02*
X11029706Y-17300650D01*
X11029706Y-17110174D02*
X11048754Y-17100650D01*
X11048754Y-17100650D02*
X11086849Y-17100650D01*
X11086849Y-17100650D02*
X11105896Y-17110174D01*
X11105896Y-17110174D02*
X11115420Y-17119698D01*
X11115420Y-17119698D02*
X11124944Y-17138746D01*
X11124944Y-17138746D02*
X11124944Y-17195889D01*
X11124944Y-17195889D02*
X11115420Y-17214936D01*
X11115420Y-17214936D02*
X11105896Y-17224460D01*
X11105896Y-17224460D02*
X11086849Y-17233984D01*
X11086849Y-17233984D02*
X11048754Y-17233984D01*
X11048754Y-17233984D02*
X11029706Y-17224460D01*
X11239230Y-17233984D02*
X11220182Y-17224460D01*
X11220182Y-17224460D02*
X11210658Y-17205412D01*
X11210658Y-17205412D02*
X11210658Y-17033984D01*
X11401134Y-17233984D02*
X11401134Y-17129222D01*
X11401134Y-17129222D02*
X11391611Y-17110174D01*
X11391611Y-17110174D02*
X11372563Y-17100650D01*
X11372563Y-17100650D02*
X11334468Y-17100650D01*
X11334468Y-17100650D02*
X11315420Y-17110174D01*
X11401134Y-17224460D02*
X11382087Y-17233984D01*
X11382087Y-17233984D02*
X11334468Y-17233984D01*
X11334468Y-17233984D02*
X11315420Y-17224460D01*
X11315420Y-17224460D02*
X11305896Y-17205412D01*
X11305896Y-17205412D02*
X11305896Y-17186365D01*
X11305896Y-17186365D02*
X11315420Y-17167317D01*
X11315420Y-17167317D02*
X11334468Y-17157793D01*
X11334468Y-17157793D02*
X11382087Y-17157793D01*
X11382087Y-17157793D02*
X11401134Y-17148270D01*
X11467801Y-17100650D02*
X11543992Y-17100650D01*
X11496373Y-17033984D02*
X11496373Y-17205412D01*
X11496373Y-17205412D02*
X11505896Y-17224460D01*
X11505896Y-17224460D02*
X11524944Y-17233984D01*
X11524944Y-17233984D02*
X11543992Y-17233984D01*
X11686849Y-17224460D02*
X11667801Y-17233984D01*
X11667801Y-17233984D02*
X11629706Y-17233984D01*
X11629706Y-17233984D02*
X11610658Y-17224460D01*
X11610658Y-17224460D02*
X11601134Y-17205412D01*
X11601134Y-17205412D02*
X11601134Y-17129222D01*
X11601134Y-17129222D02*
X11610658Y-17110174D01*
X11610658Y-17110174D02*
X11629706Y-17100650D01*
X11629706Y-17100650D02*
X11667801Y-17100650D01*
X11667801Y-17100650D02*
X11686849Y-17110174D01*
X11686849Y-17110174D02*
X11696373Y-17129222D01*
X11696373Y-17129222D02*
X11696373Y-17148270D01*
X11696373Y-17148270D02*
X11601134Y-17167317D01*
X11867801Y-17233984D02*
X11867801Y-17033984D01*
X11867801Y-17224460D02*
X11848754Y-17233984D01*
X11848754Y-17233984D02*
X11810658Y-17233984D01*
X11810658Y-17233984D02*
X11791611Y-17224460D01*
X11791611Y-17224460D02*
X11782087Y-17214936D01*
X11782087Y-17214936D02*
X11772563Y-17195889D01*
X11772563Y-17195889D02*
X11772563Y-17138746D01*
X11772563Y-17138746D02*
X11782087Y-17119698D01*
X11782087Y-17119698D02*
X11791611Y-17110174D01*
X11791611Y-17110174D02*
X11810658Y-17100650D01*
X11810658Y-17100650D02*
X11848754Y-17100650D01*
X11848754Y-17100650D02*
X11867801Y-17110174D01*
X11943992Y-17310174D02*
X11953515Y-17300650D01*
X11953515Y-17300650D02*
X11972563Y-17272079D01*
X11972563Y-17272079D02*
X11982087Y-17253031D01*
X11982087Y-17253031D02*
X11991611Y-17224460D01*
X11991611Y-17224460D02*
X12001134Y-17176841D01*
X12001134Y-17176841D02*
X12001134Y-17138746D01*
X12001134Y-17138746D02*
X11991611Y-17091127D01*
X11991611Y-17091127D02*
X11982087Y-17062555D01*
X11982087Y-17062555D02*
X11972563Y-17043508D01*
X11972563Y-17043508D02*
X11953515Y-17014936D01*
X11953515Y-17014936D02*
X11943992Y-17005412D01*
D13*
X4997500Y-17422500D02*
G75*
G02*
X4807500Y-17422500I-95000J0D01*
G01*
X4807500Y-17422500D02*
G75*
G02*
X4997500Y-17422500I95000J0D01*
G01*
D11*
X5363039Y-17513984D02*
X5248753Y-17513984D01*
X5305896Y-17513984D02*
X5305896Y-17313984D01*
X5305896Y-17313984D02*
X5286848Y-17342555D01*
X5286848Y-17342555D02*
X5267801Y-17361603D01*
X5267801Y-17361603D02*
X5248753Y-17371127D01*
X5448753Y-17494936D02*
X5458277Y-17504460D01*
X5458277Y-17504460D02*
X5448753Y-17513984D01*
X5448753Y-17513984D02*
X5439229Y-17504460D01*
X5439229Y-17504460D02*
X5448753Y-17494936D01*
X5448753Y-17494936D02*
X5448753Y-17513984D01*
X5553515Y-17513984D02*
X5591610Y-17513984D01*
X5591610Y-17513984D02*
X5610658Y-17504460D01*
X5610658Y-17504460D02*
X5620182Y-17494936D01*
X5620182Y-17494936D02*
X5639229Y-17466365D01*
X5639229Y-17466365D02*
X5648753Y-17428270D01*
X5648753Y-17428270D02*
X5648753Y-17352079D01*
X5648753Y-17352079D02*
X5639229Y-17333031D01*
X5639229Y-17333031D02*
X5629705Y-17323508D01*
X5629705Y-17323508D02*
X5610658Y-17313984D01*
X5610658Y-17313984D02*
X5572563Y-17313984D01*
X5572563Y-17313984D02*
X5553515Y-17323508D01*
X5553515Y-17323508D02*
X5543991Y-17333031D01*
X5543991Y-17333031D02*
X5534467Y-17352079D01*
X5534467Y-17352079D02*
X5534467Y-17399698D01*
X5534467Y-17399698D02*
X5543991Y-17418746D01*
X5543991Y-17418746D02*
X5553515Y-17428270D01*
X5553515Y-17428270D02*
X5572563Y-17437793D01*
X5572563Y-17437793D02*
X5610658Y-17437793D01*
X5610658Y-17437793D02*
X5629705Y-17428270D01*
X5629705Y-17428270D02*
X5639229Y-17418746D01*
X5639229Y-17418746D02*
X5648753Y-17399698D01*
X5772562Y-17313984D02*
X5791610Y-17313984D01*
X5791610Y-17313984D02*
X5810658Y-17323508D01*
X5810658Y-17323508D02*
X5820182Y-17333031D01*
X5820182Y-17333031D02*
X5829705Y-17352079D01*
X5829705Y-17352079D02*
X5839229Y-17390174D01*
X5839229Y-17390174D02*
X5839229Y-17437793D01*
X5839229Y-17437793D02*
X5829705Y-17475889D01*
X5829705Y-17475889D02*
X5820182Y-17494936D01*
X5820182Y-17494936D02*
X5810658Y-17504460D01*
X5810658Y-17504460D02*
X5791610Y-17513984D01*
X5791610Y-17513984D02*
X5772562Y-17513984D01*
X5772562Y-17513984D02*
X5753515Y-17504460D01*
X5753515Y-17504460D02*
X5743991Y-17494936D01*
X5743991Y-17494936D02*
X5734467Y-17475889D01*
X5734467Y-17475889D02*
X5724943Y-17437793D01*
X5724943Y-17437793D02*
X5724943Y-17390174D01*
X5724943Y-17390174D02*
X5734467Y-17352079D01*
X5734467Y-17352079D02*
X5743991Y-17333031D01*
X5743991Y-17333031D02*
X5753515Y-17323508D01*
X5753515Y-17323508D02*
X5772562Y-17313984D01*
X5963039Y-17313984D02*
X5982086Y-17313984D01*
X5982086Y-17313984D02*
X6001134Y-17323508D01*
X6001134Y-17323508D02*
X6010658Y-17333031D01*
X6010658Y-17333031D02*
X6020182Y-17352079D01*
X6020182Y-17352079D02*
X6029705Y-17390174D01*
X6029705Y-17390174D02*
X6029705Y-17437793D01*
X6029705Y-17437793D02*
X6020182Y-17475889D01*
X6020182Y-17475889D02*
X6010658Y-17494936D01*
X6010658Y-17494936D02*
X6001134Y-17504460D01*
X6001134Y-17504460D02*
X5982086Y-17513984D01*
X5982086Y-17513984D02*
X5963039Y-17513984D01*
X5963039Y-17513984D02*
X5943991Y-17504460D01*
X5943991Y-17504460D02*
X5934467Y-17494936D01*
X5934467Y-17494936D02*
X5924943Y-17475889D01*
X5924943Y-17475889D02*
X5915420Y-17437793D01*
X5915420Y-17437793D02*
X5915420Y-17390174D01*
X5915420Y-17390174D02*
X5924943Y-17352079D01*
X5924943Y-17352079D02*
X5934467Y-17333031D01*
X5934467Y-17333031D02*
X5943991Y-17323508D01*
X5943991Y-17323508D02*
X5963039Y-17313984D01*
X6115420Y-17513984D02*
X6115420Y-17380650D01*
X6115420Y-17399698D02*
X6124943Y-17390174D01*
X6124943Y-17390174D02*
X6143991Y-17380650D01*
X6143991Y-17380650D02*
X6172563Y-17380650D01*
X6172563Y-17380650D02*
X6191610Y-17390174D01*
X6191610Y-17390174D02*
X6201134Y-17409222D01*
X6201134Y-17409222D02*
X6201134Y-17513984D01*
X6201134Y-17409222D02*
X6210658Y-17390174D01*
X6210658Y-17390174D02*
X6229705Y-17380650D01*
X6229705Y-17380650D02*
X6258277Y-17380650D01*
X6258277Y-17380650D02*
X6277324Y-17390174D01*
X6277324Y-17390174D02*
X6286848Y-17409222D01*
X6286848Y-17409222D02*
X6286848Y-17513984D01*
X6382086Y-17513984D02*
X6382086Y-17380650D01*
X6382086Y-17399698D02*
X6391610Y-17390174D01*
X6391610Y-17390174D02*
X6410658Y-17380650D01*
X6410658Y-17380650D02*
X6439229Y-17380650D01*
X6439229Y-17380650D02*
X6458277Y-17390174D01*
X6458277Y-17390174D02*
X6467801Y-17409222D01*
X6467801Y-17409222D02*
X6467801Y-17513984D01*
X6467801Y-17409222D02*
X6477324Y-17390174D01*
X6477324Y-17390174D02*
X6496372Y-17380650D01*
X6496372Y-17380650D02*
X6524943Y-17380650D01*
X6524943Y-17380650D02*
X6543991Y-17390174D01*
X6543991Y-17390174D02*
X6553515Y-17409222D01*
X6553515Y-17409222D02*
X6553515Y-17513984D01*
X6943991Y-17304460D02*
X6772563Y-17561603D01*
X7201134Y-17313984D02*
X7220182Y-17313984D01*
X7220182Y-17313984D02*
X7239229Y-17323508D01*
X7239229Y-17323508D02*
X7248753Y-17333031D01*
X7248753Y-17333031D02*
X7258277Y-17352079D01*
X7258277Y-17352079D02*
X7267801Y-17390174D01*
X7267801Y-17390174D02*
X7267801Y-17437793D01*
X7267801Y-17437793D02*
X7258277Y-17475889D01*
X7258277Y-17475889D02*
X7248753Y-17494936D01*
X7248753Y-17494936D02*
X7239229Y-17504460D01*
X7239229Y-17504460D02*
X7220182Y-17513984D01*
X7220182Y-17513984D02*
X7201134Y-17513984D01*
X7201134Y-17513984D02*
X7182086Y-17504460D01*
X7182086Y-17504460D02*
X7172563Y-17494936D01*
X7172563Y-17494936D02*
X7163039Y-17475889D01*
X7163039Y-17475889D02*
X7153515Y-17437793D01*
X7153515Y-17437793D02*
X7153515Y-17390174D01*
X7153515Y-17390174D02*
X7163039Y-17352079D01*
X7163039Y-17352079D02*
X7172563Y-17333031D01*
X7172563Y-17333031D02*
X7182086Y-17323508D01*
X7182086Y-17323508D02*
X7201134Y-17313984D01*
X7353515Y-17494936D02*
X7363039Y-17504460D01*
X7363039Y-17504460D02*
X7353515Y-17513984D01*
X7353515Y-17513984D02*
X7343991Y-17504460D01*
X7343991Y-17504460D02*
X7353515Y-17494936D01*
X7353515Y-17494936D02*
X7353515Y-17513984D01*
X7486848Y-17313984D02*
X7505896Y-17313984D01*
X7505896Y-17313984D02*
X7524944Y-17323508D01*
X7524944Y-17323508D02*
X7534467Y-17333031D01*
X7534467Y-17333031D02*
X7543991Y-17352079D01*
X7543991Y-17352079D02*
X7553515Y-17390174D01*
X7553515Y-17390174D02*
X7553515Y-17437793D01*
X7553515Y-17437793D02*
X7543991Y-17475889D01*
X7543991Y-17475889D02*
X7534467Y-17494936D01*
X7534467Y-17494936D02*
X7524944Y-17504460D01*
X7524944Y-17504460D02*
X7505896Y-17513984D01*
X7505896Y-17513984D02*
X7486848Y-17513984D01*
X7486848Y-17513984D02*
X7467801Y-17504460D01*
X7467801Y-17504460D02*
X7458277Y-17494936D01*
X7458277Y-17494936D02*
X7448753Y-17475889D01*
X7448753Y-17475889D02*
X7439229Y-17437793D01*
X7439229Y-17437793D02*
X7439229Y-17390174D01*
X7439229Y-17390174D02*
X7448753Y-17352079D01*
X7448753Y-17352079D02*
X7458277Y-17333031D01*
X7458277Y-17333031D02*
X7467801Y-17323508D01*
X7467801Y-17323508D02*
X7486848Y-17313984D01*
X7620182Y-17313984D02*
X7753515Y-17313984D01*
X7753515Y-17313984D02*
X7667801Y-17513984D01*
X7915420Y-17380650D02*
X7915420Y-17513984D01*
X7867801Y-17304460D02*
X7820182Y-17447317D01*
X7820182Y-17447317D02*
X7943991Y-17447317D01*
X8048753Y-17399698D02*
X8029706Y-17390174D01*
X8029706Y-17390174D02*
X8020182Y-17380650D01*
X8020182Y-17380650D02*
X8010658Y-17361603D01*
X8010658Y-17361603D02*
X8010658Y-17352079D01*
X8010658Y-17352079D02*
X8020182Y-17333031D01*
X8020182Y-17333031D02*
X8029706Y-17323508D01*
X8029706Y-17323508D02*
X8048753Y-17313984D01*
X8048753Y-17313984D02*
X8086848Y-17313984D01*
X8086848Y-17313984D02*
X8105896Y-17323508D01*
X8105896Y-17323508D02*
X8115420Y-17333031D01*
X8115420Y-17333031D02*
X8124944Y-17352079D01*
X8124944Y-17352079D02*
X8124944Y-17361603D01*
X8124944Y-17361603D02*
X8115420Y-17380650D01*
X8115420Y-17380650D02*
X8105896Y-17390174D01*
X8105896Y-17390174D02*
X8086848Y-17399698D01*
X8086848Y-17399698D02*
X8048753Y-17399698D01*
X8048753Y-17399698D02*
X8029706Y-17409222D01*
X8029706Y-17409222D02*
X8020182Y-17418746D01*
X8020182Y-17418746D02*
X8010658Y-17437793D01*
X8010658Y-17437793D02*
X8010658Y-17475889D01*
X8010658Y-17475889D02*
X8020182Y-17494936D01*
X8020182Y-17494936D02*
X8029706Y-17504460D01*
X8029706Y-17504460D02*
X8048753Y-17513984D01*
X8048753Y-17513984D02*
X8086848Y-17513984D01*
X8086848Y-17513984D02*
X8105896Y-17504460D01*
X8105896Y-17504460D02*
X8115420Y-17494936D01*
X8115420Y-17494936D02*
X8124944Y-17475889D01*
X8124944Y-17475889D02*
X8124944Y-17437793D01*
X8124944Y-17437793D02*
X8115420Y-17418746D01*
X8115420Y-17418746D02*
X8105896Y-17409222D01*
X8105896Y-17409222D02*
X8086848Y-17399698D01*
X8201134Y-17313984D02*
X8201134Y-17352079D01*
X8277325Y-17313984D02*
X8277325Y-17352079D01*
X8572563Y-17590174D02*
X8563039Y-17580650D01*
X8563039Y-17580650D02*
X8543991Y-17552079D01*
X8543991Y-17552079D02*
X8534468Y-17533031D01*
X8534468Y-17533031D02*
X8524944Y-17504460D01*
X8524944Y-17504460D02*
X8515420Y-17456841D01*
X8515420Y-17456841D02*
X8515420Y-17418746D01*
X8515420Y-17418746D02*
X8524944Y-17371127D01*
X8524944Y-17371127D02*
X8534468Y-17342555D01*
X8534468Y-17342555D02*
X8543991Y-17323508D01*
X8543991Y-17323508D02*
X8563039Y-17294936D01*
X8563039Y-17294936D02*
X8572563Y-17285412D01*
X8629706Y-17313984D02*
X8753515Y-17313984D01*
X8753515Y-17313984D02*
X8686849Y-17390174D01*
X8686849Y-17390174D02*
X8715420Y-17390174D01*
X8715420Y-17390174D02*
X8734468Y-17399698D01*
X8734468Y-17399698D02*
X8743991Y-17409222D01*
X8743991Y-17409222D02*
X8753515Y-17428270D01*
X8753515Y-17428270D02*
X8753515Y-17475889D01*
X8753515Y-17475889D02*
X8743991Y-17494936D01*
X8743991Y-17494936D02*
X8734468Y-17504460D01*
X8734468Y-17504460D02*
X8715420Y-17513984D01*
X8715420Y-17513984D02*
X8658277Y-17513984D01*
X8658277Y-17513984D02*
X8639230Y-17504460D01*
X8639230Y-17504460D02*
X8629706Y-17494936D01*
X8924944Y-17313984D02*
X8886849Y-17313984D01*
X8886849Y-17313984D02*
X8867801Y-17323508D01*
X8867801Y-17323508D02*
X8858277Y-17333031D01*
X8858277Y-17333031D02*
X8839230Y-17361603D01*
X8839230Y-17361603D02*
X8829706Y-17399698D01*
X8829706Y-17399698D02*
X8829706Y-17475889D01*
X8829706Y-17475889D02*
X8839230Y-17494936D01*
X8839230Y-17494936D02*
X8848753Y-17504460D01*
X8848753Y-17504460D02*
X8867801Y-17513984D01*
X8867801Y-17513984D02*
X8905896Y-17513984D01*
X8905896Y-17513984D02*
X8924944Y-17504460D01*
X8924944Y-17504460D02*
X8934468Y-17494936D01*
X8934468Y-17494936D02*
X8943991Y-17475889D01*
X8943991Y-17475889D02*
X8943991Y-17428270D01*
X8943991Y-17428270D02*
X8934468Y-17409222D01*
X8934468Y-17409222D02*
X8924944Y-17399698D01*
X8924944Y-17399698D02*
X8905896Y-17390174D01*
X8905896Y-17390174D02*
X8867801Y-17390174D01*
X8867801Y-17390174D02*
X8848753Y-17399698D01*
X8848753Y-17399698D02*
X8839230Y-17409222D01*
X8839230Y-17409222D02*
X8829706Y-17428270D01*
X9182087Y-17513984D02*
X9182087Y-17313984D01*
X9267801Y-17513984D02*
X9267801Y-17409222D01*
X9267801Y-17409222D02*
X9258277Y-17390174D01*
X9258277Y-17390174D02*
X9239230Y-17380650D01*
X9239230Y-17380650D02*
X9210658Y-17380650D01*
X9210658Y-17380650D02*
X9191611Y-17390174D01*
X9191611Y-17390174D02*
X9182087Y-17399698D01*
X9391611Y-17513984D02*
X9372563Y-17504460D01*
X9372563Y-17504460D02*
X9363039Y-17494936D01*
X9363039Y-17494936D02*
X9353515Y-17475889D01*
X9353515Y-17475889D02*
X9353515Y-17418746D01*
X9353515Y-17418746D02*
X9363039Y-17399698D01*
X9363039Y-17399698D02*
X9372563Y-17390174D01*
X9372563Y-17390174D02*
X9391611Y-17380650D01*
X9391611Y-17380650D02*
X9420182Y-17380650D01*
X9420182Y-17380650D02*
X9439230Y-17390174D01*
X9439230Y-17390174D02*
X9448753Y-17399698D01*
X9448753Y-17399698D02*
X9458277Y-17418746D01*
X9458277Y-17418746D02*
X9458277Y-17475889D01*
X9458277Y-17475889D02*
X9448753Y-17494936D01*
X9448753Y-17494936D02*
X9439230Y-17504460D01*
X9439230Y-17504460D02*
X9420182Y-17513984D01*
X9420182Y-17513984D02*
X9391611Y-17513984D01*
X9572563Y-17513984D02*
X9553515Y-17504460D01*
X9553515Y-17504460D02*
X9543992Y-17485412D01*
X9543992Y-17485412D02*
X9543992Y-17313984D01*
X9724944Y-17504460D02*
X9705896Y-17513984D01*
X9705896Y-17513984D02*
X9667801Y-17513984D01*
X9667801Y-17513984D02*
X9648753Y-17504460D01*
X9648753Y-17504460D02*
X9639230Y-17485412D01*
X9639230Y-17485412D02*
X9639230Y-17409222D01*
X9639230Y-17409222D02*
X9648753Y-17390174D01*
X9648753Y-17390174D02*
X9667801Y-17380650D01*
X9667801Y-17380650D02*
X9705896Y-17380650D01*
X9705896Y-17380650D02*
X9724944Y-17390174D01*
X9724944Y-17390174D02*
X9734468Y-17409222D01*
X9734468Y-17409222D02*
X9734468Y-17428270D01*
X9734468Y-17428270D02*
X9639230Y-17447317D01*
X9810658Y-17504460D02*
X9829706Y-17513984D01*
X9829706Y-17513984D02*
X9867801Y-17513984D01*
X9867801Y-17513984D02*
X9886849Y-17504460D01*
X9886849Y-17504460D02*
X9896373Y-17485412D01*
X9896373Y-17485412D02*
X9896373Y-17475889D01*
X9896373Y-17475889D02*
X9886849Y-17456841D01*
X9886849Y-17456841D02*
X9867801Y-17447317D01*
X9867801Y-17447317D02*
X9839230Y-17447317D01*
X9839230Y-17447317D02*
X9820182Y-17437793D01*
X9820182Y-17437793D02*
X9810658Y-17418746D01*
X9810658Y-17418746D02*
X9810658Y-17409222D01*
X9810658Y-17409222D02*
X9820182Y-17390174D01*
X9820182Y-17390174D02*
X9839230Y-17380650D01*
X9839230Y-17380650D02*
X9867801Y-17380650D01*
X9867801Y-17380650D02*
X9886849Y-17390174D01*
X9963039Y-17590174D02*
X9972563Y-17580650D01*
X9972563Y-17580650D02*
X9991611Y-17552079D01*
X9991611Y-17552079D02*
X10001134Y-17533031D01*
X10001134Y-17533031D02*
X10010658Y-17504460D01*
X10010658Y-17504460D02*
X10020182Y-17456841D01*
X10020182Y-17456841D02*
X10020182Y-17418746D01*
X10020182Y-17418746D02*
X10010658Y-17371127D01*
X10010658Y-17371127D02*
X10001134Y-17342555D01*
X10001134Y-17342555D02*
X9991611Y-17323508D01*
X9991611Y-17323508D02*
X9972563Y-17294936D01*
X9972563Y-17294936D02*
X9963039Y-17285412D01*
X10324944Y-17590174D02*
X10315420Y-17580650D01*
X10315420Y-17580650D02*
X10296373Y-17552079D01*
X10296373Y-17552079D02*
X10286849Y-17533031D01*
X10286849Y-17533031D02*
X10277325Y-17504460D01*
X10277325Y-17504460D02*
X10267801Y-17456841D01*
X10267801Y-17456841D02*
X10267801Y-17418746D01*
X10267801Y-17418746D02*
X10277325Y-17371127D01*
X10277325Y-17371127D02*
X10286849Y-17342555D01*
X10286849Y-17342555D02*
X10296373Y-17323508D01*
X10296373Y-17323508D02*
X10315420Y-17294936D01*
X10315420Y-17294936D02*
X10324944Y-17285412D01*
X10401134Y-17380650D02*
X10401134Y-17513984D01*
X10401134Y-17399698D02*
X10410658Y-17390174D01*
X10410658Y-17390174D02*
X10429706Y-17380650D01*
X10429706Y-17380650D02*
X10458277Y-17380650D01*
X10458277Y-17380650D02*
X10477325Y-17390174D01*
X10477325Y-17390174D02*
X10486849Y-17409222D01*
X10486849Y-17409222D02*
X10486849Y-17513984D01*
X10610658Y-17513984D02*
X10591611Y-17504460D01*
X10591611Y-17504460D02*
X10582087Y-17494936D01*
X10582087Y-17494936D02*
X10572563Y-17475889D01*
X10572563Y-17475889D02*
X10572563Y-17418746D01*
X10572563Y-17418746D02*
X10582087Y-17399698D01*
X10582087Y-17399698D02*
X10591611Y-17390174D01*
X10591611Y-17390174D02*
X10610658Y-17380650D01*
X10610658Y-17380650D02*
X10639230Y-17380650D01*
X10639230Y-17380650D02*
X10658277Y-17390174D01*
X10658277Y-17390174D02*
X10667801Y-17399698D01*
X10667801Y-17399698D02*
X10677325Y-17418746D01*
X10677325Y-17418746D02*
X10677325Y-17475889D01*
X10677325Y-17475889D02*
X10667801Y-17494936D01*
X10667801Y-17494936D02*
X10658277Y-17504460D01*
X10658277Y-17504460D02*
X10639230Y-17513984D01*
X10639230Y-17513984D02*
X10610658Y-17513984D01*
X10734468Y-17380650D02*
X10810658Y-17380650D01*
X10763039Y-17313984D02*
X10763039Y-17485412D01*
X10763039Y-17485412D02*
X10772563Y-17504460D01*
X10772563Y-17504460D02*
X10791611Y-17513984D01*
X10791611Y-17513984D02*
X10810658Y-17513984D01*
X11029706Y-17380650D02*
X11029706Y-17580650D01*
X11029706Y-17390174D02*
X11048754Y-17380650D01*
X11048754Y-17380650D02*
X11086849Y-17380650D01*
X11086849Y-17380650D02*
X11105896Y-17390174D01*
X11105896Y-17390174D02*
X11115420Y-17399698D01*
X11115420Y-17399698D02*
X11124944Y-17418746D01*
X11124944Y-17418746D02*
X11124944Y-17475889D01*
X11124944Y-17475889D02*
X11115420Y-17494936D01*
X11115420Y-17494936D02*
X11105896Y-17504460D01*
X11105896Y-17504460D02*
X11086849Y-17513984D01*
X11086849Y-17513984D02*
X11048754Y-17513984D01*
X11048754Y-17513984D02*
X11029706Y-17504460D01*
X11239230Y-17513984D02*
X11220182Y-17504460D01*
X11220182Y-17504460D02*
X11210658Y-17485412D01*
X11210658Y-17485412D02*
X11210658Y-17313984D01*
X11401134Y-17513984D02*
X11401134Y-17409222D01*
X11401134Y-17409222D02*
X11391611Y-17390174D01*
X11391611Y-17390174D02*
X11372563Y-17380650D01*
X11372563Y-17380650D02*
X11334468Y-17380650D01*
X11334468Y-17380650D02*
X11315420Y-17390174D01*
X11401134Y-17504460D02*
X11382087Y-17513984D01*
X11382087Y-17513984D02*
X11334468Y-17513984D01*
X11334468Y-17513984D02*
X11315420Y-17504460D01*
X11315420Y-17504460D02*
X11305896Y-17485412D01*
X11305896Y-17485412D02*
X11305896Y-17466365D01*
X11305896Y-17466365D02*
X11315420Y-17447317D01*
X11315420Y-17447317D02*
X11334468Y-17437793D01*
X11334468Y-17437793D02*
X11382087Y-17437793D01*
X11382087Y-17437793D02*
X11401134Y-17428270D01*
X11467801Y-17380650D02*
X11543992Y-17380650D01*
X11496373Y-17313984D02*
X11496373Y-17485412D01*
X11496373Y-17485412D02*
X11505896Y-17504460D01*
X11505896Y-17504460D02*
X11524944Y-17513984D01*
X11524944Y-17513984D02*
X11543992Y-17513984D01*
X11686849Y-17504460D02*
X11667801Y-17513984D01*
X11667801Y-17513984D02*
X11629706Y-17513984D01*
X11629706Y-17513984D02*
X11610658Y-17504460D01*
X11610658Y-17504460D02*
X11601134Y-17485412D01*
X11601134Y-17485412D02*
X11601134Y-17409222D01*
X11601134Y-17409222D02*
X11610658Y-17390174D01*
X11610658Y-17390174D02*
X11629706Y-17380650D01*
X11629706Y-17380650D02*
X11667801Y-17380650D01*
X11667801Y-17380650D02*
X11686849Y-17390174D01*
X11686849Y-17390174D02*
X11696373Y-17409222D01*
X11696373Y-17409222D02*
X11696373Y-17428270D01*
X11696373Y-17428270D02*
X11601134Y-17447317D01*
X11867801Y-17513984D02*
X11867801Y-17313984D01*
X11867801Y-17504460D02*
X11848754Y-17513984D01*
X11848754Y-17513984D02*
X11810658Y-17513984D01*
X11810658Y-17513984D02*
X11791611Y-17504460D01*
X11791611Y-17504460D02*
X11782087Y-17494936D01*
X11782087Y-17494936D02*
X11772563Y-17475889D01*
X11772563Y-17475889D02*
X11772563Y-17418746D01*
X11772563Y-17418746D02*
X11782087Y-17399698D01*
X11782087Y-17399698D02*
X11791611Y-17390174D01*
X11791611Y-17390174D02*
X11810658Y-17380650D01*
X11810658Y-17380650D02*
X11848754Y-17380650D01*
X11848754Y-17380650D02*
X11867801Y-17390174D01*
X11943992Y-17590174D02*
X11953515Y-17580650D01*
X11953515Y-17580650D02*
X11972563Y-17552079D01*
X11972563Y-17552079D02*
X11982087Y-17533031D01*
X11982087Y-17533031D02*
X11991611Y-17504460D01*
X11991611Y-17504460D02*
X12001134Y-17456841D01*
X12001134Y-17456841D02*
X12001134Y-17418746D01*
X12001134Y-17418746D02*
X11991611Y-17371127D01*
X11991611Y-17371127D02*
X11982087Y-17342555D01*
X11982087Y-17342555D02*
X11972563Y-17323508D01*
X11972563Y-17323508D02*
X11953515Y-17294936D01*
X11953515Y-17294936D02*
X11943992Y-17285412D01*
X4897500Y-17632500D02*
X4897500Y-17832500D01*
X4797500Y-17732500D02*
X4997500Y-17732500D01*
X5239229Y-17623984D02*
X5363039Y-17623984D01*
X5363039Y-17623984D02*
X5296372Y-17700174D01*
X5296372Y-17700174D02*
X5324944Y-17700174D01*
X5324944Y-17700174D02*
X5343991Y-17709698D01*
X5343991Y-17709698D02*
X5353515Y-17719222D01*
X5353515Y-17719222D02*
X5363039Y-17738270D01*
X5363039Y-17738270D02*
X5363039Y-17785889D01*
X5363039Y-17785889D02*
X5353515Y-17804936D01*
X5353515Y-17804936D02*
X5343991Y-17814460D01*
X5343991Y-17814460D02*
X5324944Y-17823984D01*
X5324944Y-17823984D02*
X5267801Y-17823984D01*
X5267801Y-17823984D02*
X5248753Y-17814460D01*
X5248753Y-17814460D02*
X5239229Y-17804936D01*
X5448753Y-17804936D02*
X5458277Y-17814460D01*
X5458277Y-17814460D02*
X5448753Y-17823984D01*
X5448753Y-17823984D02*
X5439229Y-17814460D01*
X5439229Y-17814460D02*
X5448753Y-17804936D01*
X5448753Y-17804936D02*
X5448753Y-17823984D01*
X5582086Y-17623984D02*
X5601134Y-17623984D01*
X5601134Y-17623984D02*
X5620182Y-17633508D01*
X5620182Y-17633508D02*
X5629705Y-17643031D01*
X5629705Y-17643031D02*
X5639229Y-17662079D01*
X5639229Y-17662079D02*
X5648753Y-17700174D01*
X5648753Y-17700174D02*
X5648753Y-17747793D01*
X5648753Y-17747793D02*
X5639229Y-17785889D01*
X5639229Y-17785889D02*
X5629705Y-17804936D01*
X5629705Y-17804936D02*
X5620182Y-17814460D01*
X5620182Y-17814460D02*
X5601134Y-17823984D01*
X5601134Y-17823984D02*
X5582086Y-17823984D01*
X5582086Y-17823984D02*
X5563039Y-17814460D01*
X5563039Y-17814460D02*
X5553515Y-17804936D01*
X5553515Y-17804936D02*
X5543991Y-17785889D01*
X5543991Y-17785889D02*
X5534467Y-17747793D01*
X5534467Y-17747793D02*
X5534467Y-17700174D01*
X5534467Y-17700174D02*
X5543991Y-17662079D01*
X5543991Y-17662079D02*
X5553515Y-17643031D01*
X5553515Y-17643031D02*
X5563039Y-17633508D01*
X5563039Y-17633508D02*
X5582086Y-17623984D01*
X5829705Y-17623984D02*
X5734467Y-17623984D01*
X5734467Y-17623984D02*
X5724943Y-17719222D01*
X5724943Y-17719222D02*
X5734467Y-17709698D01*
X5734467Y-17709698D02*
X5753515Y-17700174D01*
X5753515Y-17700174D02*
X5801134Y-17700174D01*
X5801134Y-17700174D02*
X5820182Y-17709698D01*
X5820182Y-17709698D02*
X5829705Y-17719222D01*
X5829705Y-17719222D02*
X5839229Y-17738270D01*
X5839229Y-17738270D02*
X5839229Y-17785889D01*
X5839229Y-17785889D02*
X5829705Y-17804936D01*
X5829705Y-17804936D02*
X5820182Y-17814460D01*
X5820182Y-17814460D02*
X5801134Y-17823984D01*
X5801134Y-17823984D02*
X5753515Y-17823984D01*
X5753515Y-17823984D02*
X5734467Y-17814460D01*
X5734467Y-17814460D02*
X5724943Y-17804936D01*
X5963039Y-17623984D02*
X5982086Y-17623984D01*
X5982086Y-17623984D02*
X6001134Y-17633508D01*
X6001134Y-17633508D02*
X6010658Y-17643031D01*
X6010658Y-17643031D02*
X6020182Y-17662079D01*
X6020182Y-17662079D02*
X6029705Y-17700174D01*
X6029705Y-17700174D02*
X6029705Y-17747793D01*
X6029705Y-17747793D02*
X6020182Y-17785889D01*
X6020182Y-17785889D02*
X6010658Y-17804936D01*
X6010658Y-17804936D02*
X6001134Y-17814460D01*
X6001134Y-17814460D02*
X5982086Y-17823984D01*
X5982086Y-17823984D02*
X5963039Y-17823984D01*
X5963039Y-17823984D02*
X5943991Y-17814460D01*
X5943991Y-17814460D02*
X5934467Y-17804936D01*
X5934467Y-17804936D02*
X5924943Y-17785889D01*
X5924943Y-17785889D02*
X5915420Y-17747793D01*
X5915420Y-17747793D02*
X5915420Y-17700174D01*
X5915420Y-17700174D02*
X5924943Y-17662079D01*
X5924943Y-17662079D02*
X5934467Y-17643031D01*
X5934467Y-17643031D02*
X5943991Y-17633508D01*
X5943991Y-17633508D02*
X5963039Y-17623984D01*
X6115420Y-17823984D02*
X6115420Y-17690650D01*
X6115420Y-17709698D02*
X6124943Y-17700174D01*
X6124943Y-17700174D02*
X6143991Y-17690650D01*
X6143991Y-17690650D02*
X6172563Y-17690650D01*
X6172563Y-17690650D02*
X6191610Y-17700174D01*
X6191610Y-17700174D02*
X6201134Y-17719222D01*
X6201134Y-17719222D02*
X6201134Y-17823984D01*
X6201134Y-17719222D02*
X6210658Y-17700174D01*
X6210658Y-17700174D02*
X6229705Y-17690650D01*
X6229705Y-17690650D02*
X6258277Y-17690650D01*
X6258277Y-17690650D02*
X6277324Y-17700174D01*
X6277324Y-17700174D02*
X6286848Y-17719222D01*
X6286848Y-17719222D02*
X6286848Y-17823984D01*
X6382086Y-17823984D02*
X6382086Y-17690650D01*
X6382086Y-17709698D02*
X6391610Y-17700174D01*
X6391610Y-17700174D02*
X6410658Y-17690650D01*
X6410658Y-17690650D02*
X6439229Y-17690650D01*
X6439229Y-17690650D02*
X6458277Y-17700174D01*
X6458277Y-17700174D02*
X6467801Y-17719222D01*
X6467801Y-17719222D02*
X6467801Y-17823984D01*
X6467801Y-17719222D02*
X6477324Y-17700174D01*
X6477324Y-17700174D02*
X6496372Y-17690650D01*
X6496372Y-17690650D02*
X6524943Y-17690650D01*
X6524943Y-17690650D02*
X6543991Y-17700174D01*
X6543991Y-17700174D02*
X6553515Y-17719222D01*
X6553515Y-17719222D02*
X6553515Y-17823984D01*
X6943991Y-17614460D02*
X6772563Y-17871603D01*
X7201134Y-17623984D02*
X7220182Y-17623984D01*
X7220182Y-17623984D02*
X7239229Y-17633508D01*
X7239229Y-17633508D02*
X7248753Y-17643031D01*
X7248753Y-17643031D02*
X7258277Y-17662079D01*
X7258277Y-17662079D02*
X7267801Y-17700174D01*
X7267801Y-17700174D02*
X7267801Y-17747793D01*
X7267801Y-17747793D02*
X7258277Y-17785889D01*
X7258277Y-17785889D02*
X7248753Y-17804936D01*
X7248753Y-17804936D02*
X7239229Y-17814460D01*
X7239229Y-17814460D02*
X7220182Y-17823984D01*
X7220182Y-17823984D02*
X7201134Y-17823984D01*
X7201134Y-17823984D02*
X7182086Y-17814460D01*
X7182086Y-17814460D02*
X7172563Y-17804936D01*
X7172563Y-17804936D02*
X7163039Y-17785889D01*
X7163039Y-17785889D02*
X7153515Y-17747793D01*
X7153515Y-17747793D02*
X7153515Y-17700174D01*
X7153515Y-17700174D02*
X7163039Y-17662079D01*
X7163039Y-17662079D02*
X7172563Y-17643031D01*
X7172563Y-17643031D02*
X7182086Y-17633508D01*
X7182086Y-17633508D02*
X7201134Y-17623984D01*
X7353515Y-17804936D02*
X7363039Y-17814460D01*
X7363039Y-17814460D02*
X7353515Y-17823984D01*
X7353515Y-17823984D02*
X7343991Y-17814460D01*
X7343991Y-17814460D02*
X7353515Y-17804936D01*
X7353515Y-17804936D02*
X7353515Y-17823984D01*
X7553515Y-17823984D02*
X7439229Y-17823984D01*
X7496372Y-17823984D02*
X7496372Y-17623984D01*
X7496372Y-17623984D02*
X7477325Y-17652555D01*
X7477325Y-17652555D02*
X7458277Y-17671603D01*
X7458277Y-17671603D02*
X7439229Y-17681127D01*
X7629706Y-17643031D02*
X7639229Y-17633508D01*
X7639229Y-17633508D02*
X7658277Y-17623984D01*
X7658277Y-17623984D02*
X7705896Y-17623984D01*
X7705896Y-17623984D02*
X7724944Y-17633508D01*
X7724944Y-17633508D02*
X7734467Y-17643031D01*
X7734467Y-17643031D02*
X7743991Y-17662079D01*
X7743991Y-17662079D02*
X7743991Y-17681127D01*
X7743991Y-17681127D02*
X7734467Y-17709698D01*
X7734467Y-17709698D02*
X7620182Y-17823984D01*
X7620182Y-17823984D02*
X7743991Y-17823984D01*
X7867801Y-17623984D02*
X7886848Y-17623984D01*
X7886848Y-17623984D02*
X7905896Y-17633508D01*
X7905896Y-17633508D02*
X7915420Y-17643031D01*
X7915420Y-17643031D02*
X7924944Y-17662079D01*
X7924944Y-17662079D02*
X7934467Y-17700174D01*
X7934467Y-17700174D02*
X7934467Y-17747793D01*
X7934467Y-17747793D02*
X7924944Y-17785889D01*
X7924944Y-17785889D02*
X7915420Y-17804936D01*
X7915420Y-17804936D02*
X7905896Y-17814460D01*
X7905896Y-17814460D02*
X7886848Y-17823984D01*
X7886848Y-17823984D02*
X7867801Y-17823984D01*
X7867801Y-17823984D02*
X7848753Y-17814460D01*
X7848753Y-17814460D02*
X7839229Y-17804936D01*
X7839229Y-17804936D02*
X7829706Y-17785889D01*
X7829706Y-17785889D02*
X7820182Y-17747793D01*
X7820182Y-17747793D02*
X7820182Y-17700174D01*
X7820182Y-17700174D02*
X7829706Y-17662079D01*
X7829706Y-17662079D02*
X7839229Y-17643031D01*
X7839229Y-17643031D02*
X7848753Y-17633508D01*
X7848753Y-17633508D02*
X7867801Y-17623984D01*
X8124944Y-17823984D02*
X8010658Y-17823984D01*
X8067801Y-17823984D02*
X8067801Y-17623984D01*
X8067801Y-17623984D02*
X8048753Y-17652555D01*
X8048753Y-17652555D02*
X8029706Y-17671603D01*
X8029706Y-17671603D02*
X8010658Y-17681127D01*
X8201134Y-17623984D02*
X8201134Y-17662079D01*
X8277325Y-17623984D02*
X8277325Y-17662079D01*
X8572563Y-17900174D02*
X8563039Y-17890650D01*
X8563039Y-17890650D02*
X8543991Y-17862079D01*
X8543991Y-17862079D02*
X8534468Y-17843031D01*
X8534468Y-17843031D02*
X8524944Y-17814460D01*
X8524944Y-17814460D02*
X8515420Y-17766841D01*
X8515420Y-17766841D02*
X8515420Y-17728746D01*
X8515420Y-17728746D02*
X8524944Y-17681127D01*
X8524944Y-17681127D02*
X8534468Y-17652555D01*
X8534468Y-17652555D02*
X8543991Y-17633508D01*
X8543991Y-17633508D02*
X8563039Y-17604936D01*
X8563039Y-17604936D02*
X8572563Y-17595412D01*
X8629706Y-17623984D02*
X8753515Y-17623984D01*
X8753515Y-17623984D02*
X8686849Y-17700174D01*
X8686849Y-17700174D02*
X8715420Y-17700174D01*
X8715420Y-17700174D02*
X8734468Y-17709698D01*
X8734468Y-17709698D02*
X8743991Y-17719222D01*
X8743991Y-17719222D02*
X8753515Y-17738270D01*
X8753515Y-17738270D02*
X8753515Y-17785889D01*
X8753515Y-17785889D02*
X8743991Y-17804936D01*
X8743991Y-17804936D02*
X8734468Y-17814460D01*
X8734468Y-17814460D02*
X8715420Y-17823984D01*
X8715420Y-17823984D02*
X8658277Y-17823984D01*
X8658277Y-17823984D02*
X8639230Y-17814460D01*
X8639230Y-17814460D02*
X8629706Y-17804936D01*
X8924944Y-17623984D02*
X8886849Y-17623984D01*
X8886849Y-17623984D02*
X8867801Y-17633508D01*
X8867801Y-17633508D02*
X8858277Y-17643031D01*
X8858277Y-17643031D02*
X8839230Y-17671603D01*
X8839230Y-17671603D02*
X8829706Y-17709698D01*
X8829706Y-17709698D02*
X8829706Y-17785889D01*
X8829706Y-17785889D02*
X8839230Y-17804936D01*
X8839230Y-17804936D02*
X8848753Y-17814460D01*
X8848753Y-17814460D02*
X8867801Y-17823984D01*
X8867801Y-17823984D02*
X8905896Y-17823984D01*
X8905896Y-17823984D02*
X8924944Y-17814460D01*
X8924944Y-17814460D02*
X8934468Y-17804936D01*
X8934468Y-17804936D02*
X8943991Y-17785889D01*
X8943991Y-17785889D02*
X8943991Y-17738270D01*
X8943991Y-17738270D02*
X8934468Y-17719222D01*
X8934468Y-17719222D02*
X8924944Y-17709698D01*
X8924944Y-17709698D02*
X8905896Y-17700174D01*
X8905896Y-17700174D02*
X8867801Y-17700174D01*
X8867801Y-17700174D02*
X8848753Y-17709698D01*
X8848753Y-17709698D02*
X8839230Y-17719222D01*
X8839230Y-17719222D02*
X8829706Y-17738270D01*
X9182087Y-17823984D02*
X9182087Y-17623984D01*
X9267801Y-17823984D02*
X9267801Y-17719222D01*
X9267801Y-17719222D02*
X9258277Y-17700174D01*
X9258277Y-17700174D02*
X9239230Y-17690650D01*
X9239230Y-17690650D02*
X9210658Y-17690650D01*
X9210658Y-17690650D02*
X9191611Y-17700174D01*
X9191611Y-17700174D02*
X9182087Y-17709698D01*
X9391611Y-17823984D02*
X9372563Y-17814460D01*
X9372563Y-17814460D02*
X9363039Y-17804936D01*
X9363039Y-17804936D02*
X9353515Y-17785889D01*
X9353515Y-17785889D02*
X9353515Y-17728746D01*
X9353515Y-17728746D02*
X9363039Y-17709698D01*
X9363039Y-17709698D02*
X9372563Y-17700174D01*
X9372563Y-17700174D02*
X9391611Y-17690650D01*
X9391611Y-17690650D02*
X9420182Y-17690650D01*
X9420182Y-17690650D02*
X9439230Y-17700174D01*
X9439230Y-17700174D02*
X9448753Y-17709698D01*
X9448753Y-17709698D02*
X9458277Y-17728746D01*
X9458277Y-17728746D02*
X9458277Y-17785889D01*
X9458277Y-17785889D02*
X9448753Y-17804936D01*
X9448753Y-17804936D02*
X9439230Y-17814460D01*
X9439230Y-17814460D02*
X9420182Y-17823984D01*
X9420182Y-17823984D02*
X9391611Y-17823984D01*
X9572563Y-17823984D02*
X9553515Y-17814460D01*
X9553515Y-17814460D02*
X9543992Y-17795412D01*
X9543992Y-17795412D02*
X9543992Y-17623984D01*
X9724944Y-17814460D02*
X9705896Y-17823984D01*
X9705896Y-17823984D02*
X9667801Y-17823984D01*
X9667801Y-17823984D02*
X9648753Y-17814460D01*
X9648753Y-17814460D02*
X9639230Y-17795412D01*
X9639230Y-17795412D02*
X9639230Y-17719222D01*
X9639230Y-17719222D02*
X9648753Y-17700174D01*
X9648753Y-17700174D02*
X9667801Y-17690650D01*
X9667801Y-17690650D02*
X9705896Y-17690650D01*
X9705896Y-17690650D02*
X9724944Y-17700174D01*
X9724944Y-17700174D02*
X9734468Y-17719222D01*
X9734468Y-17719222D02*
X9734468Y-17738270D01*
X9734468Y-17738270D02*
X9639230Y-17757317D01*
X9810658Y-17814460D02*
X9829706Y-17823984D01*
X9829706Y-17823984D02*
X9867801Y-17823984D01*
X9867801Y-17823984D02*
X9886849Y-17814460D01*
X9886849Y-17814460D02*
X9896373Y-17795412D01*
X9896373Y-17795412D02*
X9896373Y-17785889D01*
X9896373Y-17785889D02*
X9886849Y-17766841D01*
X9886849Y-17766841D02*
X9867801Y-17757317D01*
X9867801Y-17757317D02*
X9839230Y-17757317D01*
X9839230Y-17757317D02*
X9820182Y-17747793D01*
X9820182Y-17747793D02*
X9810658Y-17728746D01*
X9810658Y-17728746D02*
X9810658Y-17719222D01*
X9810658Y-17719222D02*
X9820182Y-17700174D01*
X9820182Y-17700174D02*
X9839230Y-17690650D01*
X9839230Y-17690650D02*
X9867801Y-17690650D01*
X9867801Y-17690650D02*
X9886849Y-17700174D01*
X9963039Y-17900174D02*
X9972563Y-17890650D01*
X9972563Y-17890650D02*
X9991611Y-17862079D01*
X9991611Y-17862079D02*
X10001134Y-17843031D01*
X10001134Y-17843031D02*
X10010658Y-17814460D01*
X10010658Y-17814460D02*
X10020182Y-17766841D01*
X10020182Y-17766841D02*
X10020182Y-17728746D01*
X10020182Y-17728746D02*
X10010658Y-17681127D01*
X10010658Y-17681127D02*
X10001134Y-17652555D01*
X10001134Y-17652555D02*
X9991611Y-17633508D01*
X9991611Y-17633508D02*
X9972563Y-17604936D01*
X9972563Y-17604936D02*
X9963039Y-17595412D01*
X10324944Y-17900174D02*
X10315420Y-17890650D01*
X10315420Y-17890650D02*
X10296373Y-17862079D01*
X10296373Y-17862079D02*
X10286849Y-17843031D01*
X10286849Y-17843031D02*
X10277325Y-17814460D01*
X10277325Y-17814460D02*
X10267801Y-17766841D01*
X10267801Y-17766841D02*
X10267801Y-17728746D01*
X10267801Y-17728746D02*
X10277325Y-17681127D01*
X10277325Y-17681127D02*
X10286849Y-17652555D01*
X10286849Y-17652555D02*
X10296373Y-17633508D01*
X10296373Y-17633508D02*
X10315420Y-17604936D01*
X10315420Y-17604936D02*
X10324944Y-17595412D01*
X10401134Y-17690650D02*
X10401134Y-17823984D01*
X10401134Y-17709698D02*
X10410658Y-17700174D01*
X10410658Y-17700174D02*
X10429706Y-17690650D01*
X10429706Y-17690650D02*
X10458277Y-17690650D01*
X10458277Y-17690650D02*
X10477325Y-17700174D01*
X10477325Y-17700174D02*
X10486849Y-17719222D01*
X10486849Y-17719222D02*
X10486849Y-17823984D01*
X10610658Y-17823984D02*
X10591611Y-17814460D01*
X10591611Y-17814460D02*
X10582087Y-17804936D01*
X10582087Y-17804936D02*
X10572563Y-17785889D01*
X10572563Y-17785889D02*
X10572563Y-17728746D01*
X10572563Y-17728746D02*
X10582087Y-17709698D01*
X10582087Y-17709698D02*
X10591611Y-17700174D01*
X10591611Y-17700174D02*
X10610658Y-17690650D01*
X10610658Y-17690650D02*
X10639230Y-17690650D01*
X10639230Y-17690650D02*
X10658277Y-17700174D01*
X10658277Y-17700174D02*
X10667801Y-17709698D01*
X10667801Y-17709698D02*
X10677325Y-17728746D01*
X10677325Y-17728746D02*
X10677325Y-17785889D01*
X10677325Y-17785889D02*
X10667801Y-17804936D01*
X10667801Y-17804936D02*
X10658277Y-17814460D01*
X10658277Y-17814460D02*
X10639230Y-17823984D01*
X10639230Y-17823984D02*
X10610658Y-17823984D01*
X10734468Y-17690650D02*
X10810658Y-17690650D01*
X10763039Y-17623984D02*
X10763039Y-17795412D01*
X10763039Y-17795412D02*
X10772563Y-17814460D01*
X10772563Y-17814460D02*
X10791611Y-17823984D01*
X10791611Y-17823984D02*
X10810658Y-17823984D01*
X11029706Y-17690650D02*
X11029706Y-17890650D01*
X11029706Y-17700174D02*
X11048754Y-17690650D01*
X11048754Y-17690650D02*
X11086849Y-17690650D01*
X11086849Y-17690650D02*
X11105896Y-17700174D01*
X11105896Y-17700174D02*
X11115420Y-17709698D01*
X11115420Y-17709698D02*
X11124944Y-17728746D01*
X11124944Y-17728746D02*
X11124944Y-17785889D01*
X11124944Y-17785889D02*
X11115420Y-17804936D01*
X11115420Y-17804936D02*
X11105896Y-17814460D01*
X11105896Y-17814460D02*
X11086849Y-17823984D01*
X11086849Y-17823984D02*
X11048754Y-17823984D01*
X11048754Y-17823984D02*
X11029706Y-17814460D01*
X11239230Y-17823984D02*
X11220182Y-17814460D01*
X11220182Y-17814460D02*
X11210658Y-17795412D01*
X11210658Y-17795412D02*
X11210658Y-17623984D01*
X11401134Y-17823984D02*
X11401134Y-17719222D01*
X11401134Y-17719222D02*
X11391611Y-17700174D01*
X11391611Y-17700174D02*
X11372563Y-17690650D01*
X11372563Y-17690650D02*
X11334468Y-17690650D01*
X11334468Y-17690650D02*
X11315420Y-17700174D01*
X11401134Y-17814460D02*
X11382087Y-17823984D01*
X11382087Y-17823984D02*
X11334468Y-17823984D01*
X11334468Y-17823984D02*
X11315420Y-17814460D01*
X11315420Y-17814460D02*
X11305896Y-17795412D01*
X11305896Y-17795412D02*
X11305896Y-17776365D01*
X11305896Y-17776365D02*
X11315420Y-17757317D01*
X11315420Y-17757317D02*
X11334468Y-17747793D01*
X11334468Y-17747793D02*
X11382087Y-17747793D01*
X11382087Y-17747793D02*
X11401134Y-17738270D01*
X11467801Y-17690650D02*
X11543992Y-17690650D01*
X11496373Y-17623984D02*
X11496373Y-17795412D01*
X11496373Y-17795412D02*
X11505896Y-17814460D01*
X11505896Y-17814460D02*
X11524944Y-17823984D01*
X11524944Y-17823984D02*
X11543992Y-17823984D01*
X11686849Y-17814460D02*
X11667801Y-17823984D01*
X11667801Y-17823984D02*
X11629706Y-17823984D01*
X11629706Y-17823984D02*
X11610658Y-17814460D01*
X11610658Y-17814460D02*
X11601134Y-17795412D01*
X11601134Y-17795412D02*
X11601134Y-17719222D01*
X11601134Y-17719222D02*
X11610658Y-17700174D01*
X11610658Y-17700174D02*
X11629706Y-17690650D01*
X11629706Y-17690650D02*
X11667801Y-17690650D01*
X11667801Y-17690650D02*
X11686849Y-17700174D01*
X11686849Y-17700174D02*
X11696373Y-17719222D01*
X11696373Y-17719222D02*
X11696373Y-17738270D01*
X11696373Y-17738270D02*
X11601134Y-17757317D01*
X11867801Y-17823984D02*
X11867801Y-17623984D01*
X11867801Y-17814460D02*
X11848754Y-17823984D01*
X11848754Y-17823984D02*
X11810658Y-17823984D01*
X11810658Y-17823984D02*
X11791611Y-17814460D01*
X11791611Y-17814460D02*
X11782087Y-17804936D01*
X11782087Y-17804936D02*
X11772563Y-17785889D01*
X11772563Y-17785889D02*
X11772563Y-17728746D01*
X11772563Y-17728746D02*
X11782087Y-17709698D01*
X11782087Y-17709698D02*
X11791611Y-17700174D01*
X11791611Y-17700174D02*
X11810658Y-17690650D01*
X11810658Y-17690650D02*
X11848754Y-17690650D01*
X11848754Y-17690650D02*
X11867801Y-17700174D01*
X11943992Y-17900174D02*
X11953515Y-17890650D01*
X11953515Y-17890650D02*
X11972563Y-17862079D01*
X11972563Y-17862079D02*
X11982087Y-17843031D01*
X11982087Y-17843031D02*
X11991611Y-17814460D01*
X11991611Y-17814460D02*
X12001134Y-17766841D01*
X12001134Y-17766841D02*
X12001134Y-17728746D01*
X12001134Y-17728746D02*
X11991611Y-17681127D01*
X11991611Y-17681127D02*
X11982087Y-17652555D01*
X11982087Y-17652555D02*
X11972563Y-17633508D01*
X11972563Y-17633508D02*
X11953515Y-17604936D01*
X11953515Y-17604936D02*
X11943992Y-17595412D01*
X4968211Y-18123211D02*
X4968211Y-17981789D01*
X4826789Y-17981789D01*
X4826789Y-18123211D01*
X4968211Y-18123211D01*
X5353515Y-17943984D02*
X5258277Y-17943984D01*
X5258277Y-17943984D02*
X5248753Y-18039222D01*
X5248753Y-18039222D02*
X5258277Y-18029698D01*
X5258277Y-18029698D02*
X5277324Y-18020174D01*
X5277324Y-18020174D02*
X5324944Y-18020174D01*
X5324944Y-18020174D02*
X5343991Y-18029698D01*
X5343991Y-18029698D02*
X5353515Y-18039222D01*
X5353515Y-18039222D02*
X5363039Y-18058270D01*
X5363039Y-18058270D02*
X5363039Y-18105889D01*
X5363039Y-18105889D02*
X5353515Y-18124936D01*
X5353515Y-18124936D02*
X5343991Y-18134460D01*
X5343991Y-18134460D02*
X5324944Y-18143984D01*
X5324944Y-18143984D02*
X5277324Y-18143984D01*
X5277324Y-18143984D02*
X5258277Y-18134460D01*
X5258277Y-18134460D02*
X5248753Y-18124936D01*
X5448753Y-18124936D02*
X5458277Y-18134460D01*
X5458277Y-18134460D02*
X5448753Y-18143984D01*
X5448753Y-18143984D02*
X5439229Y-18134460D01*
X5439229Y-18134460D02*
X5448753Y-18124936D01*
X5448753Y-18124936D02*
X5448753Y-18143984D01*
X5582086Y-17943984D02*
X5601134Y-17943984D01*
X5601134Y-17943984D02*
X5620182Y-17953508D01*
X5620182Y-17953508D02*
X5629705Y-17963031D01*
X5629705Y-17963031D02*
X5639229Y-17982079D01*
X5639229Y-17982079D02*
X5648753Y-18020174D01*
X5648753Y-18020174D02*
X5648753Y-18067793D01*
X5648753Y-18067793D02*
X5639229Y-18105889D01*
X5639229Y-18105889D02*
X5629705Y-18124936D01*
X5629705Y-18124936D02*
X5620182Y-18134460D01*
X5620182Y-18134460D02*
X5601134Y-18143984D01*
X5601134Y-18143984D02*
X5582086Y-18143984D01*
X5582086Y-18143984D02*
X5563039Y-18134460D01*
X5563039Y-18134460D02*
X5553515Y-18124936D01*
X5553515Y-18124936D02*
X5543991Y-18105889D01*
X5543991Y-18105889D02*
X5534467Y-18067793D01*
X5534467Y-18067793D02*
X5534467Y-18020174D01*
X5534467Y-18020174D02*
X5543991Y-17982079D01*
X5543991Y-17982079D02*
X5553515Y-17963031D01*
X5553515Y-17963031D02*
X5563039Y-17953508D01*
X5563039Y-17953508D02*
X5582086Y-17943984D01*
X5829705Y-17943984D02*
X5734467Y-17943984D01*
X5734467Y-17943984D02*
X5724943Y-18039222D01*
X5724943Y-18039222D02*
X5734467Y-18029698D01*
X5734467Y-18029698D02*
X5753515Y-18020174D01*
X5753515Y-18020174D02*
X5801134Y-18020174D01*
X5801134Y-18020174D02*
X5820182Y-18029698D01*
X5820182Y-18029698D02*
X5829705Y-18039222D01*
X5829705Y-18039222D02*
X5839229Y-18058270D01*
X5839229Y-18058270D02*
X5839229Y-18105889D01*
X5839229Y-18105889D02*
X5829705Y-18124936D01*
X5829705Y-18124936D02*
X5820182Y-18134460D01*
X5820182Y-18134460D02*
X5801134Y-18143984D01*
X5801134Y-18143984D02*
X5753515Y-18143984D01*
X5753515Y-18143984D02*
X5734467Y-18134460D01*
X5734467Y-18134460D02*
X5724943Y-18124936D01*
X5963039Y-17943984D02*
X5982086Y-17943984D01*
X5982086Y-17943984D02*
X6001134Y-17953508D01*
X6001134Y-17953508D02*
X6010658Y-17963031D01*
X6010658Y-17963031D02*
X6020182Y-17982079D01*
X6020182Y-17982079D02*
X6029705Y-18020174D01*
X6029705Y-18020174D02*
X6029705Y-18067793D01*
X6029705Y-18067793D02*
X6020182Y-18105889D01*
X6020182Y-18105889D02*
X6010658Y-18124936D01*
X6010658Y-18124936D02*
X6001134Y-18134460D01*
X6001134Y-18134460D02*
X5982086Y-18143984D01*
X5982086Y-18143984D02*
X5963039Y-18143984D01*
X5963039Y-18143984D02*
X5943991Y-18134460D01*
X5943991Y-18134460D02*
X5934467Y-18124936D01*
X5934467Y-18124936D02*
X5924943Y-18105889D01*
X5924943Y-18105889D02*
X5915420Y-18067793D01*
X5915420Y-18067793D02*
X5915420Y-18020174D01*
X5915420Y-18020174D02*
X5924943Y-17982079D01*
X5924943Y-17982079D02*
X5934467Y-17963031D01*
X5934467Y-17963031D02*
X5943991Y-17953508D01*
X5943991Y-17953508D02*
X5963039Y-17943984D01*
X6115420Y-18143984D02*
X6115420Y-18010650D01*
X6115420Y-18029698D02*
X6124943Y-18020174D01*
X6124943Y-18020174D02*
X6143991Y-18010650D01*
X6143991Y-18010650D02*
X6172563Y-18010650D01*
X6172563Y-18010650D02*
X6191610Y-18020174D01*
X6191610Y-18020174D02*
X6201134Y-18039222D01*
X6201134Y-18039222D02*
X6201134Y-18143984D01*
X6201134Y-18039222D02*
X6210658Y-18020174D01*
X6210658Y-18020174D02*
X6229705Y-18010650D01*
X6229705Y-18010650D02*
X6258277Y-18010650D01*
X6258277Y-18010650D02*
X6277324Y-18020174D01*
X6277324Y-18020174D02*
X6286848Y-18039222D01*
X6286848Y-18039222D02*
X6286848Y-18143984D01*
X6382086Y-18143984D02*
X6382086Y-18010650D01*
X6382086Y-18029698D02*
X6391610Y-18020174D01*
X6391610Y-18020174D02*
X6410658Y-18010650D01*
X6410658Y-18010650D02*
X6439229Y-18010650D01*
X6439229Y-18010650D02*
X6458277Y-18020174D01*
X6458277Y-18020174D02*
X6467801Y-18039222D01*
X6467801Y-18039222D02*
X6467801Y-18143984D01*
X6467801Y-18039222D02*
X6477324Y-18020174D01*
X6477324Y-18020174D02*
X6496372Y-18010650D01*
X6496372Y-18010650D02*
X6524943Y-18010650D01*
X6524943Y-18010650D02*
X6543991Y-18020174D01*
X6543991Y-18020174D02*
X6553515Y-18039222D01*
X6553515Y-18039222D02*
X6553515Y-18143984D01*
X6943991Y-17934460D02*
X6772563Y-18191603D01*
X7201134Y-17943984D02*
X7220182Y-17943984D01*
X7220182Y-17943984D02*
X7239229Y-17953508D01*
X7239229Y-17953508D02*
X7248753Y-17963031D01*
X7248753Y-17963031D02*
X7258277Y-17982079D01*
X7258277Y-17982079D02*
X7267801Y-18020174D01*
X7267801Y-18020174D02*
X7267801Y-18067793D01*
X7267801Y-18067793D02*
X7258277Y-18105889D01*
X7258277Y-18105889D02*
X7248753Y-18124936D01*
X7248753Y-18124936D02*
X7239229Y-18134460D01*
X7239229Y-18134460D02*
X7220182Y-18143984D01*
X7220182Y-18143984D02*
X7201134Y-18143984D01*
X7201134Y-18143984D02*
X7182086Y-18134460D01*
X7182086Y-18134460D02*
X7172563Y-18124936D01*
X7172563Y-18124936D02*
X7163039Y-18105889D01*
X7163039Y-18105889D02*
X7153515Y-18067793D01*
X7153515Y-18067793D02*
X7153515Y-18020174D01*
X7153515Y-18020174D02*
X7163039Y-17982079D01*
X7163039Y-17982079D02*
X7172563Y-17963031D01*
X7172563Y-17963031D02*
X7182086Y-17953508D01*
X7182086Y-17953508D02*
X7201134Y-17943984D01*
X7353515Y-18124936D02*
X7363039Y-18134460D01*
X7363039Y-18134460D02*
X7353515Y-18143984D01*
X7353515Y-18143984D02*
X7343991Y-18134460D01*
X7343991Y-18134460D02*
X7353515Y-18124936D01*
X7353515Y-18124936D02*
X7353515Y-18143984D01*
X7553515Y-18143984D02*
X7439229Y-18143984D01*
X7496372Y-18143984D02*
X7496372Y-17943984D01*
X7496372Y-17943984D02*
X7477325Y-17972555D01*
X7477325Y-17972555D02*
X7458277Y-17991603D01*
X7458277Y-17991603D02*
X7439229Y-18001127D01*
X7648753Y-18143984D02*
X7686848Y-18143984D01*
X7686848Y-18143984D02*
X7705896Y-18134460D01*
X7705896Y-18134460D02*
X7715420Y-18124936D01*
X7715420Y-18124936D02*
X7734467Y-18096365D01*
X7734467Y-18096365D02*
X7743991Y-18058270D01*
X7743991Y-18058270D02*
X7743991Y-17982079D01*
X7743991Y-17982079D02*
X7734467Y-17963031D01*
X7734467Y-17963031D02*
X7724944Y-17953508D01*
X7724944Y-17953508D02*
X7705896Y-17943984D01*
X7705896Y-17943984D02*
X7667801Y-17943984D01*
X7667801Y-17943984D02*
X7648753Y-17953508D01*
X7648753Y-17953508D02*
X7639229Y-17963031D01*
X7639229Y-17963031D02*
X7629706Y-17982079D01*
X7629706Y-17982079D02*
X7629706Y-18029698D01*
X7629706Y-18029698D02*
X7639229Y-18048746D01*
X7639229Y-18048746D02*
X7648753Y-18058270D01*
X7648753Y-18058270D02*
X7667801Y-18067793D01*
X7667801Y-18067793D02*
X7705896Y-18067793D01*
X7705896Y-18067793D02*
X7724944Y-18058270D01*
X7724944Y-18058270D02*
X7734467Y-18048746D01*
X7734467Y-18048746D02*
X7743991Y-18029698D01*
X7858277Y-18029698D02*
X7839229Y-18020174D01*
X7839229Y-18020174D02*
X7829706Y-18010650D01*
X7829706Y-18010650D02*
X7820182Y-17991603D01*
X7820182Y-17991603D02*
X7820182Y-17982079D01*
X7820182Y-17982079D02*
X7829706Y-17963031D01*
X7829706Y-17963031D02*
X7839229Y-17953508D01*
X7839229Y-17953508D02*
X7858277Y-17943984D01*
X7858277Y-17943984D02*
X7896372Y-17943984D01*
X7896372Y-17943984D02*
X7915420Y-17953508D01*
X7915420Y-17953508D02*
X7924944Y-17963031D01*
X7924944Y-17963031D02*
X7934467Y-17982079D01*
X7934467Y-17982079D02*
X7934467Y-17991603D01*
X7934467Y-17991603D02*
X7924944Y-18010650D01*
X7924944Y-18010650D02*
X7915420Y-18020174D01*
X7915420Y-18020174D02*
X7896372Y-18029698D01*
X7896372Y-18029698D02*
X7858277Y-18029698D01*
X7858277Y-18029698D02*
X7839229Y-18039222D01*
X7839229Y-18039222D02*
X7829706Y-18048746D01*
X7829706Y-18048746D02*
X7820182Y-18067793D01*
X7820182Y-18067793D02*
X7820182Y-18105889D01*
X7820182Y-18105889D02*
X7829706Y-18124936D01*
X7829706Y-18124936D02*
X7839229Y-18134460D01*
X7839229Y-18134460D02*
X7858277Y-18143984D01*
X7858277Y-18143984D02*
X7896372Y-18143984D01*
X7896372Y-18143984D02*
X7915420Y-18134460D01*
X7915420Y-18134460D02*
X7924944Y-18124936D01*
X7924944Y-18124936D02*
X7934467Y-18105889D01*
X7934467Y-18105889D02*
X7934467Y-18067793D01*
X7934467Y-18067793D02*
X7924944Y-18048746D01*
X7924944Y-18048746D02*
X7915420Y-18039222D01*
X7915420Y-18039222D02*
X7896372Y-18029698D01*
X8048753Y-18029698D02*
X8029706Y-18020174D01*
X8029706Y-18020174D02*
X8020182Y-18010650D01*
X8020182Y-18010650D02*
X8010658Y-17991603D01*
X8010658Y-17991603D02*
X8010658Y-17982079D01*
X8010658Y-17982079D02*
X8020182Y-17963031D01*
X8020182Y-17963031D02*
X8029706Y-17953508D01*
X8029706Y-17953508D02*
X8048753Y-17943984D01*
X8048753Y-17943984D02*
X8086848Y-17943984D01*
X8086848Y-17943984D02*
X8105896Y-17953508D01*
X8105896Y-17953508D02*
X8115420Y-17963031D01*
X8115420Y-17963031D02*
X8124944Y-17982079D01*
X8124944Y-17982079D02*
X8124944Y-17991603D01*
X8124944Y-17991603D02*
X8115420Y-18010650D01*
X8115420Y-18010650D02*
X8105896Y-18020174D01*
X8105896Y-18020174D02*
X8086848Y-18029698D01*
X8086848Y-18029698D02*
X8048753Y-18029698D01*
X8048753Y-18029698D02*
X8029706Y-18039222D01*
X8029706Y-18039222D02*
X8020182Y-18048746D01*
X8020182Y-18048746D02*
X8010658Y-18067793D01*
X8010658Y-18067793D02*
X8010658Y-18105889D01*
X8010658Y-18105889D02*
X8020182Y-18124936D01*
X8020182Y-18124936D02*
X8029706Y-18134460D01*
X8029706Y-18134460D02*
X8048753Y-18143984D01*
X8048753Y-18143984D02*
X8086848Y-18143984D01*
X8086848Y-18143984D02*
X8105896Y-18134460D01*
X8105896Y-18134460D02*
X8115420Y-18124936D01*
X8115420Y-18124936D02*
X8124944Y-18105889D01*
X8124944Y-18105889D02*
X8124944Y-18067793D01*
X8124944Y-18067793D02*
X8115420Y-18048746D01*
X8115420Y-18048746D02*
X8105896Y-18039222D01*
X8105896Y-18039222D02*
X8086848Y-18029698D01*
X8201134Y-17943984D02*
X8201134Y-17982079D01*
X8277325Y-17943984D02*
X8277325Y-17982079D01*
X8572563Y-18220174D02*
X8563039Y-18210650D01*
X8563039Y-18210650D02*
X8543991Y-18182079D01*
X8543991Y-18182079D02*
X8534468Y-18163031D01*
X8534468Y-18163031D02*
X8524944Y-18134460D01*
X8524944Y-18134460D02*
X8515420Y-18086841D01*
X8515420Y-18086841D02*
X8515420Y-18048746D01*
X8515420Y-18048746D02*
X8524944Y-18001127D01*
X8524944Y-18001127D02*
X8534468Y-17972555D01*
X8534468Y-17972555D02*
X8543991Y-17953508D01*
X8543991Y-17953508D02*
X8563039Y-17924936D01*
X8563039Y-17924936D02*
X8572563Y-17915412D01*
X8753515Y-18143984D02*
X8639230Y-18143984D01*
X8696372Y-18143984D02*
X8696372Y-17943984D01*
X8696372Y-17943984D02*
X8677325Y-17972555D01*
X8677325Y-17972555D02*
X8658277Y-17991603D01*
X8658277Y-17991603D02*
X8639230Y-18001127D01*
X8867801Y-18029698D02*
X8848753Y-18020174D01*
X8848753Y-18020174D02*
X8839230Y-18010650D01*
X8839230Y-18010650D02*
X8829706Y-17991603D01*
X8829706Y-17991603D02*
X8829706Y-17982079D01*
X8829706Y-17982079D02*
X8839230Y-17963031D01*
X8839230Y-17963031D02*
X8848753Y-17953508D01*
X8848753Y-17953508D02*
X8867801Y-17943984D01*
X8867801Y-17943984D02*
X8905896Y-17943984D01*
X8905896Y-17943984D02*
X8924944Y-17953508D01*
X8924944Y-17953508D02*
X8934468Y-17963031D01*
X8934468Y-17963031D02*
X8943991Y-17982079D01*
X8943991Y-17982079D02*
X8943991Y-17991603D01*
X8943991Y-17991603D02*
X8934468Y-18010650D01*
X8934468Y-18010650D02*
X8924944Y-18020174D01*
X8924944Y-18020174D02*
X8905896Y-18029698D01*
X8905896Y-18029698D02*
X8867801Y-18029698D01*
X8867801Y-18029698D02*
X8848753Y-18039222D01*
X8848753Y-18039222D02*
X8839230Y-18048746D01*
X8839230Y-18048746D02*
X8829706Y-18067793D01*
X8829706Y-18067793D02*
X8829706Y-18105889D01*
X8829706Y-18105889D02*
X8839230Y-18124936D01*
X8839230Y-18124936D02*
X8848753Y-18134460D01*
X8848753Y-18134460D02*
X8867801Y-18143984D01*
X8867801Y-18143984D02*
X8905896Y-18143984D01*
X8905896Y-18143984D02*
X8924944Y-18134460D01*
X8924944Y-18134460D02*
X8934468Y-18124936D01*
X8934468Y-18124936D02*
X8943991Y-18105889D01*
X8943991Y-18105889D02*
X8943991Y-18067793D01*
X8943991Y-18067793D02*
X8934468Y-18048746D01*
X8934468Y-18048746D02*
X8924944Y-18039222D01*
X8924944Y-18039222D02*
X8905896Y-18029698D01*
X9182087Y-18143984D02*
X9182087Y-17943984D01*
X9267801Y-18143984D02*
X9267801Y-18039222D01*
X9267801Y-18039222D02*
X9258277Y-18020174D01*
X9258277Y-18020174D02*
X9239230Y-18010650D01*
X9239230Y-18010650D02*
X9210658Y-18010650D01*
X9210658Y-18010650D02*
X9191611Y-18020174D01*
X9191611Y-18020174D02*
X9182087Y-18029698D01*
X9391611Y-18143984D02*
X9372563Y-18134460D01*
X9372563Y-18134460D02*
X9363039Y-18124936D01*
X9363039Y-18124936D02*
X9353515Y-18105889D01*
X9353515Y-18105889D02*
X9353515Y-18048746D01*
X9353515Y-18048746D02*
X9363039Y-18029698D01*
X9363039Y-18029698D02*
X9372563Y-18020174D01*
X9372563Y-18020174D02*
X9391611Y-18010650D01*
X9391611Y-18010650D02*
X9420182Y-18010650D01*
X9420182Y-18010650D02*
X9439230Y-18020174D01*
X9439230Y-18020174D02*
X9448753Y-18029698D01*
X9448753Y-18029698D02*
X9458277Y-18048746D01*
X9458277Y-18048746D02*
X9458277Y-18105889D01*
X9458277Y-18105889D02*
X9448753Y-18124936D01*
X9448753Y-18124936D02*
X9439230Y-18134460D01*
X9439230Y-18134460D02*
X9420182Y-18143984D01*
X9420182Y-18143984D02*
X9391611Y-18143984D01*
X9572563Y-18143984D02*
X9553515Y-18134460D01*
X9553515Y-18134460D02*
X9543992Y-18115412D01*
X9543992Y-18115412D02*
X9543992Y-17943984D01*
X9724944Y-18134460D02*
X9705896Y-18143984D01*
X9705896Y-18143984D02*
X9667801Y-18143984D01*
X9667801Y-18143984D02*
X9648753Y-18134460D01*
X9648753Y-18134460D02*
X9639230Y-18115412D01*
X9639230Y-18115412D02*
X9639230Y-18039222D01*
X9639230Y-18039222D02*
X9648753Y-18020174D01*
X9648753Y-18020174D02*
X9667801Y-18010650D01*
X9667801Y-18010650D02*
X9705896Y-18010650D01*
X9705896Y-18010650D02*
X9724944Y-18020174D01*
X9724944Y-18020174D02*
X9734468Y-18039222D01*
X9734468Y-18039222D02*
X9734468Y-18058270D01*
X9734468Y-18058270D02*
X9639230Y-18077317D01*
X9810658Y-18134460D02*
X9829706Y-18143984D01*
X9829706Y-18143984D02*
X9867801Y-18143984D01*
X9867801Y-18143984D02*
X9886849Y-18134460D01*
X9886849Y-18134460D02*
X9896373Y-18115412D01*
X9896373Y-18115412D02*
X9896373Y-18105889D01*
X9896373Y-18105889D02*
X9886849Y-18086841D01*
X9886849Y-18086841D02*
X9867801Y-18077317D01*
X9867801Y-18077317D02*
X9839230Y-18077317D01*
X9839230Y-18077317D02*
X9820182Y-18067793D01*
X9820182Y-18067793D02*
X9810658Y-18048746D01*
X9810658Y-18048746D02*
X9810658Y-18039222D01*
X9810658Y-18039222D02*
X9820182Y-18020174D01*
X9820182Y-18020174D02*
X9839230Y-18010650D01*
X9839230Y-18010650D02*
X9867801Y-18010650D01*
X9867801Y-18010650D02*
X9886849Y-18020174D01*
X9963039Y-18220174D02*
X9972563Y-18210650D01*
X9972563Y-18210650D02*
X9991611Y-18182079D01*
X9991611Y-18182079D02*
X10001134Y-18163031D01*
X10001134Y-18163031D02*
X10010658Y-18134460D01*
X10010658Y-18134460D02*
X10020182Y-18086841D01*
X10020182Y-18086841D02*
X10020182Y-18048746D01*
X10020182Y-18048746D02*
X10010658Y-18001127D01*
X10010658Y-18001127D02*
X10001134Y-17972555D01*
X10001134Y-17972555D02*
X9991611Y-17953508D01*
X9991611Y-17953508D02*
X9972563Y-17924936D01*
X9972563Y-17924936D02*
X9963039Y-17915412D01*
X10324944Y-18220174D02*
X10315420Y-18210650D01*
X10315420Y-18210650D02*
X10296373Y-18182079D01*
X10296373Y-18182079D02*
X10286849Y-18163031D01*
X10286849Y-18163031D02*
X10277325Y-18134460D01*
X10277325Y-18134460D02*
X10267801Y-18086841D01*
X10267801Y-18086841D02*
X10267801Y-18048746D01*
X10267801Y-18048746D02*
X10277325Y-18001127D01*
X10277325Y-18001127D02*
X10286849Y-17972555D01*
X10286849Y-17972555D02*
X10296373Y-17953508D01*
X10296373Y-17953508D02*
X10315420Y-17924936D01*
X10315420Y-17924936D02*
X10324944Y-17915412D01*
X10401134Y-18010650D02*
X10401134Y-18143984D01*
X10401134Y-18029698D02*
X10410658Y-18020174D01*
X10410658Y-18020174D02*
X10429706Y-18010650D01*
X10429706Y-18010650D02*
X10458277Y-18010650D01*
X10458277Y-18010650D02*
X10477325Y-18020174D01*
X10477325Y-18020174D02*
X10486849Y-18039222D01*
X10486849Y-18039222D02*
X10486849Y-18143984D01*
X10610658Y-18143984D02*
X10591611Y-18134460D01*
X10591611Y-18134460D02*
X10582087Y-18124936D01*
X10582087Y-18124936D02*
X10572563Y-18105889D01*
X10572563Y-18105889D02*
X10572563Y-18048746D01*
X10572563Y-18048746D02*
X10582087Y-18029698D01*
X10582087Y-18029698D02*
X10591611Y-18020174D01*
X10591611Y-18020174D02*
X10610658Y-18010650D01*
X10610658Y-18010650D02*
X10639230Y-18010650D01*
X10639230Y-18010650D02*
X10658277Y-18020174D01*
X10658277Y-18020174D02*
X10667801Y-18029698D01*
X10667801Y-18029698D02*
X10677325Y-18048746D01*
X10677325Y-18048746D02*
X10677325Y-18105889D01*
X10677325Y-18105889D02*
X10667801Y-18124936D01*
X10667801Y-18124936D02*
X10658277Y-18134460D01*
X10658277Y-18134460D02*
X10639230Y-18143984D01*
X10639230Y-18143984D02*
X10610658Y-18143984D01*
X10734468Y-18010650D02*
X10810658Y-18010650D01*
X10763039Y-17943984D02*
X10763039Y-18115412D01*
X10763039Y-18115412D02*
X10772563Y-18134460D01*
X10772563Y-18134460D02*
X10791611Y-18143984D01*
X10791611Y-18143984D02*
X10810658Y-18143984D01*
X11029706Y-18010650D02*
X11029706Y-18210650D01*
X11029706Y-18020174D02*
X11048754Y-18010650D01*
X11048754Y-18010650D02*
X11086849Y-18010650D01*
X11086849Y-18010650D02*
X11105896Y-18020174D01*
X11105896Y-18020174D02*
X11115420Y-18029698D01*
X11115420Y-18029698D02*
X11124944Y-18048746D01*
X11124944Y-18048746D02*
X11124944Y-18105889D01*
X11124944Y-18105889D02*
X11115420Y-18124936D01*
X11115420Y-18124936D02*
X11105896Y-18134460D01*
X11105896Y-18134460D02*
X11086849Y-18143984D01*
X11086849Y-18143984D02*
X11048754Y-18143984D01*
X11048754Y-18143984D02*
X11029706Y-18134460D01*
X11239230Y-18143984D02*
X11220182Y-18134460D01*
X11220182Y-18134460D02*
X11210658Y-18115412D01*
X11210658Y-18115412D02*
X11210658Y-17943984D01*
X11401134Y-18143984D02*
X11401134Y-18039222D01*
X11401134Y-18039222D02*
X11391611Y-18020174D01*
X11391611Y-18020174D02*
X11372563Y-18010650D01*
X11372563Y-18010650D02*
X11334468Y-18010650D01*
X11334468Y-18010650D02*
X11315420Y-18020174D01*
X11401134Y-18134460D02*
X11382087Y-18143984D01*
X11382087Y-18143984D02*
X11334468Y-18143984D01*
X11334468Y-18143984D02*
X11315420Y-18134460D01*
X11315420Y-18134460D02*
X11305896Y-18115412D01*
X11305896Y-18115412D02*
X11305896Y-18096365D01*
X11305896Y-18096365D02*
X11315420Y-18077317D01*
X11315420Y-18077317D02*
X11334468Y-18067793D01*
X11334468Y-18067793D02*
X11382087Y-18067793D01*
X11382087Y-18067793D02*
X11401134Y-18058270D01*
X11467801Y-18010650D02*
X11543992Y-18010650D01*
X11496373Y-17943984D02*
X11496373Y-18115412D01*
X11496373Y-18115412D02*
X11505896Y-18134460D01*
X11505896Y-18134460D02*
X11524944Y-18143984D01*
X11524944Y-18143984D02*
X11543992Y-18143984D01*
X11686849Y-18134460D02*
X11667801Y-18143984D01*
X11667801Y-18143984D02*
X11629706Y-18143984D01*
X11629706Y-18143984D02*
X11610658Y-18134460D01*
X11610658Y-18134460D02*
X11601134Y-18115412D01*
X11601134Y-18115412D02*
X11601134Y-18039222D01*
X11601134Y-18039222D02*
X11610658Y-18020174D01*
X11610658Y-18020174D02*
X11629706Y-18010650D01*
X11629706Y-18010650D02*
X11667801Y-18010650D01*
X11667801Y-18010650D02*
X11686849Y-18020174D01*
X11686849Y-18020174D02*
X11696373Y-18039222D01*
X11696373Y-18039222D02*
X11696373Y-18058270D01*
X11696373Y-18058270D02*
X11601134Y-18077317D01*
X11867801Y-18143984D02*
X11867801Y-17943984D01*
X11867801Y-18134460D02*
X11848754Y-18143984D01*
X11848754Y-18143984D02*
X11810658Y-18143984D01*
X11810658Y-18143984D02*
X11791611Y-18134460D01*
X11791611Y-18134460D02*
X11782087Y-18124936D01*
X11782087Y-18124936D02*
X11772563Y-18105889D01*
X11772563Y-18105889D02*
X11772563Y-18048746D01*
X11772563Y-18048746D02*
X11782087Y-18029698D01*
X11782087Y-18029698D02*
X11791611Y-18020174D01*
X11791611Y-18020174D02*
X11810658Y-18010650D01*
X11810658Y-18010650D02*
X11848754Y-18010650D01*
X11848754Y-18010650D02*
X11867801Y-18020174D01*
X11943992Y-18220174D02*
X11953515Y-18210650D01*
X11953515Y-18210650D02*
X11972563Y-18182079D01*
X11972563Y-18182079D02*
X11982087Y-18163031D01*
X11982087Y-18163031D02*
X11991611Y-18134460D01*
X11991611Y-18134460D02*
X12001134Y-18086841D01*
X12001134Y-18086841D02*
X12001134Y-18048746D01*
X12001134Y-18048746D02*
X11991611Y-18001127D01*
X11991611Y-18001127D02*
X11982087Y-17972555D01*
X11982087Y-17972555D02*
X11972563Y-17953508D01*
X11972563Y-17953508D02*
X11953515Y-17924936D01*
X11953515Y-17924936D02*
X11943992Y-17915412D01*
X4897500Y-18472500D02*
X4997500Y-18372500D01*
X4897500Y-18272500D01*
X4797500Y-18372500D01*
X4897500Y-18472500D01*
X5343991Y-18263984D02*
X5305896Y-18263984D01*
X5305896Y-18263984D02*
X5286848Y-18273508D01*
X5286848Y-18273508D02*
X5277324Y-18283031D01*
X5277324Y-18283031D02*
X5258277Y-18311603D01*
X5258277Y-18311603D02*
X5248753Y-18349698D01*
X5248753Y-18349698D02*
X5248753Y-18425889D01*
X5248753Y-18425889D02*
X5258277Y-18444936D01*
X5258277Y-18444936D02*
X5267801Y-18454460D01*
X5267801Y-18454460D02*
X5286848Y-18463984D01*
X5286848Y-18463984D02*
X5324944Y-18463984D01*
X5324944Y-18463984D02*
X5343991Y-18454460D01*
X5343991Y-18454460D02*
X5353515Y-18444936D01*
X5353515Y-18444936D02*
X5363039Y-18425889D01*
X5363039Y-18425889D02*
X5363039Y-18378270D01*
X5363039Y-18378270D02*
X5353515Y-18359222D01*
X5353515Y-18359222D02*
X5343991Y-18349698D01*
X5343991Y-18349698D02*
X5324944Y-18340174D01*
X5324944Y-18340174D02*
X5286848Y-18340174D01*
X5286848Y-18340174D02*
X5267801Y-18349698D01*
X5267801Y-18349698D02*
X5258277Y-18359222D01*
X5258277Y-18359222D02*
X5248753Y-18378270D01*
X5448753Y-18444936D02*
X5458277Y-18454460D01*
X5458277Y-18454460D02*
X5448753Y-18463984D01*
X5448753Y-18463984D02*
X5439229Y-18454460D01*
X5439229Y-18454460D02*
X5448753Y-18444936D01*
X5448753Y-18444936D02*
X5448753Y-18463984D01*
X5629705Y-18330650D02*
X5629705Y-18463984D01*
X5582086Y-18254460D02*
X5534467Y-18397317D01*
X5534467Y-18397317D02*
X5658277Y-18397317D01*
X5772562Y-18263984D02*
X5791610Y-18263984D01*
X5791610Y-18263984D02*
X5810658Y-18273508D01*
X5810658Y-18273508D02*
X5820182Y-18283031D01*
X5820182Y-18283031D02*
X5829705Y-18302079D01*
X5829705Y-18302079D02*
X5839229Y-18340174D01*
X5839229Y-18340174D02*
X5839229Y-18387793D01*
X5839229Y-18387793D02*
X5829705Y-18425889D01*
X5829705Y-18425889D02*
X5820182Y-18444936D01*
X5820182Y-18444936D02*
X5810658Y-18454460D01*
X5810658Y-18454460D02*
X5791610Y-18463984D01*
X5791610Y-18463984D02*
X5772562Y-18463984D01*
X5772562Y-18463984D02*
X5753515Y-18454460D01*
X5753515Y-18454460D02*
X5743991Y-18444936D01*
X5743991Y-18444936D02*
X5734467Y-18425889D01*
X5734467Y-18425889D02*
X5724943Y-18387793D01*
X5724943Y-18387793D02*
X5724943Y-18340174D01*
X5724943Y-18340174D02*
X5734467Y-18302079D01*
X5734467Y-18302079D02*
X5743991Y-18283031D01*
X5743991Y-18283031D02*
X5753515Y-18273508D01*
X5753515Y-18273508D02*
X5772562Y-18263984D01*
X5963039Y-18263984D02*
X5982086Y-18263984D01*
X5982086Y-18263984D02*
X6001134Y-18273508D01*
X6001134Y-18273508D02*
X6010658Y-18283031D01*
X6010658Y-18283031D02*
X6020182Y-18302079D01*
X6020182Y-18302079D02*
X6029705Y-18340174D01*
X6029705Y-18340174D02*
X6029705Y-18387793D01*
X6029705Y-18387793D02*
X6020182Y-18425889D01*
X6020182Y-18425889D02*
X6010658Y-18444936D01*
X6010658Y-18444936D02*
X6001134Y-18454460D01*
X6001134Y-18454460D02*
X5982086Y-18463984D01*
X5982086Y-18463984D02*
X5963039Y-18463984D01*
X5963039Y-18463984D02*
X5943991Y-18454460D01*
X5943991Y-18454460D02*
X5934467Y-18444936D01*
X5934467Y-18444936D02*
X5924943Y-18425889D01*
X5924943Y-18425889D02*
X5915420Y-18387793D01*
X5915420Y-18387793D02*
X5915420Y-18340174D01*
X5915420Y-18340174D02*
X5924943Y-18302079D01*
X5924943Y-18302079D02*
X5934467Y-18283031D01*
X5934467Y-18283031D02*
X5943991Y-18273508D01*
X5943991Y-18273508D02*
X5963039Y-18263984D01*
X6115420Y-18463984D02*
X6115420Y-18330650D01*
X6115420Y-18349698D02*
X6124943Y-18340174D01*
X6124943Y-18340174D02*
X6143991Y-18330650D01*
X6143991Y-18330650D02*
X6172563Y-18330650D01*
X6172563Y-18330650D02*
X6191610Y-18340174D01*
X6191610Y-18340174D02*
X6201134Y-18359222D01*
X6201134Y-18359222D02*
X6201134Y-18463984D01*
X6201134Y-18359222D02*
X6210658Y-18340174D01*
X6210658Y-18340174D02*
X6229705Y-18330650D01*
X6229705Y-18330650D02*
X6258277Y-18330650D01*
X6258277Y-18330650D02*
X6277324Y-18340174D01*
X6277324Y-18340174D02*
X6286848Y-18359222D01*
X6286848Y-18359222D02*
X6286848Y-18463984D01*
X6382086Y-18463984D02*
X6382086Y-18330650D01*
X6382086Y-18349698D02*
X6391610Y-18340174D01*
X6391610Y-18340174D02*
X6410658Y-18330650D01*
X6410658Y-18330650D02*
X6439229Y-18330650D01*
X6439229Y-18330650D02*
X6458277Y-18340174D01*
X6458277Y-18340174D02*
X6467801Y-18359222D01*
X6467801Y-18359222D02*
X6467801Y-18463984D01*
X6467801Y-18359222D02*
X6477324Y-18340174D01*
X6477324Y-18340174D02*
X6496372Y-18330650D01*
X6496372Y-18330650D02*
X6524943Y-18330650D01*
X6524943Y-18330650D02*
X6543991Y-18340174D01*
X6543991Y-18340174D02*
X6553515Y-18359222D01*
X6553515Y-18359222D02*
X6553515Y-18463984D01*
X6943991Y-18254460D02*
X6772563Y-18511603D01*
X7201134Y-18263984D02*
X7220182Y-18263984D01*
X7220182Y-18263984D02*
X7239229Y-18273508D01*
X7239229Y-18273508D02*
X7248753Y-18283031D01*
X7248753Y-18283031D02*
X7258277Y-18302079D01*
X7258277Y-18302079D02*
X7267801Y-18340174D01*
X7267801Y-18340174D02*
X7267801Y-18387793D01*
X7267801Y-18387793D02*
X7258277Y-18425889D01*
X7258277Y-18425889D02*
X7248753Y-18444936D01*
X7248753Y-18444936D02*
X7239229Y-18454460D01*
X7239229Y-18454460D02*
X7220182Y-18463984D01*
X7220182Y-18463984D02*
X7201134Y-18463984D01*
X7201134Y-18463984D02*
X7182086Y-18454460D01*
X7182086Y-18454460D02*
X7172563Y-18444936D01*
X7172563Y-18444936D02*
X7163039Y-18425889D01*
X7163039Y-18425889D02*
X7153515Y-18387793D01*
X7153515Y-18387793D02*
X7153515Y-18340174D01*
X7153515Y-18340174D02*
X7163039Y-18302079D01*
X7163039Y-18302079D02*
X7172563Y-18283031D01*
X7172563Y-18283031D02*
X7182086Y-18273508D01*
X7182086Y-18273508D02*
X7201134Y-18263984D01*
X7353515Y-18444936D02*
X7363039Y-18454460D01*
X7363039Y-18454460D02*
X7353515Y-18463984D01*
X7353515Y-18463984D02*
X7343991Y-18454460D01*
X7343991Y-18454460D02*
X7353515Y-18444936D01*
X7353515Y-18444936D02*
X7353515Y-18463984D01*
X7439229Y-18283031D02*
X7448753Y-18273508D01*
X7448753Y-18273508D02*
X7467801Y-18263984D01*
X7467801Y-18263984D02*
X7515420Y-18263984D01*
X7515420Y-18263984D02*
X7534467Y-18273508D01*
X7534467Y-18273508D02*
X7543991Y-18283031D01*
X7543991Y-18283031D02*
X7553515Y-18302079D01*
X7553515Y-18302079D02*
X7553515Y-18321127D01*
X7553515Y-18321127D02*
X7543991Y-18349698D01*
X7543991Y-18349698D02*
X7429706Y-18463984D01*
X7429706Y-18463984D02*
X7553515Y-18463984D01*
X7734467Y-18263984D02*
X7639229Y-18263984D01*
X7639229Y-18263984D02*
X7629706Y-18359222D01*
X7629706Y-18359222D02*
X7639229Y-18349698D01*
X7639229Y-18349698D02*
X7658277Y-18340174D01*
X7658277Y-18340174D02*
X7705896Y-18340174D01*
X7705896Y-18340174D02*
X7724944Y-18349698D01*
X7724944Y-18349698D02*
X7734467Y-18359222D01*
X7734467Y-18359222D02*
X7743991Y-18378270D01*
X7743991Y-18378270D02*
X7743991Y-18425889D01*
X7743991Y-18425889D02*
X7734467Y-18444936D01*
X7734467Y-18444936D02*
X7724944Y-18454460D01*
X7724944Y-18454460D02*
X7705896Y-18463984D01*
X7705896Y-18463984D02*
X7658277Y-18463984D01*
X7658277Y-18463984D02*
X7639229Y-18454460D01*
X7639229Y-18454460D02*
X7629706Y-18444936D01*
X7820182Y-18283031D02*
X7829706Y-18273508D01*
X7829706Y-18273508D02*
X7848753Y-18263984D01*
X7848753Y-18263984D02*
X7896372Y-18263984D01*
X7896372Y-18263984D02*
X7915420Y-18273508D01*
X7915420Y-18273508D02*
X7924944Y-18283031D01*
X7924944Y-18283031D02*
X7934467Y-18302079D01*
X7934467Y-18302079D02*
X7934467Y-18321127D01*
X7934467Y-18321127D02*
X7924944Y-18349698D01*
X7924944Y-18349698D02*
X7810658Y-18463984D01*
X7810658Y-18463984D02*
X7934467Y-18463984D01*
X8058277Y-18263984D02*
X8077325Y-18263984D01*
X8077325Y-18263984D02*
X8096372Y-18273508D01*
X8096372Y-18273508D02*
X8105896Y-18283031D01*
X8105896Y-18283031D02*
X8115420Y-18302079D01*
X8115420Y-18302079D02*
X8124944Y-18340174D01*
X8124944Y-18340174D02*
X8124944Y-18387793D01*
X8124944Y-18387793D02*
X8115420Y-18425889D01*
X8115420Y-18425889D02*
X8105896Y-18444936D01*
X8105896Y-18444936D02*
X8096372Y-18454460D01*
X8096372Y-18454460D02*
X8077325Y-18463984D01*
X8077325Y-18463984D02*
X8058277Y-18463984D01*
X8058277Y-18463984D02*
X8039229Y-18454460D01*
X8039229Y-18454460D02*
X8029706Y-18444936D01*
X8029706Y-18444936D02*
X8020182Y-18425889D01*
X8020182Y-18425889D02*
X8010658Y-18387793D01*
X8010658Y-18387793D02*
X8010658Y-18340174D01*
X8010658Y-18340174D02*
X8020182Y-18302079D01*
X8020182Y-18302079D02*
X8029706Y-18283031D01*
X8029706Y-18283031D02*
X8039229Y-18273508D01*
X8039229Y-18273508D02*
X8058277Y-18263984D01*
X8201134Y-18263984D02*
X8201134Y-18302079D01*
X8277325Y-18263984D02*
X8277325Y-18302079D01*
X8572563Y-18540174D02*
X8563039Y-18530650D01*
X8563039Y-18530650D02*
X8543991Y-18502079D01*
X8543991Y-18502079D02*
X8534468Y-18483031D01*
X8534468Y-18483031D02*
X8524944Y-18454460D01*
X8524944Y-18454460D02*
X8515420Y-18406841D01*
X8515420Y-18406841D02*
X8515420Y-18368746D01*
X8515420Y-18368746D02*
X8524944Y-18321127D01*
X8524944Y-18321127D02*
X8534468Y-18292555D01*
X8534468Y-18292555D02*
X8543991Y-18273508D01*
X8543991Y-18273508D02*
X8563039Y-18244936D01*
X8563039Y-18244936D02*
X8572563Y-18235412D01*
X8629706Y-18263984D02*
X8763039Y-18263984D01*
X8763039Y-18263984D02*
X8677325Y-18463984D01*
X8991611Y-18463984D02*
X8991611Y-18263984D01*
X9077325Y-18463984D02*
X9077325Y-18359222D01*
X9077325Y-18359222D02*
X9067801Y-18340174D01*
X9067801Y-18340174D02*
X9048753Y-18330650D01*
X9048753Y-18330650D02*
X9020182Y-18330650D01*
X9020182Y-18330650D02*
X9001134Y-18340174D01*
X9001134Y-18340174D02*
X8991611Y-18349698D01*
X9201134Y-18463984D02*
X9182087Y-18454460D01*
X9182087Y-18454460D02*
X9172563Y-18444936D01*
X9172563Y-18444936D02*
X9163039Y-18425889D01*
X9163039Y-18425889D02*
X9163039Y-18368746D01*
X9163039Y-18368746D02*
X9172563Y-18349698D01*
X9172563Y-18349698D02*
X9182087Y-18340174D01*
X9182087Y-18340174D02*
X9201134Y-18330650D01*
X9201134Y-18330650D02*
X9229706Y-18330650D01*
X9229706Y-18330650D02*
X9248753Y-18340174D01*
X9248753Y-18340174D02*
X9258277Y-18349698D01*
X9258277Y-18349698D02*
X9267801Y-18368746D01*
X9267801Y-18368746D02*
X9267801Y-18425889D01*
X9267801Y-18425889D02*
X9258277Y-18444936D01*
X9258277Y-18444936D02*
X9248753Y-18454460D01*
X9248753Y-18454460D02*
X9229706Y-18463984D01*
X9229706Y-18463984D02*
X9201134Y-18463984D01*
X9382087Y-18463984D02*
X9363039Y-18454460D01*
X9363039Y-18454460D02*
X9353515Y-18435412D01*
X9353515Y-18435412D02*
X9353515Y-18263984D01*
X9534468Y-18454460D02*
X9515420Y-18463984D01*
X9515420Y-18463984D02*
X9477325Y-18463984D01*
X9477325Y-18463984D02*
X9458277Y-18454460D01*
X9458277Y-18454460D02*
X9448753Y-18435412D01*
X9448753Y-18435412D02*
X9448753Y-18359222D01*
X9448753Y-18359222D02*
X9458277Y-18340174D01*
X9458277Y-18340174D02*
X9477325Y-18330650D01*
X9477325Y-18330650D02*
X9515420Y-18330650D01*
X9515420Y-18330650D02*
X9534468Y-18340174D01*
X9534468Y-18340174D02*
X9543992Y-18359222D01*
X9543992Y-18359222D02*
X9543992Y-18378270D01*
X9543992Y-18378270D02*
X9448753Y-18397317D01*
X9620182Y-18454460D02*
X9639230Y-18463984D01*
X9639230Y-18463984D02*
X9677325Y-18463984D01*
X9677325Y-18463984D02*
X9696373Y-18454460D01*
X9696373Y-18454460D02*
X9705896Y-18435412D01*
X9705896Y-18435412D02*
X9705896Y-18425889D01*
X9705896Y-18425889D02*
X9696373Y-18406841D01*
X9696373Y-18406841D02*
X9677325Y-18397317D01*
X9677325Y-18397317D02*
X9648753Y-18397317D01*
X9648753Y-18397317D02*
X9629706Y-18387793D01*
X9629706Y-18387793D02*
X9620182Y-18368746D01*
X9620182Y-18368746D02*
X9620182Y-18359222D01*
X9620182Y-18359222D02*
X9629706Y-18340174D01*
X9629706Y-18340174D02*
X9648753Y-18330650D01*
X9648753Y-18330650D02*
X9677325Y-18330650D01*
X9677325Y-18330650D02*
X9696373Y-18340174D01*
X9772563Y-18540174D02*
X9782087Y-18530650D01*
X9782087Y-18530650D02*
X9801134Y-18502079D01*
X9801134Y-18502079D02*
X9810658Y-18483031D01*
X9810658Y-18483031D02*
X9820182Y-18454460D01*
X9820182Y-18454460D02*
X9829706Y-18406841D01*
X9829706Y-18406841D02*
X9829706Y-18368746D01*
X9829706Y-18368746D02*
X9820182Y-18321127D01*
X9820182Y-18321127D02*
X9810658Y-18292555D01*
X9810658Y-18292555D02*
X9801134Y-18273508D01*
X9801134Y-18273508D02*
X9782087Y-18244936D01*
X9782087Y-18244936D02*
X9772563Y-18235412D01*
X10134468Y-18540174D02*
X10124944Y-18530650D01*
X10124944Y-18530650D02*
X10105896Y-18502079D01*
X10105896Y-18502079D02*
X10096373Y-18483031D01*
X10096373Y-18483031D02*
X10086849Y-18454460D01*
X10086849Y-18454460D02*
X10077325Y-18406841D01*
X10077325Y-18406841D02*
X10077325Y-18368746D01*
X10077325Y-18368746D02*
X10086849Y-18321127D01*
X10086849Y-18321127D02*
X10096373Y-18292555D01*
X10096373Y-18292555D02*
X10105896Y-18273508D01*
X10105896Y-18273508D02*
X10124944Y-18244936D01*
X10124944Y-18244936D02*
X10134468Y-18235412D01*
X10210658Y-18330650D02*
X10210658Y-18463984D01*
X10210658Y-18349698D02*
X10220182Y-18340174D01*
X10220182Y-18340174D02*
X10239230Y-18330650D01*
X10239230Y-18330650D02*
X10267801Y-18330650D01*
X10267801Y-18330650D02*
X10286849Y-18340174D01*
X10286849Y-18340174D02*
X10296373Y-18359222D01*
X10296373Y-18359222D02*
X10296373Y-18463984D01*
X10420182Y-18463984D02*
X10401134Y-18454460D01*
X10401134Y-18454460D02*
X10391611Y-18444936D01*
X10391611Y-18444936D02*
X10382087Y-18425889D01*
X10382087Y-18425889D02*
X10382087Y-18368746D01*
X10382087Y-18368746D02*
X10391611Y-18349698D01*
X10391611Y-18349698D02*
X10401134Y-18340174D01*
X10401134Y-18340174D02*
X10420182Y-18330650D01*
X10420182Y-18330650D02*
X10448754Y-18330650D01*
X10448754Y-18330650D02*
X10467801Y-18340174D01*
X10467801Y-18340174D02*
X10477325Y-18349698D01*
X10477325Y-18349698D02*
X10486849Y-18368746D01*
X10486849Y-18368746D02*
X10486849Y-18425889D01*
X10486849Y-18425889D02*
X10477325Y-18444936D01*
X10477325Y-18444936D02*
X10467801Y-18454460D01*
X10467801Y-18454460D02*
X10448754Y-18463984D01*
X10448754Y-18463984D02*
X10420182Y-18463984D01*
X10543992Y-18330650D02*
X10620182Y-18330650D01*
X10572563Y-18263984D02*
X10572563Y-18435412D01*
X10572563Y-18435412D02*
X10582087Y-18454460D01*
X10582087Y-18454460D02*
X10601134Y-18463984D01*
X10601134Y-18463984D02*
X10620182Y-18463984D01*
X10839230Y-18330650D02*
X10839230Y-18530650D01*
X10839230Y-18340174D02*
X10858277Y-18330650D01*
X10858277Y-18330650D02*
X10896373Y-18330650D01*
X10896373Y-18330650D02*
X10915420Y-18340174D01*
X10915420Y-18340174D02*
X10924944Y-18349698D01*
X10924944Y-18349698D02*
X10934468Y-18368746D01*
X10934468Y-18368746D02*
X10934468Y-18425889D01*
X10934468Y-18425889D02*
X10924944Y-18444936D01*
X10924944Y-18444936D02*
X10915420Y-18454460D01*
X10915420Y-18454460D02*
X10896373Y-18463984D01*
X10896373Y-18463984D02*
X10858277Y-18463984D01*
X10858277Y-18463984D02*
X10839230Y-18454460D01*
X11048754Y-18463984D02*
X11029706Y-18454460D01*
X11029706Y-18454460D02*
X11020182Y-18435412D01*
X11020182Y-18435412D02*
X11020182Y-18263984D01*
X11210658Y-18463984D02*
X11210658Y-18359222D01*
X11210658Y-18359222D02*
X11201134Y-18340174D01*
X11201134Y-18340174D02*
X11182087Y-18330650D01*
X11182087Y-18330650D02*
X11143992Y-18330650D01*
X11143992Y-18330650D02*
X11124944Y-18340174D01*
X11210658Y-18454460D02*
X11191611Y-18463984D01*
X11191611Y-18463984D02*
X11143992Y-18463984D01*
X11143992Y-18463984D02*
X11124944Y-18454460D01*
X11124944Y-18454460D02*
X11115420Y-18435412D01*
X11115420Y-18435412D02*
X11115420Y-18416365D01*
X11115420Y-18416365D02*
X11124944Y-18397317D01*
X11124944Y-18397317D02*
X11143992Y-18387793D01*
X11143992Y-18387793D02*
X11191611Y-18387793D01*
X11191611Y-18387793D02*
X11210658Y-18378270D01*
X11277325Y-18330650D02*
X11353515Y-18330650D01*
X11305896Y-18263984D02*
X11305896Y-18435412D01*
X11305896Y-18435412D02*
X11315420Y-18454460D01*
X11315420Y-18454460D02*
X11334468Y-18463984D01*
X11334468Y-18463984D02*
X11353515Y-18463984D01*
X11496373Y-18454460D02*
X11477325Y-18463984D01*
X11477325Y-18463984D02*
X11439230Y-18463984D01*
X11439230Y-18463984D02*
X11420182Y-18454460D01*
X11420182Y-18454460D02*
X11410658Y-18435412D01*
X11410658Y-18435412D02*
X11410658Y-18359222D01*
X11410658Y-18359222D02*
X11420182Y-18340174D01*
X11420182Y-18340174D02*
X11439230Y-18330650D01*
X11439230Y-18330650D02*
X11477325Y-18330650D01*
X11477325Y-18330650D02*
X11496373Y-18340174D01*
X11496373Y-18340174D02*
X11505896Y-18359222D01*
X11505896Y-18359222D02*
X11505896Y-18378270D01*
X11505896Y-18378270D02*
X11410658Y-18397317D01*
X11677325Y-18463984D02*
X11677325Y-18263984D01*
X11677325Y-18454460D02*
X11658277Y-18463984D01*
X11658277Y-18463984D02*
X11620182Y-18463984D01*
X11620182Y-18463984D02*
X11601134Y-18454460D01*
X11601134Y-18454460D02*
X11591611Y-18444936D01*
X11591611Y-18444936D02*
X11582087Y-18425889D01*
X11582087Y-18425889D02*
X11582087Y-18368746D01*
X11582087Y-18368746D02*
X11591611Y-18349698D01*
X11591611Y-18349698D02*
X11601134Y-18340174D01*
X11601134Y-18340174D02*
X11620182Y-18330650D01*
X11620182Y-18330650D02*
X11658277Y-18330650D01*
X11658277Y-18330650D02*
X11677325Y-18340174D01*
X11753515Y-18540174D02*
X11763039Y-18530650D01*
X11763039Y-18530650D02*
X11782087Y-18502079D01*
X11782087Y-18502079D02*
X11791611Y-18483031D01*
X11791611Y-18483031D02*
X11801134Y-18454460D01*
X11801134Y-18454460D02*
X11810658Y-18406841D01*
X11810658Y-18406841D02*
X11810658Y-18368746D01*
X11810658Y-18368746D02*
X11801134Y-18321127D01*
X11801134Y-18321127D02*
X11791611Y-18292555D01*
X11791611Y-18292555D02*
X11782087Y-18273508D01*
X11782087Y-18273508D02*
X11763039Y-18244936D01*
X11763039Y-18244936D02*
X11753515Y-18235412D01*
M02*
