%TF.GenerationSoftware,KiCad,Pcbnew,8.0.1*%
%TF.CreationDate,2024-04-24T00:07:42-04:00*%
%TF.ProjectId,leviathan,6c657669-6174-4686-916e-2e6b69636164,rev?*%
%TF.SameCoordinates,Original*%
%TF.FileFunction,Drillmap*%
%TF.FilePolarity,Positive*%
%FSLAX45Y45*%
G04 Gerber Fmt 4.5, Leading zero omitted, Abs format (unit mm)*
G04 Created by KiCad (PCBNEW 8.0.1) date 2024-04-24 00:07:42*
%MOMM*%
%LPD*%
G01*
G04 APERTURE LIST*
%ADD10C,0.050000*%
%ADD11C,0.200000*%
%ADD12C,0.100000*%
G04 APERTURE END LIST*
D10*
X16900000Y-2000000D02*
X28500000Y-2000000D01*
X15500000Y-2000000D02*
X15500000Y-4150000D01*
X28500000Y-2000000D02*
G75*
G02*
X29000000Y-2500000I0J-500000D01*
G01*
X16900000Y-4150000D02*
X16900000Y-2000000D01*
X5000000Y-2500000D02*
X5000000Y-16000000D01*
X5500000Y-16500000D02*
G75*
G02*
X5000000Y-16000000I0J500000D01*
G01*
X5000000Y-2500000D02*
G75*
G02*
X5500000Y-2000000I500000J0D01*
G01*
X5500000Y-2000000D02*
X15500000Y-2000000D01*
X29000000Y-16000000D02*
G75*
G02*
X28500000Y-16500000I-500000J0D01*
G01*
X29000000Y-2500000D02*
X29000000Y-16000000D01*
X5500000Y-16500000D02*
X28500000Y-16500000D01*
X15500000Y-4150000D02*
X16900000Y-4150000D01*
D11*
D12*
X6480000Y-8730000D02*
X6520000Y-8770000D01*
X6520000Y-8730000D02*
X6480000Y-8770000D01*
X7930000Y-3730000D02*
X7970000Y-3770000D01*
X7970000Y-3730000D02*
X7930000Y-3770000D01*
X9130000Y-7380000D02*
X9170000Y-7420000D01*
X9170000Y-7380000D02*
X9130000Y-7420000D01*
X9680000Y-3730000D02*
X9720000Y-3770000D01*
X9720000Y-3730000D02*
X9680000Y-3770000D01*
X11580000Y-3730000D02*
X11620000Y-3770000D01*
X11620000Y-3730000D02*
X11580000Y-3770000D01*
X12030000Y-7380000D02*
X12070000Y-7420000D01*
X12070000Y-7380000D02*
X12030000Y-7420000D01*
X12680000Y-13730000D02*
X12720000Y-13770000D01*
X12720000Y-13730000D02*
X12680000Y-13770000D01*
X13330000Y-3730000D02*
X13370000Y-3770000D01*
X13370000Y-3730000D02*
X13330000Y-3770000D01*
X14680000Y-8480000D02*
X14720000Y-8520000D01*
X14720000Y-8480000D02*
X14680000Y-8520000D01*
X14913000Y-2430000D02*
X14953000Y-2470000D01*
X14953000Y-2430000D02*
X14913000Y-2470000D01*
X16430000Y-13830000D02*
X16470000Y-13870000D01*
X16470000Y-13830000D02*
X16430000Y-13870000D01*
X17630000Y-10480000D02*
X17670000Y-10520000D01*
X17670000Y-10480000D02*
X17630000Y-10520000D01*
X18180000Y-7380000D02*
X18220000Y-7420000D01*
X18220000Y-7380000D02*
X18180000Y-7420000D01*
X20180000Y-13730000D02*
X20220000Y-13770000D01*
X20220000Y-13730000D02*
X20180000Y-13770000D01*
X20280000Y-9380000D02*
X20320000Y-9420000D01*
X20320000Y-9380000D02*
X20280000Y-9420000D01*
X20830000Y-6230000D02*
X20870000Y-6270000D01*
X20870000Y-6230000D02*
X20830000Y-6270000D01*
X23180000Y-9380000D02*
X23220000Y-9420000D01*
X23220000Y-9380000D02*
X23180000Y-9420000D01*
X23730000Y-6180000D02*
X23770000Y-6220000D01*
X23770000Y-6180000D02*
X23730000Y-6220000D01*
X26380000Y-8430000D02*
X26420000Y-8470000D01*
X26420000Y-8430000D02*
X26380000Y-8470000D01*
D11*
X5258277Y-16813984D02*
X5258277Y-16613984D01*
X5258277Y-16613984D02*
X5305896Y-16613984D01*
X5305896Y-16613984D02*
X5334467Y-16623508D01*
X5334467Y-16623508D02*
X5353515Y-16642555D01*
X5353515Y-16642555D02*
X5363039Y-16661603D01*
X5363039Y-16661603D02*
X5372563Y-16699698D01*
X5372563Y-16699698D02*
X5372563Y-16728269D01*
X5372563Y-16728269D02*
X5363039Y-16766365D01*
X5363039Y-16766365D02*
X5353515Y-16785412D01*
X5353515Y-16785412D02*
X5334467Y-16804460D01*
X5334467Y-16804460D02*
X5305896Y-16813984D01*
X5305896Y-16813984D02*
X5258277Y-16813984D01*
X5458277Y-16813984D02*
X5458277Y-16680650D01*
X5458277Y-16718746D02*
X5467801Y-16699698D01*
X5467801Y-16699698D02*
X5477324Y-16690174D01*
X5477324Y-16690174D02*
X5496372Y-16680650D01*
X5496372Y-16680650D02*
X5515420Y-16680650D01*
X5582086Y-16813984D02*
X5582086Y-16680650D01*
X5582086Y-16613984D02*
X5572563Y-16623508D01*
X5572563Y-16623508D02*
X5582086Y-16633031D01*
X5582086Y-16633031D02*
X5591610Y-16623508D01*
X5591610Y-16623508D02*
X5582086Y-16613984D01*
X5582086Y-16613984D02*
X5582086Y-16633031D01*
X5705896Y-16813984D02*
X5686848Y-16804460D01*
X5686848Y-16804460D02*
X5677324Y-16785412D01*
X5677324Y-16785412D02*
X5677324Y-16613984D01*
X5810658Y-16813984D02*
X5791610Y-16804460D01*
X5791610Y-16804460D02*
X5782086Y-16785412D01*
X5782086Y-16785412D02*
X5782086Y-16613984D01*
X6039229Y-16813984D02*
X6039229Y-16613984D01*
X6039229Y-16613984D02*
X6105896Y-16756841D01*
X6105896Y-16756841D02*
X6172562Y-16613984D01*
X6172562Y-16613984D02*
X6172562Y-16813984D01*
X6353515Y-16813984D02*
X6353515Y-16709222D01*
X6353515Y-16709222D02*
X6343991Y-16690174D01*
X6343991Y-16690174D02*
X6324943Y-16680650D01*
X6324943Y-16680650D02*
X6286848Y-16680650D01*
X6286848Y-16680650D02*
X6267801Y-16690174D01*
X6353515Y-16804460D02*
X6334467Y-16813984D01*
X6334467Y-16813984D02*
X6286848Y-16813984D01*
X6286848Y-16813984D02*
X6267801Y-16804460D01*
X6267801Y-16804460D02*
X6258277Y-16785412D01*
X6258277Y-16785412D02*
X6258277Y-16766365D01*
X6258277Y-16766365D02*
X6267801Y-16747317D01*
X6267801Y-16747317D02*
X6286848Y-16737793D01*
X6286848Y-16737793D02*
X6334467Y-16737793D01*
X6334467Y-16737793D02*
X6353515Y-16728269D01*
X6448753Y-16680650D02*
X6448753Y-16880650D01*
X6448753Y-16690174D02*
X6467801Y-16680650D01*
X6467801Y-16680650D02*
X6505896Y-16680650D01*
X6505896Y-16680650D02*
X6524943Y-16690174D01*
X6524943Y-16690174D02*
X6534467Y-16699698D01*
X6534467Y-16699698D02*
X6543991Y-16718746D01*
X6543991Y-16718746D02*
X6543991Y-16775888D01*
X6543991Y-16775888D02*
X6534467Y-16794936D01*
X6534467Y-16794936D02*
X6524943Y-16804460D01*
X6524943Y-16804460D02*
X6505896Y-16813984D01*
X6505896Y-16813984D02*
X6467801Y-16813984D01*
X6467801Y-16813984D02*
X6448753Y-16804460D01*
X6629705Y-16794936D02*
X6639229Y-16804460D01*
X6639229Y-16804460D02*
X6629705Y-16813984D01*
X6629705Y-16813984D02*
X6620182Y-16804460D01*
X6620182Y-16804460D02*
X6629705Y-16794936D01*
X6629705Y-16794936D02*
X6629705Y-16813984D01*
X6629705Y-16690174D02*
X6639229Y-16699698D01*
X6639229Y-16699698D02*
X6629705Y-16709222D01*
X6629705Y-16709222D02*
X6620182Y-16699698D01*
X6620182Y-16699698D02*
X6629705Y-16690174D01*
X6629705Y-16690174D02*
X6629705Y-16709222D01*
D12*
X4957500Y-17122500D02*
X4997500Y-17162500D01*
X4997500Y-17122500D02*
X4957500Y-17162500D01*
D11*
X5296372Y-17033984D02*
X5315420Y-17033984D01*
X5315420Y-17033984D02*
X5334467Y-17043508D01*
X5334467Y-17043508D02*
X5343991Y-17053031D01*
X5343991Y-17053031D02*
X5353515Y-17072079D01*
X5353515Y-17072079D02*
X5363039Y-17110174D01*
X5363039Y-17110174D02*
X5363039Y-17157793D01*
X5363039Y-17157793D02*
X5353515Y-17195889D01*
X5353515Y-17195889D02*
X5343991Y-17214936D01*
X5343991Y-17214936D02*
X5334467Y-17224460D01*
X5334467Y-17224460D02*
X5315420Y-17233984D01*
X5315420Y-17233984D02*
X5296372Y-17233984D01*
X5296372Y-17233984D02*
X5277324Y-17224460D01*
X5277324Y-17224460D02*
X5267801Y-17214936D01*
X5267801Y-17214936D02*
X5258277Y-17195889D01*
X5258277Y-17195889D02*
X5248753Y-17157793D01*
X5248753Y-17157793D02*
X5248753Y-17110174D01*
X5248753Y-17110174D02*
X5258277Y-17072079D01*
X5258277Y-17072079D02*
X5267801Y-17053031D01*
X5267801Y-17053031D02*
X5277324Y-17043508D01*
X5277324Y-17043508D02*
X5296372Y-17033984D01*
X5448753Y-17214936D02*
X5458277Y-17224460D01*
X5458277Y-17224460D02*
X5448753Y-17233984D01*
X5448753Y-17233984D02*
X5439229Y-17224460D01*
X5439229Y-17224460D02*
X5448753Y-17214936D01*
X5448753Y-17214936D02*
X5448753Y-17233984D01*
X5629705Y-17100650D02*
X5629705Y-17233984D01*
X5582086Y-17024460D02*
X5534467Y-17167317D01*
X5534467Y-17167317D02*
X5658277Y-17167317D01*
X5772562Y-17033984D02*
X5791610Y-17033984D01*
X5791610Y-17033984D02*
X5810658Y-17043508D01*
X5810658Y-17043508D02*
X5820182Y-17053031D01*
X5820182Y-17053031D02*
X5829705Y-17072079D01*
X5829705Y-17072079D02*
X5839229Y-17110174D01*
X5839229Y-17110174D02*
X5839229Y-17157793D01*
X5839229Y-17157793D02*
X5829705Y-17195889D01*
X5829705Y-17195889D02*
X5820182Y-17214936D01*
X5820182Y-17214936D02*
X5810658Y-17224460D01*
X5810658Y-17224460D02*
X5791610Y-17233984D01*
X5791610Y-17233984D02*
X5772562Y-17233984D01*
X5772562Y-17233984D02*
X5753515Y-17224460D01*
X5753515Y-17224460D02*
X5743991Y-17214936D01*
X5743991Y-17214936D02*
X5734467Y-17195889D01*
X5734467Y-17195889D02*
X5724943Y-17157793D01*
X5724943Y-17157793D02*
X5724943Y-17110174D01*
X5724943Y-17110174D02*
X5734467Y-17072079D01*
X5734467Y-17072079D02*
X5743991Y-17053031D01*
X5743991Y-17053031D02*
X5753515Y-17043508D01*
X5753515Y-17043508D02*
X5772562Y-17033984D01*
X5963039Y-17033984D02*
X5982086Y-17033984D01*
X5982086Y-17033984D02*
X6001134Y-17043508D01*
X6001134Y-17043508D02*
X6010658Y-17053031D01*
X6010658Y-17053031D02*
X6020182Y-17072079D01*
X6020182Y-17072079D02*
X6029705Y-17110174D01*
X6029705Y-17110174D02*
X6029705Y-17157793D01*
X6029705Y-17157793D02*
X6020182Y-17195889D01*
X6020182Y-17195889D02*
X6010658Y-17214936D01*
X6010658Y-17214936D02*
X6001134Y-17224460D01*
X6001134Y-17224460D02*
X5982086Y-17233984D01*
X5982086Y-17233984D02*
X5963039Y-17233984D01*
X5963039Y-17233984D02*
X5943991Y-17224460D01*
X5943991Y-17224460D02*
X5934467Y-17214936D01*
X5934467Y-17214936D02*
X5924943Y-17195889D01*
X5924943Y-17195889D02*
X5915420Y-17157793D01*
X5915420Y-17157793D02*
X5915420Y-17110174D01*
X5915420Y-17110174D02*
X5924943Y-17072079D01*
X5924943Y-17072079D02*
X5934467Y-17053031D01*
X5934467Y-17053031D02*
X5943991Y-17043508D01*
X5943991Y-17043508D02*
X5963039Y-17033984D01*
X6115420Y-17233984D02*
X6115420Y-17100650D01*
X6115420Y-17119698D02*
X6124943Y-17110174D01*
X6124943Y-17110174D02*
X6143991Y-17100650D01*
X6143991Y-17100650D02*
X6172563Y-17100650D01*
X6172563Y-17100650D02*
X6191610Y-17110174D01*
X6191610Y-17110174D02*
X6201134Y-17129222D01*
X6201134Y-17129222D02*
X6201134Y-17233984D01*
X6201134Y-17129222D02*
X6210658Y-17110174D01*
X6210658Y-17110174D02*
X6229705Y-17100650D01*
X6229705Y-17100650D02*
X6258277Y-17100650D01*
X6258277Y-17100650D02*
X6277324Y-17110174D01*
X6277324Y-17110174D02*
X6286848Y-17129222D01*
X6286848Y-17129222D02*
X6286848Y-17233984D01*
X6382086Y-17233984D02*
X6382086Y-17100650D01*
X6382086Y-17119698D02*
X6391610Y-17110174D01*
X6391610Y-17110174D02*
X6410658Y-17100650D01*
X6410658Y-17100650D02*
X6439229Y-17100650D01*
X6439229Y-17100650D02*
X6458277Y-17110174D01*
X6458277Y-17110174D02*
X6467801Y-17129222D01*
X6467801Y-17129222D02*
X6467801Y-17233984D01*
X6467801Y-17129222D02*
X6477324Y-17110174D01*
X6477324Y-17110174D02*
X6496372Y-17100650D01*
X6496372Y-17100650D02*
X6524943Y-17100650D01*
X6524943Y-17100650D02*
X6543991Y-17110174D01*
X6543991Y-17110174D02*
X6553515Y-17129222D01*
X6553515Y-17129222D02*
X6553515Y-17233984D01*
X6943991Y-17024460D02*
X6772563Y-17281603D01*
X7201134Y-17033984D02*
X7220182Y-17033984D01*
X7220182Y-17033984D02*
X7239229Y-17043508D01*
X7239229Y-17043508D02*
X7248753Y-17053031D01*
X7248753Y-17053031D02*
X7258277Y-17072079D01*
X7258277Y-17072079D02*
X7267801Y-17110174D01*
X7267801Y-17110174D02*
X7267801Y-17157793D01*
X7267801Y-17157793D02*
X7258277Y-17195889D01*
X7258277Y-17195889D02*
X7248753Y-17214936D01*
X7248753Y-17214936D02*
X7239229Y-17224460D01*
X7239229Y-17224460D02*
X7220182Y-17233984D01*
X7220182Y-17233984D02*
X7201134Y-17233984D01*
X7201134Y-17233984D02*
X7182086Y-17224460D01*
X7182086Y-17224460D02*
X7172563Y-17214936D01*
X7172563Y-17214936D02*
X7163039Y-17195889D01*
X7163039Y-17195889D02*
X7153515Y-17157793D01*
X7153515Y-17157793D02*
X7153515Y-17110174D01*
X7153515Y-17110174D02*
X7163039Y-17072079D01*
X7163039Y-17072079D02*
X7172563Y-17053031D01*
X7172563Y-17053031D02*
X7182086Y-17043508D01*
X7182086Y-17043508D02*
X7201134Y-17033984D01*
X7353515Y-17214936D02*
X7363039Y-17224460D01*
X7363039Y-17224460D02*
X7353515Y-17233984D01*
X7353515Y-17233984D02*
X7343991Y-17224460D01*
X7343991Y-17224460D02*
X7353515Y-17214936D01*
X7353515Y-17214936D02*
X7353515Y-17233984D01*
X7486848Y-17033984D02*
X7505896Y-17033984D01*
X7505896Y-17033984D02*
X7524944Y-17043508D01*
X7524944Y-17043508D02*
X7534467Y-17053031D01*
X7534467Y-17053031D02*
X7543991Y-17072079D01*
X7543991Y-17072079D02*
X7553515Y-17110174D01*
X7553515Y-17110174D02*
X7553515Y-17157793D01*
X7553515Y-17157793D02*
X7543991Y-17195889D01*
X7543991Y-17195889D02*
X7534467Y-17214936D01*
X7534467Y-17214936D02*
X7524944Y-17224460D01*
X7524944Y-17224460D02*
X7505896Y-17233984D01*
X7505896Y-17233984D02*
X7486848Y-17233984D01*
X7486848Y-17233984D02*
X7467801Y-17224460D01*
X7467801Y-17224460D02*
X7458277Y-17214936D01*
X7458277Y-17214936D02*
X7448753Y-17195889D01*
X7448753Y-17195889D02*
X7439229Y-17157793D01*
X7439229Y-17157793D02*
X7439229Y-17110174D01*
X7439229Y-17110174D02*
X7448753Y-17072079D01*
X7448753Y-17072079D02*
X7458277Y-17053031D01*
X7458277Y-17053031D02*
X7467801Y-17043508D01*
X7467801Y-17043508D02*
X7486848Y-17033984D01*
X7743991Y-17233984D02*
X7629706Y-17233984D01*
X7686848Y-17233984D02*
X7686848Y-17033984D01*
X7686848Y-17033984D02*
X7667801Y-17062555D01*
X7667801Y-17062555D02*
X7648753Y-17081603D01*
X7648753Y-17081603D02*
X7629706Y-17091127D01*
X7924944Y-17033984D02*
X7829706Y-17033984D01*
X7829706Y-17033984D02*
X7820182Y-17129222D01*
X7820182Y-17129222D02*
X7829706Y-17119698D01*
X7829706Y-17119698D02*
X7848753Y-17110174D01*
X7848753Y-17110174D02*
X7896372Y-17110174D01*
X7896372Y-17110174D02*
X7915420Y-17119698D01*
X7915420Y-17119698D02*
X7924944Y-17129222D01*
X7924944Y-17129222D02*
X7934467Y-17148270D01*
X7934467Y-17148270D02*
X7934467Y-17195889D01*
X7934467Y-17195889D02*
X7924944Y-17214936D01*
X7924944Y-17214936D02*
X7915420Y-17224460D01*
X7915420Y-17224460D02*
X7896372Y-17233984D01*
X7896372Y-17233984D02*
X7848753Y-17233984D01*
X7848753Y-17233984D02*
X7829706Y-17224460D01*
X7829706Y-17224460D02*
X7820182Y-17214936D01*
X8001134Y-17033984D02*
X8134467Y-17033984D01*
X8134467Y-17033984D02*
X8048753Y-17233984D01*
X8201134Y-17033984D02*
X8201134Y-17072079D01*
X8277325Y-17033984D02*
X8277325Y-17072079D01*
X8572563Y-17310174D02*
X8563039Y-17300650D01*
X8563039Y-17300650D02*
X8543991Y-17272079D01*
X8543991Y-17272079D02*
X8534468Y-17253031D01*
X8534468Y-17253031D02*
X8524944Y-17224460D01*
X8524944Y-17224460D02*
X8515420Y-17176841D01*
X8515420Y-17176841D02*
X8515420Y-17138746D01*
X8515420Y-17138746D02*
X8524944Y-17091127D01*
X8524944Y-17091127D02*
X8534468Y-17062555D01*
X8534468Y-17062555D02*
X8543991Y-17043508D01*
X8543991Y-17043508D02*
X8563039Y-17014936D01*
X8563039Y-17014936D02*
X8572563Y-17005412D01*
X8753515Y-17233984D02*
X8639230Y-17233984D01*
X8696372Y-17233984D02*
X8696372Y-17033984D01*
X8696372Y-17033984D02*
X8677325Y-17062555D01*
X8677325Y-17062555D02*
X8658277Y-17081603D01*
X8658277Y-17081603D02*
X8639230Y-17091127D01*
X8848753Y-17233984D02*
X8886849Y-17233984D01*
X8886849Y-17233984D02*
X8905896Y-17224460D01*
X8905896Y-17224460D02*
X8915420Y-17214936D01*
X8915420Y-17214936D02*
X8934468Y-17186365D01*
X8934468Y-17186365D02*
X8943991Y-17148270D01*
X8943991Y-17148270D02*
X8943991Y-17072079D01*
X8943991Y-17072079D02*
X8934468Y-17053031D01*
X8934468Y-17053031D02*
X8924944Y-17043508D01*
X8924944Y-17043508D02*
X8905896Y-17033984D01*
X8905896Y-17033984D02*
X8867801Y-17033984D01*
X8867801Y-17033984D02*
X8848753Y-17043508D01*
X8848753Y-17043508D02*
X8839230Y-17053031D01*
X8839230Y-17053031D02*
X8829706Y-17072079D01*
X8829706Y-17072079D02*
X8829706Y-17119698D01*
X8829706Y-17119698D02*
X8839230Y-17138746D01*
X8839230Y-17138746D02*
X8848753Y-17148270D01*
X8848753Y-17148270D02*
X8867801Y-17157793D01*
X8867801Y-17157793D02*
X8905896Y-17157793D01*
X8905896Y-17157793D02*
X8924944Y-17148270D01*
X8924944Y-17148270D02*
X8934468Y-17138746D01*
X8934468Y-17138746D02*
X8943991Y-17119698D01*
X9182087Y-17233984D02*
X9182087Y-17033984D01*
X9267801Y-17233984D02*
X9267801Y-17129222D01*
X9267801Y-17129222D02*
X9258277Y-17110174D01*
X9258277Y-17110174D02*
X9239230Y-17100650D01*
X9239230Y-17100650D02*
X9210658Y-17100650D01*
X9210658Y-17100650D02*
X9191611Y-17110174D01*
X9191611Y-17110174D02*
X9182087Y-17119698D01*
X9391611Y-17233984D02*
X9372563Y-17224460D01*
X9372563Y-17224460D02*
X9363039Y-17214936D01*
X9363039Y-17214936D02*
X9353515Y-17195889D01*
X9353515Y-17195889D02*
X9353515Y-17138746D01*
X9353515Y-17138746D02*
X9363039Y-17119698D01*
X9363039Y-17119698D02*
X9372563Y-17110174D01*
X9372563Y-17110174D02*
X9391611Y-17100650D01*
X9391611Y-17100650D02*
X9420182Y-17100650D01*
X9420182Y-17100650D02*
X9439230Y-17110174D01*
X9439230Y-17110174D02*
X9448753Y-17119698D01*
X9448753Y-17119698D02*
X9458277Y-17138746D01*
X9458277Y-17138746D02*
X9458277Y-17195889D01*
X9458277Y-17195889D02*
X9448753Y-17214936D01*
X9448753Y-17214936D02*
X9439230Y-17224460D01*
X9439230Y-17224460D02*
X9420182Y-17233984D01*
X9420182Y-17233984D02*
X9391611Y-17233984D01*
X9572563Y-17233984D02*
X9553515Y-17224460D01*
X9553515Y-17224460D02*
X9543992Y-17205412D01*
X9543992Y-17205412D02*
X9543992Y-17033984D01*
X9724944Y-17224460D02*
X9705896Y-17233984D01*
X9705896Y-17233984D02*
X9667801Y-17233984D01*
X9667801Y-17233984D02*
X9648753Y-17224460D01*
X9648753Y-17224460D02*
X9639230Y-17205412D01*
X9639230Y-17205412D02*
X9639230Y-17129222D01*
X9639230Y-17129222D02*
X9648753Y-17110174D01*
X9648753Y-17110174D02*
X9667801Y-17100650D01*
X9667801Y-17100650D02*
X9705896Y-17100650D01*
X9705896Y-17100650D02*
X9724944Y-17110174D01*
X9724944Y-17110174D02*
X9734468Y-17129222D01*
X9734468Y-17129222D02*
X9734468Y-17148270D01*
X9734468Y-17148270D02*
X9639230Y-17167317D01*
X9810658Y-17224460D02*
X9829706Y-17233984D01*
X9829706Y-17233984D02*
X9867801Y-17233984D01*
X9867801Y-17233984D02*
X9886849Y-17224460D01*
X9886849Y-17224460D02*
X9896373Y-17205412D01*
X9896373Y-17205412D02*
X9896373Y-17195889D01*
X9896373Y-17195889D02*
X9886849Y-17176841D01*
X9886849Y-17176841D02*
X9867801Y-17167317D01*
X9867801Y-17167317D02*
X9839230Y-17167317D01*
X9839230Y-17167317D02*
X9820182Y-17157793D01*
X9820182Y-17157793D02*
X9810658Y-17138746D01*
X9810658Y-17138746D02*
X9810658Y-17129222D01*
X9810658Y-17129222D02*
X9820182Y-17110174D01*
X9820182Y-17110174D02*
X9839230Y-17100650D01*
X9839230Y-17100650D02*
X9867801Y-17100650D01*
X9867801Y-17100650D02*
X9886849Y-17110174D01*
X9963039Y-17310174D02*
X9972563Y-17300650D01*
X9972563Y-17300650D02*
X9991611Y-17272079D01*
X9991611Y-17272079D02*
X10001134Y-17253031D01*
X10001134Y-17253031D02*
X10010658Y-17224460D01*
X10010658Y-17224460D02*
X10020182Y-17176841D01*
X10020182Y-17176841D02*
X10020182Y-17138746D01*
X10020182Y-17138746D02*
X10010658Y-17091127D01*
X10010658Y-17091127D02*
X10001134Y-17062555D01*
X10001134Y-17062555D02*
X9991611Y-17043508D01*
X9991611Y-17043508D02*
X9972563Y-17014936D01*
X9972563Y-17014936D02*
X9963039Y-17005412D01*
M02*
