0
SECTION
2
HEADER
9
$INSUNITS
70
4
9
$ACADVER
1
AC1014
9
$HANDSEED
5
FFFF
0
ENDSEC
0
SECTION
2
TABLES
0
TABLE
2
VPORT
5
8
100
AcDbSymbolTable
0
ENDTAB
0
TABLE
2
LTYPE
5
5
100
AcDbSymbolTable
0
LTYPE
5
14
100
AcDbSymbolTableRecord
100
AcDbLinetypeTableRecord
2
BYBLOCK
70
0
0
LTYPE
5
15
100
AcDbSymbolTableRecord
100
AcDbLinetypeTableRecord
2
BYLAYER
70
0
0
ENDTAB
0
TABLE
2
LAYER
5
2
100
AcDbSymbolTable
70
2
0
LAYER
5
50
100
AcDbSymbolTableRecord
100
AcDbLayerTableRecord
2
0
70
0
6
CONTINUOUS
0
ENDTAB
0
TABLE
2
STYLE
5
3
100
AcDbSymbolTable
70
1
0
STYLE
5
11
100
AcDbSymbolTableRecord
100
AcDbTextStyleTableRecord
2
STANDARD
70
0
0
ENDTAB
0
TABLE
2
VIEW
5
6
100
AcDbSymbolTable
70
0
0
ENDTAB
0
TABLE
2
UCS
5
7
100
AcDbSymbolTable
70
0
0
ENDTAB
0
TABLE
2
APPID
5
9
100
AcDbSymbolTable
70
2
0
APPID
5
12
100
AcDbSymbolTableRecord
100
AcDbRegAppTableRecord
2
ACAD
70
0
0
ENDTAB
0
TABLE
2
DIMSTYLE
5
A
100
AcDbSymbolTable
70
1
0
ENDTAB
0
TABLE
2
BLOCK_RECORD
5
1
100
AcDbSymbolTable
70
1
0
BLOCK_RECORD
5
1F
100
AcDbSymbolTableRecord
100
AcDbBlockTableRecord
2
*MODEL_SPACE
0
BLOCK_RECORD
5
1B
100
AcDbSymbolTableRecord
100
AcDbBlockTableRecord
2
*PAPER_SPACE
0
ENDTAB
0
ENDSEC
0
SECTION
2
BLOCKS
0
BLOCK
5
20
100
AcDbEntity
100
AcDbBlockBegin
2
*MODEL_SPACE
0
ENDBLK
5
21
100
AcDbEntity
100
AcDbBlockEnd
0
BLOCK
5
1C
100
AcDbEntity
100
AcDbBlockBegin
2
*PAPER_SPACE
0
ENDBLK
5
1D
100
AcDbEntity
100
AcDbBlockEnd
0
ENDSEC
0
SECTION
2
ENTITIES
0
LWPOLYLINE
5
100
100
AcDbEntity
8
0
100
AcDbPolyline
90
12
70
1
43
0.0
10
-169.00000000000003
20
41.5
10
-155
20
41.5
10
-155
20
20
10
-55
20
20
42
0.41421360000026902
10
-50.000000000000014
20
25
10
-50
20
160
42
0.41421359999616969
10
-55
20
164.999999999934
10
-285
20
165
42
0.41421359999581797
10
-289.99999999999397
20
160
10
-290
20
25
42
0.4142135999999173
10
-285
20
19.999999999996014
10
-169.00000000000003
20
20
0
CIRCLE
5
101
100
AcDbEntity
8
0
100
AcDbCircle
10
-280
20
155
30
0
40
3.2000000000000006
210
0
220
0
230
1
0
CIRCLE
5
102
100
AcDbEntity
8
0
100
AcDbCircle
10
-202.00000000000003
20
137.5
30
0
40
0.20000000000000004
210
0
220
0
230
1
0
CIRCLE
5
103
100
AcDbEntity
8
0
100
AcDbCircle
10
-207.58000000000004
20
131.38
30
0
40
0.94999999999999996
210
0
220
0
230
1
0
CIRCLE
5
104
100
AcDbEntity
8
0
100
AcDbCircle
10
-202.08000000000001
20
131.38
30
0
40
2.5249999999999999
210
0
220
0
230
1
0
CIRCLE
5
105
100
AcDbEntity
8
0
100
AcDbCircle
10
-207.08000000000001
20
127.58000000000001
30
0
40
1.5249999999999999
210
0
220
0
230
1
0
CIRCLE
5
106
100
AcDbEntity
8
0
100
AcDbCircle
10
-202.08000000000001
20
125.48000000000002
30
0
40
1.5249999999999999
210
0
220
0
230
1
0
CIRCLE
5
107
100
AcDbEntity
8
0
100
AcDbCircle
10
-197.08000000000001
20
136.53
30
0
40
0.80000000000000016
210
0
220
0
230
1
0
CIRCLE
5
108
100
AcDbEntity
8
0
100
AcDbCircle
10
-196.58000000000001
20
131.38
30
0
40
0.94999999999999996
210
0
220
0
230
1
0
CIRCLE
5
109
100
AcDbEntity
8
0
100
AcDbCircle
10
-232.00000000000003
20
94
30
0
40
0.20000000000000004
210
0
220
0
230
1
0
CIRCLE
5
110
100
AcDbEntity
8
0
100
AcDbCircle
10
-226.79000000000002
20
93.070000000000007
30
0
40
0.80000000000000016
210
0
220
0
230
1
0
CIRCLE
5
111
100
AcDbEntity
8
0
100
AcDbCircle
10
-203
20
94
30
0
40
0.20000000000000004
210
0
220
0
230
1
0
CIRCLE
5
112
100
AcDbEntity
8
0
100
AcDbCircle
10
-176.50000000000003
20
105
30
0
40
0.20000000000000004
210
0
220
0
230
1
0
CIRCLE
5
113
100
AcDbEntity
8
0
100
AcDbCircle
10
-171.33000000000004
20
104.18000000000001
30
0
40
0.80000000000000016
210
0
220
0
230
1
0
CIRCLE
5
114
100
AcDbEntity
8
0
100
AcDbCircle
10
-197.94
20
93.070000000000007
30
0
40
0.80000000000000016
210
0
220
0
230
1
0
CIRCLE
5
115
100
AcDbEntity
8
0
100
AcDbCircle
10
-181.83000000000004
20
99.030000000000001
30
0
40
0.94999999999999996
210
0
220
0
230
1
0
CIRCLE
5
116
100
AcDbEntity
8
0
100
AcDbCircle
10
-176.33000000000004
20
99.030000000000001
30
0
40
2.5249999999999999
210
0
220
0
230
1
0
CIRCLE
5
117
100
AcDbEntity
8
0
100
AcDbCircle
10
-170.83000000000001
20
99.030000000000001
30
0
40
0.94999999999999996
210
0
220
0
230
1
0
CIRCLE
5
118
100
AcDbEntity
8
0
100
AcDbCircle
10
-181.33000000000004
20
95.230000000000018
30
0
40
1.5249999999999999
210
0
220
0
230
1
0
CIRCLE
5
119
100
AcDbEntity
8
0
100
AcDbCircle
10
-176.33000000000004
20
93.13000000000001
30
0
40
1.5249999999999999
210
0
220
0
230
1
0
CIRCLE
5
120
100
AcDbEntity
8
0
100
AcDbCircle
10
-170
20
155
30
0
40
3.2000000000000006
210
0
220
0
230
1
0
CIRCLE
5
121
100
AcDbEntity
8
0
100
AcDbCircle
10
-164.5
20
138.5
30
0
40
0.20000000000000004
210
0
220
0
230
1
0
CIRCLE
5
122
100
AcDbEntity
8
0
100
AcDbCircle
10
-159.5
20
137.65000000000001
30
0
40
0.80000000000000016
210
0
220
0
230
1
0
CIRCLE
5
123
100
AcDbEntity
8
0
100
AcDbCircle
10
-170
20
132.5
30
0
40
0.94999999999999996
210
0
220
0
230
1
0
CIRCLE
5
124
100
AcDbEntity
8
0
100
AcDbCircle
10
-164.5
20
132.5
30
0
40
2.5249999999999999
210
0
220
0
230
1
0
CIRCLE
5
125
100
AcDbEntity
8
0
100
AcDbCircle
10
-159
20
132.5
30
0
40
0.94999999999999996
210
0
220
0
230
1
0
CIRCLE
5
126
100
AcDbEntity
8
0
100
AcDbCircle
10
-169.5
20
128.69999999999999
30
0
40
1.5249999999999999
210
0
220
0
230
1
0
CIRCLE
5
127
100
AcDbEntity
8
0
100
AcDbCircle
10
-164.5
20
126.59999999999999
30
0
40
1.5249999999999999
210
0
220
0
230
1
0
CIRCLE
5
128
100
AcDbEntity
8
0
100
AcDbCircle
10
-127.00000000000001
20
137.5
30
0
40
0.20000000000000004
210
0
220
0
230
1
0
CIRCLE
5
129
100
AcDbEntity
8
0
100
AcDbCircle
10
-121.92
20
136.53
30
0
40
0.80000000000000016
210
0
220
0
230
1
0
CIRCLE
5
130
100
AcDbEntity
8
0
100
AcDbCircle
10
-132.41999999999999
20
131.38
30
0
40
0.94999999999999996
210
0
220
0
230
1
0
CIRCLE
5
131
100
AcDbEntity
8
0
100
AcDbCircle
10
-131.92000000000002
20
127.58000000000001
30
0
40
1.5249999999999999
210
0
220
0
230
1
0
CIRCLE
5
132
100
AcDbEntity
8
0
100
AcDbCircle
10
-126.92
20
131.38
30
0
40
2.5249999999999999
210
0
220
0
230
1
0
CIRCLE
5
133
100
AcDbEntity
8
0
100
AcDbCircle
10
-121.42000000000002
20
131.38
30
0
40
0.94999999999999996
210
0
220
0
230
1
0
CIRCLE
5
134
100
AcDbEntity
8
0
100
AcDbCircle
10
-126.92
20
125.48000000000002
30
0
40
1.5249999999999999
210
0
220
0
230
1
0
CIRCLE
5
135
100
AcDbEntity
8
0
100
AcDbCircle
10
-60
20
155
30
0
40
3.2000000000000006
210
0
220
0
230
1
0
CIRCLE
5
136
100
AcDbEntity
8
0
100
AcDbCircle
10
-264
20
84.500000000000014
30
0
40
0.20000000000000004
210
0
220
0
230
1
0
CIRCLE
5
137
100
AcDbEntity
8
0
100
AcDbCircle
10
-259.08625499999999
20
83.560081999999994
30
0
40
0.80000000000000016
210
0
220
0
230
1
0
CIRCLE
5
138
100
AcDbEntity
8
0
100
AcDbCircle
10
-269.58625499999999
20
78.410082000000017
30
0
40
0.94999999999999996
210
0
220
0
230
1
0
CIRCLE
5
139
100
AcDbEntity
8
0
100
AcDbCircle
10
-269.08625499999999
20
74.610082000000006
30
0
40
1.5249999999999999
210
0
220
0
230
1
0
CIRCLE
5
140
100
AcDbEntity
8
0
100
AcDbCircle
10
-264.08625499999999
20
78.410082000000017
30
0
40
2.5249999999999999
210
0
220
0
230
1
0
CIRCLE
5
141
100
AcDbEntity
8
0
100
AcDbCircle
10
-258.58625500000005
20
78.410082000000017
30
0
40
0.94999999999999996
210
0
220
0
230
1
0
CIRCLE
5
142
100
AcDbEntity
8
0
100
AcDbCircle
10
-237.28999999999999
20
87.920000000000002
30
0
40
0.94999999999999996
210
0
220
0
230
1
0
CIRCLE
5
143
100
AcDbEntity
8
0
100
AcDbCircle
10
-231.79000000000002
20
87.920000000000002
30
0
40
2.5249999999999999
210
0
220
0
230
1
0
CIRCLE
5
144
100
AcDbEntity
8
0
100
AcDbCircle
10
-236.79000000000002
20
84.120000000000005
30
0
40
1.5249999999999999
210
0
220
0
230
1
0
CIRCLE
5
145
100
AcDbEntity
8
0
100
AcDbCircle
10
-231.79000000000002
20
82.019999999999996
30
0
40
1.5249999999999999
210
0
220
0
230
1
0
CIRCLE
5
146
100
AcDbEntity
8
0
100
AcDbCircle
10
-264.08625499999999
20
72.510081999999997
30
0
40
1.5249999999999999
210
0
220
0
230
1
0
CIRCLE
5
147
100
AcDbEntity
8
0
100
AcDbCircle
10
-237.5
20
62
30
0
40
0.20000000000000004
210
0
220
0
230
1
0
CIRCLE
5
148
100
AcDbEntity
8
0
100
AcDbCircle
10
-232.47
20
61.490000000000009
30
0
40
0.80000000000000016
210
0
220
0
230
1
0
CIRCLE
5
149
100
AcDbEntity
8
0
100
AcDbCircle
10
-226.29000000000002
20
87.920000000000002
30
0
40
0.94999999999999996
210
0
220
0
230
1
0
CIRCLE
5
150
100
AcDbEntity
8
0
100
AcDbCircle
10
-208.44
20
87.920000000000002
30
0
40
0.94999999999999996
210
0
220
0
230
1
0
CIRCLE
5
151
100
AcDbEntity
8
0
100
AcDbCircle
10
-202.94
20
87.920000000000002
30
0
40
2.5249999999999999
210
0
220
0
230
1
0
CIRCLE
5
152
100
AcDbEntity
8
0
100
AcDbCircle
10
-207.94
20
84.120000000000005
30
0
40
1.5249999999999999
210
0
220
0
230
1
0
CIRCLE
5
153
100
AcDbEntity
8
0
100
AcDbCircle
10
-202.94
20
82.019999999999996
30
0
40
1.5249999999999999
210
0
220
0
230
1
0
CIRCLE
5
154
100
AcDbEntity
8
0
100
AcDbCircle
10
-197.44
20
87.920000000000002
30
0
40
0.94999999999999996
210
0
220
0
230
1
0
CIRCLE
5
155
100
AcDbEntity
8
0
100
AcDbCircle
10
-208.5
20
62.5
30
0
40
0.20000000000000004
210
0
220
0
230
1
0
CIRCLE
5
156
100
AcDbEntity
8
0
100
AcDbCircle
10
-203.5
20
61.610000000000007
30
0
40
0.80000000000000016
210
0
220
0
230
1
0
CIRCLE
5
157
100
AcDbEntity
8
0
100
AcDbCircle
10
-187.44
20
67.989999999999995
30
0
40
0.94999999999999996
210
0
220
0
230
1
0
CIRCLE
5
158
100
AcDbEntity
8
0
100
AcDbCircle
10
-182
20
74
30
0
40
0.20000000000000004
210
0
220
0
230
1
0
CIRCLE
5
159
100
AcDbEntity
8
0
100
AcDbCircle
10
-176.94
20
73.140000000000001
30
0
40
0.80000000000000016
210
0
220
0
230
1
0
CIRCLE
5
160
100
AcDbEntity
8
0
100
AcDbCircle
10
-181.94
20
67.989999999999995
30
0
40
2.5249999999999999
210
0
220
0
230
1
0
CIRCLE
5
161
100
AcDbEntity
8
0
100
AcDbCircle
10
-176.44000000000003
20
67.989999999999995
30
0
40
0.94999999999999996
210
0
220
0
230
1
0
CIRCLE
5
162
100
AcDbEntity
8
0
100
AcDbCircle
10
-186.94
20
64.189999999999998
30
0
40
1.5249999999999999
210
0
220
0
230
1
0
CIRCLE
5
163
100
AcDbEntity
8
0
100
AcDbCircle
10
-181.94
20
62.090000000000003
30
0
40
1.5249999999999999
210
0
220
0
230
1
0
CIRCLE
5
164
100
AcDbEntity
8
0
100
AcDbCircle
10
-242.97
20
56.340000000000003
30
0
40
0.94999999999999996
210
0
220
0
230
1
0
CIRCLE
5
165
100
AcDbEntity
8
0
100
AcDbCircle
10
-242.47
20
52.540000000000006
30
0
40
1.5249999999999999
210
0
220
0
230
1
0
CIRCLE
5
166
100
AcDbEntity
8
0
100
AcDbCircle
10
-237.47
20
56.340000000000003
30
0
40
2.5249999999999999
210
0
220
0
230
1
0
CIRCLE
5
167
100
AcDbEntity
8
0
100
AcDbCircle
10
-231.97000000000003
20
56.340000000000003
30
0
40
0.94999999999999996
210
0
220
0
230
1
0
CIRCLE
5
168
100
AcDbEntity
8
0
100
AcDbCircle
10
-237.47
20
50.440000000000005
30
0
40
1.5249999999999999
210
0
220
0
230
1
0
CIRCLE
5
169
100
AcDbEntity
8
0
100
AcDbCircle
10
-280
20
30
30
0
40
3.2000000000000006
210
0
220
0
230
1
0
CIRCLE
5
170
100
AcDbEntity
8
0
100
AcDbCircle
10
-214.00000000000003
20
56.460000000000008
30
0
40
0.94999999999999996
210
0
220
0
230
1
0
CIRCLE
5
171
100
AcDbEntity
8
0
100
AcDbCircle
10
-213.5
20
52.659999999999997
30
0
40
1.5249999999999999
210
0
220
0
230
1
0
CIRCLE
5
172
100
AcDbEntity
8
0
100
AcDbCircle
10
-208.5
20
56.460000000000008
30
0
40
2.5249999999999999
210
0
220
0
230
1
0
CIRCLE
5
173
100
AcDbEntity
8
0
100
AcDbCircle
10
-203
20
56.460000000000008
30
0
40
0.94999999999999996
210
0
220
0
230
1
0
CIRCLE
5
174
100
AcDbEntity
8
0
100
AcDbCircle
10
-208.5
20
50.560000000000009
30
0
40
1.5249999999999999
210
0
220
0
230
1
0
CIRCLE
5
175
100
AcDbEntity
8
0
100
AcDbCircle
10
-190
20
30
30
0
40
3.2000000000000006
210
0
220
0
230
1
0
CIRCLE
5
176
100
AcDbEntity
8
0
100
AcDbCircle
10
-147
20
85
30
0
40
0.20000000000000004
210
0
220
0
230
1
0
CIRCLE
5
177
100
AcDbEntity
8
0
100
AcDbCircle
10
-142
20
84.549999999999997
30
0
40
0.80000000000000016
210
0
220
0
230
1
0
CIRCLE
5
178
100
AcDbEntity
8
0
100
AcDbCircle
10
-167
20
81
30
0
40
3.2000000000000006
210
0
220
0
230
1
0
CIRCLE
5
179
100
AcDbEntity
8
0
100
AcDbCircle
10
-152.5
20
79.400000000000006
30
0
40
0.94999999999999996
210
0
220
0
230
1
0
CIRCLE
5
180
100
AcDbEntity
8
0
100
AcDbCircle
10
-147
20
79.400000000000006
30
0
40
2.5249999999999999
210
0
220
0
230
1
0
CIRCLE
5
181
100
AcDbEntity
8
0
100
AcDbCircle
10
-152
20
75.599999999999994
30
0
40
1.5249999999999999
210
0
220
0
230
1
0
CIRCLE
5
182
100
AcDbEntity
8
0
100
AcDbCircle
10
-141.5
20
79.400000000000006
30
0
40
0.94999999999999996
210
0
220
0
230
1
0
CIRCLE
5
183
100
AcDbEntity
8
0
100
AcDbCircle
10
-147
20
73.5
30
0
40
1.5249999999999999
210
0
220
0
230
1
0
CIRCLE
5
184
100
AcDbEntity
8
0
100
AcDbCircle
10
-120.5
20
74
30
0
40
0.20000000000000004
210
0
220
0
230
1
0
CIRCLE
5
185
100
AcDbEntity
8
0
100
AcDbCircle
10
-115.40000000000001
20
73.200000000000003
30
0
40
0.80000000000000016
210
0
220
0
230
1
0
CIRCLE
5
186
100
AcDbEntity
8
0
100
AcDbCircle
10
-125.90000000000002
20
68.049999999999997
30
0
40
0.94999999999999996
210
0
220
0
230
1
0
CIRCLE
5
187
100
AcDbEntity
8
0
100
AcDbCircle
10
-120.40000000000001
20
68.049999999999997
30
0
40
2.5249999999999999
210
0
220
0
230
1
0
CIRCLE
5
188
100
AcDbEntity
8
0
100
AcDbCircle
10
-114.90000000000002
20
68.049999999999997
30
0
40
0.94999999999999996
210
0
220
0
230
1
0
CIRCLE
5
189
100
AcDbEntity
8
0
100
AcDbCircle
10
-125.40000000000001
20
64.25
30
0
40
1.5249999999999999
210
0
220
0
230
1
0
CIRCLE
5
190
100
AcDbEntity
8
0
100
AcDbCircle
10
-120.40000000000001
20
62.149999999999999
30
0
40
1.5249999999999999
210
0
220
0
230
1
0
CIRCLE
5
191
100
AcDbEntity
8
0
100
AcDbCircle
10
-65
20
87.5
30
0
40
0.20000000000000004
210
0
220
0
230
1
0
CIRCLE
5
192
100
AcDbEntity
8
0
100
AcDbCircle
10
-59.705000000000005
20
86.549999999999997
30
0
40
0.80000000000000016
210
0
220
0
230
1
0
CIRCLE
5
193
100
AcDbEntity
8
0
100
AcDbCircle
10
-70.204999999999998
20
81.400000000000006
30
0
40
0.94999999999999996
210
0
220
0
230
1
0
CIRCLE
5
194
100
AcDbEntity
8
0
100
AcDbCircle
10
-64.704999999999998
20
81.400000000000006
30
0
40
2.5249999999999999
210
0
220
0
230
1
0
CIRCLE
5
195
100
AcDbEntity
8
0
100
AcDbCircle
10
-59.205000000000005
20
81.400000000000006
30
0
40
0.94999999999999996
210
0
220
0
230
1
0
CIRCLE
5
196
100
AcDbEntity
8
0
100
AcDbCircle
10
-69.704999999999998
20
77.599999999999994
30
0
40
1.5249999999999999
210
0
220
0
230
1
0
CIRCLE
5
197
100
AcDbEntity
8
0
100
AcDbCircle
10
-64.704999999999998
20
75.5
30
0
40
1.5249999999999999
210
0
220
0
230
1
0
CIRCLE
5
198
100
AcDbEntity
8
0
100
AcDbCircle
10
-91.5
20
74
30
0
40
0.20000000000000004
210
0
220
0
230
1
0
CIRCLE
5
199
100
AcDbEntity
8
0
100
AcDbCircle
10
-86.305000000000007
20
73.079999999999998
30
0
40
0.80000000000000016
210
0
220
0
230
1
0
CIRCLE
5
200
100
AcDbEntity
8
0
100
AcDbCircle
10
-96.805000000000021
20
67.930000000000007
30
0
40
0.94999999999999996
210
0
220
0
230
1
0
CIRCLE
5
201
100
AcDbEntity
8
0
100
AcDbCircle
10
-91.305000000000007
20
67.930000000000007
30
0
40
2.5249999999999999
210
0
220
0
230
1
0
CIRCLE
5
202
100
AcDbEntity
8
0
100
AcDbCircle
10
-85.805000000000007
20
67.930000000000007
30
0
40
0.94999999999999996
210
0
220
0
230
1
0
CIRCLE
5
203
100
AcDbEntity
8
0
100
AcDbCircle
10
-96.305000000000007
20
64.129999999999995
30
0
40
1.5249999999999999
210
0
220
0
230
1
0
CIRCLE
5
204
100
AcDbEntity
8
0
100
AcDbCircle
10
-91.305000000000007
20
62.030000000000001
30
0
40
1.5249999999999999
210
0
220
0
230
1
0
CIRCLE
5
205
100
AcDbEntity
8
0
100
AcDbCircle
10
-149.33000000000001
20
24.5
30
0
40
0.20000000000000004
210
0
220
0
230
1
0
CIRCLE
5
206
100
AcDbEntity
8
0
100
AcDbCircle
10
-133.5
20
37.5
30
0
40
0.20000000000000004
210
0
220
0
230
1
0
CIRCLE
5
207
100
AcDbEntity
8
0
100
AcDbCircle
10
-128.13749999999999
20
36.649999999999999
30
0
40
0.80000000000000016
210
0
220
0
230
1
0
CIRCLE
5
208
100
AcDbEntity
8
0
100
AcDbCircle
10
-116.00000000000001
20
37.5
30
0
40
0.20000000000000004
210
0
220
0
230
1
0
CIRCLE
5
209
100
AcDbEntity
8
0
100
AcDbCircle
10
-138.63749999999999
20
31.500000000000004
30
0
40
0.94999999999999996
210
0
220
0
230
1
0
CIRCLE
5
210
100
AcDbEntity
8
0
100
AcDbCircle
10
-133.13749999999999
20
31.500000000000004
30
0
40
2.5249999999999999
210
0
220
0
230
1
0
CIRCLE
5
211
100
AcDbEntity
8
0
100
AcDbCircle
10
-127.63750000000002
20
31.500000000000004
30
0
40
0.94999999999999996
210
0
220
0
230
1
0
CIRCLE
5
212
100
AcDbEntity
8
0
100
AcDbCircle
10
-138.13749999999999
20
27.699999999999999
30
0
40
1.5249999999999999
210
0
220
0
230
1
0
CIRCLE
5
213
100
AcDbEntity
8
0
100
AcDbCircle
10
-133.13749999999999
20
25.600000000000005
30
0
40
1.5249999999999999
210
0
220
0
230
1
0
CIRCLE
5
214
100
AcDbEntity
8
0
100
AcDbCircle
10
-121.1365
20
31.500000000000004
30
0
40
0.94999999999999996
210
0
220
0
230
1
0
CIRCLE
5
215
100
AcDbEntity
8
0
100
AcDbCircle
10
-115.63650000000001
20
31.500000000000004
30
0
40
2.5249999999999999
210
0
220
0
230
1
0
CIRCLE
5
216
100
AcDbEntity
8
0
100
AcDbCircle
10
-120.63650000000001
20
27.699999999999999
30
0
40
1.5249999999999999
210
0
220
0
230
1
0
CIRCLE
5
217
100
AcDbEntity
8
0
100
AcDbCircle
10
-115.63650000000001
20
25.600000000000005
30
0
40
1.5249999999999999
210
0
220
0
230
1
0
CIRCLE
5
218
100
AcDbEntity
8
0
100
AcDbCircle
10
-110.63650000000001
20
36.649999999999999
30
0
40
0.80000000000000016
210
0
220
0
230
1
0
CIRCLE
5
219
100
AcDbEntity
8
0
100
AcDbCircle
10
-97.000000000000014
20
37.5
30
0
40
0.20000000000000004
210
0
220
0
230
1
0
CIRCLE
5
220
100
AcDbEntity
8
0
100
AcDbCircle
10
-92.137500000000017
20
36.649999999999999
30
0
40
0.80000000000000016
210
0
220
0
230
1
0
CIRCLE
5
221
100
AcDbEntity
8
0
100
AcDbCircle
10
-110.1365
20
31.500000000000004
30
0
40
0.94999999999999996
210
0
220
0
230
1
0
CIRCLE
5
222
100
AcDbEntity
8
0
100
AcDbCircle
10
-102.63750000000002
20
31.500000000000004
30
0
40
0.94999999999999996
210
0
220
0
230
1
0
CIRCLE
5
223
100
AcDbEntity
8
0
100
AcDbCircle
10
-102.13750000000002
20
27.699999999999999
30
0
40
1.5249999999999999
210
0
220
0
230
1
0
CIRCLE
5
224
100
AcDbEntity
8
0
100
AcDbCircle
10
-97.137500000000017
20
31.500000000000004
30
0
40
2.5249999999999999
210
0
220
0
230
1
0
CIRCLE
5
225
100
AcDbEntity
8
0
100
AcDbCircle
10
-91.637500000000003
20
31.500000000000004
30
0
40
0.94999999999999996
210
0
220
0
230
1
0
CIRCLE
5
226
100
AcDbEntity
8
0
100
AcDbCircle
10
-85.137500000000003
20
31.500000000000004
30
0
40
0.94999999999999996
210
0
220
0
230
1
0
CIRCLE
5
227
100
AcDbEntity
8
0
100
AcDbCircle
10
-97.137500000000017
20
25.600000000000005
30
0
40
1.5249999999999999
210
0
220
0
230
1
0
CIRCLE
5
228
100
AcDbEntity
8
0
100
AcDbCircle
10
-79.5
20
37.5
30
0
40
0.20000000000000004
210
0
220
0
230
1
0
CIRCLE
5
229
100
AcDbEntity
8
0
100
AcDbCircle
10
-74.637500000000017
20
36.649999999999999
30
0
40
0.80000000000000016
210
0
220
0
230
1
0
CIRCLE
5
230
100
AcDbEntity
8
0
100
AcDbCircle
10
-79.637500000000017
20
31.500000000000004
30
0
40
2.5249999999999999
210
0
220
0
230
1
0
CIRCLE
5
231
100
AcDbEntity
8
0
100
AcDbCircle
10
-74.137500000000003
20
31.500000000000004
30
0
40
0.94999999999999996
210
0
220
0
230
1
0
CIRCLE
5
232
100
AcDbEntity
8
0
100
AcDbCircle
10
-84.637500000000017
20
27.699999999999999
30
0
40
1.5249999999999999
210
0
220
0
230
1
0
CIRCLE
5
233
100
AcDbEntity
8
0
100
AcDbCircle
10
-79.637500000000017
20
25.600000000000005
30
0
40
1.5249999999999999
210
0
220
0
230
1
0
CIRCLE
5
234
100
AcDbEntity
8
0
100
AcDbCircle
10
-60
20
30
30
0
40
3.2000000000000006
210
0
220
0
230
1
0
ENDSEC
0
SECTION
2
OBJECTS
0
DICTIONARY
5
C
100
AcDbDictionary
3
ACAD_GROUP
350
D
3
ACAD_MLINESTYLE
350
17
0
DICTIONARY
5
D
100
AcDbDictionary
0
DICTIONARY
5
1A
330
C
100
AcDbDictionary
0
DICTIONARY
5
17
100
AcDbDictionary
0
ENDSEC
0
EOF
