M48
; DRILL file {KiCad 8.0.1} date 2024-04-24T00:01:50-0400
; FORMAT={-:-/ absolute / inch / decimal}
; #@! TF.CreationDate,2024-04-24T00:01:50-04:00
; #@! TF.GenerationSoftware,Kicad,Pcbnew,8.0.1
; #@! TF.FileFunction,NonPlated,1,2,NPTH
FMAT,2
INCH
; #@! TA.AperFunction,NonPlated,NPTH,ComponentDrill
T1C0.0630
; #@! TA.AperFunction,NonPlated,NPTH,ComponentDrill
T2C0.0748
; #@! TA.AperFunction,NonPlated,NPTH,ComponentDrill
T3C0.1201
; #@! TA.AperFunction,NonPlated,NPTH,ComponentDrill
T4C0.1988
; #@! TA.AperFunction,NonPlated,NPTH,ComponentDrill
T5C0.2520
%
G90
G05
T1
X2.3506Y-3.4075
X2.9385Y-1.4429
X3.3978Y-2.8772
X3.6275Y-1.4429
X4.3558Y-1.4429
X4.5433Y-2.8819
X4.8Y-5.3752
X5.0448Y-1.4429
X5.5906Y-3.3287
X6.2795Y-5.4193
X6.7453Y-4.1016
X6.9661Y-2.8795
X7.7591Y-5.3752
X7.7929Y-3.6642
X8.0118Y-2.4256
X8.9287Y-3.6642
X9.1524Y-2.4209
X10.2002Y-3.2898
T2
X2.3309Y-3.2047
X2.764Y-3.2047
X2.9188Y-1.2402
X3.3519Y-1.2402
X3.3781Y-2.6744
X3.6078Y-1.2402
X3.8112Y-2.6744
X4.0408Y-1.2402
X4.3361Y-1.2402
X4.5236Y-2.6791
X4.7692Y-1.2402
X4.7803Y-5.1724
X4.9567Y-2.6791
X5.0251Y-1.2402
X5.2134Y-5.1724
X5.4582Y-1.2402
X5.5709Y-3.126
X6.0039Y-3.126
X6.2598Y-5.2165
X6.6929Y-5.2165
X6.7256Y-3.8988
X6.9465Y-2.6768
X7.1587Y-3.8988
X7.3795Y-2.6768
X7.7394Y-5.1724
X7.7732Y-3.4614
X7.9921Y-2.2228
X8.1724Y-5.1724
X8.2063Y-3.4614
X8.4252Y-2.2228
X8.9091Y-3.4614
X9.1327Y-2.2181
X9.3421Y-3.4614
X9.5657Y-2.2181
X10.1806Y-3.087
X10.6136Y-3.087
T3
X2.5474Y-2.9724
X2.7443Y-3.0551
X3.1353Y-1.0079
X3.3322Y-1.0906
X3.5947Y-2.4421
X3.7915Y-2.5248
X3.8243Y-1.0079
X4.0212Y-1.0906
X4.5526Y-1.0079
X4.7402Y-2.4469
X4.7495Y-1.0906
X4.937Y-2.5295
X4.9969Y-4.9402
X5.1937Y-5.0228
X5.2416Y-1.0079
X5.4385Y-1.0906
X5.7874Y-2.8937
X5.9843Y-2.9764
X6.4764Y-4.9843
X6.6732Y-5.0669
X6.9421Y-3.6665
X7.139Y-3.7492
X7.163Y-2.4445
X7.3598Y-2.5272
X7.9559Y-4.9402
X7.9898Y-3.2291
X8.1528Y-5.0228
X8.1866Y-3.3118
X8.2087Y-1.9906
X8.4055Y-2.0732
X9.1256Y-3.2291
X9.3224Y-3.3118
X9.3492Y-1.9858
X9.5461Y-2.0685
X10.3971Y-2.8547
X10.5939Y-2.9374
T4
X2.5474Y-3.2047
X3.1353Y-1.2402
X3.5947Y-2.6744
X3.8243Y-1.2402
X4.5526Y-1.2402
X4.7402Y-2.6791
X4.9969Y-5.1724
X5.2416Y-1.2402
X5.7874Y-3.126
X6.4764Y-5.2165
X6.9421Y-3.8988
X7.163Y-2.6768
X7.9559Y-5.1724
X7.9898Y-3.4614
X8.2087Y-2.2228
X9.1256Y-3.4614
X9.3492Y-2.2181
X10.3971Y-3.087
T5
X2.3622Y-1.1811
X2.3622Y-6.1024
X6.5748Y-3.189
X6.6929Y-6.1024
X7.4803Y-1.1811
X11.0236Y-1.1811
X11.0236Y-6.1024
M30
